{"glyphs":{"0":{"ha":1028,"x_min":54,"x_max":974,"o":"m 514 -21 q 170 106 286 -21 q 54 472 54 233 q 170 838 54 711 q 514 965 286 965 q 857 838 740 965 q 974 472 974 710 q 857 107 974 235 q 514 -21 740 -21 m 671 792 q 514 833 611 833 q 299 743 369 833 q 229 472 229 653 q 288 251 229 329 l 671 792 m 514 110 q 728 200 658 110 q 797 472 797 290 q 742 692 797 613 l 357 149 q 514 110 419 110 z "},"1":{"ha":657,"x_min":56,"x_max":631,"o":"m 129 0 q 90 10 101 0 q 79 46 79 21 l 79 86 q 90 124 79 113 q 129 135 101 135 l 265 135 l 265 750 l 146 678 q 126 671 135 671 q 106 685 114 671 l 61 754 q 56 772 56 764 q 71 794 56 786 l 300 932 q 319 942 310 939 q 346 944 329 944 l 392 944 q 444 893 444 944 l 444 135 l 581 135 q 619 124 608 135 q 631 86 631 113 l 631 46 q 619 10 631 21 q 581 0 608 0 l 129 0 z "},"2":{"ha":799,"x_min":57,"x_max":742,"o":"m 103 0 q 57 47 57 0 l 57 101 q 126 276 57 190 q 332 440 194 363 q 476 528 431 496 q 544 598 522 561 q 565 689 565 635 q 515 797 565 760 q 375 833 465 833 q 252 817 310 833 q 153 778 194 801 q 135 771 139 771 q 118 783 126 771 l 79 851 q 72 871 72 863 q 85 890 72 882 q 217 945 133 925 q 399 965 300 965 q 647 895 553 965 q 742 697 742 825 q 676 517 742 590 q 468 365 610 443 q 303 251 364 311 q 238 135 242 192 l 688 135 q 726 123 715 135 q 738 85 738 111 l 738 47 q 726 11 738 22 q 688 0 715 0 l 103 0 z "},"3":{"ha":824,"x_min":54,"x_max":769,"o":"m 399 -21 q 67 51 174 -21 q 54 71 54 60 q 61 90 54 79 l 101 158 q 117 172 110 172 q 136 165 122 172 q 242 125 182 140 q 374 110 303 110 q 541 153 488 110 q 594 275 594 197 q 418 419 594 419 l 301 419 q 262 431 274 419 q 250 469 250 443 l 250 506 q 262 542 250 531 q 301 553 274 553 l 415 553 q 528 592 490 553 q 565 693 565 632 q 368 833 565 833 q 153 782 246 833 q 133 775 139 775 q 118 788 126 775 l 79 853 q 72 872 72 864 q 85 892 72 883 q 214 946 133 926 q 393 965 294 965 q 578 932 500 965 q 699 838 657 899 q 742 697 742 778 q 710 576 742 632 q 621 490 679 521 q 733 405 696 463 q 769 269 769 347 q 673 59 769 139 q 399 -21 576 -21 z "},"4":{"ha":854,"x_min":26,"x_max":828,"o":"m 554 0 q 515 11 526 0 q 503 47 503 22 l 503 206 l 63 206 q 26 239 26 206 l 26 296 q 31 326 26 315 q 46 351 35 336 l 514 918 q 536 939 526 933 q 567 944 546 944 l 628 944 q 668 932 656 944 q 681 893 681 919 l 681 340 l 778 340 q 817 328 806 340 q 828 290 828 317 l 828 253 q 817 217 828 228 q 778 206 806 206 l 681 206 l 681 47 q 669 11 681 22 q 628 0 657 0 l 554 0 m 532 340 l 532 735 l 213 340 l 532 340 z "},"5":{"ha":860,"x_min":54,"x_max":806,"o":"m 396 -21 q 210 1 299 -21 q 67 58 121 22 q 54 76 54 67 q 61 96 54 85 l 101 165 q 117 178 108 178 q 136 169 124 178 q 247 126 181 143 q 390 110 313 110 q 568 159 507 110 q 629 307 629 208 q 577 461 629 417 q 411 506 525 506 q 218 469 297 506 q 169 460 189 460 q 109 481 133 460 q 86 539 85 501 l 110 897 q 122 933 111 922 q 161 944 133 944 l 711 944 q 750 933 739 944 q 761 896 761 922 l 761 858 q 750 820 761 832 q 711 808 739 808 l 260 808 l 246 603 q 440 629 328 629 q 806 307 806 629 q 755 133 806 207 q 612 19 704 58 q 396 -21 519 -21 z "},"6":{"ha":890,"x_min":54,"x_max":836,"o":"m 440 -21 q 160 83 267 -21 q 54 411 54 186 q 114 733 54 608 q 269 911 174 857 q 478 965 365 965 q 747 893 643 965 q 760 874 760 883 q 754 856 760 865 l 717 790 q 700 776 708 776 q 681 785 693 776 q 595 822 640 810 q 488 833 550 833 q 313 772 375 833 q 226 579 250 710 q 340 641 276 622 q 488 660 403 660 q 670 620 592 660 q 792 509 749 581 q 836 344 836 438 q 732 72 836 164 q 440 -21 628 -21 m 440 110 q 660 340 660 110 q 601 492 660 439 q 446 546 543 546 q 296 494 360 546 q 232 336 232 442 q 288 164 232 218 q 440 110 344 110 z "},"7":{"ha":824,"x_min":40,"x_max":783,"o":"m 172 0 q 153 17 153 0 q 158 35 153 25 l 563 808 l 86 808 q 50 819 60 808 q 40 857 40 831 l 40 899 q 50 934 40 924 q 86 944 60 944 l 724 944 q 770 933 757 944 q 783 894 783 922 q 774 854 783 876 q 754 813 765 832 q 740 786 743 793 l 342 19 q 328 4 336 8 q 307 0 321 0 l 172 0 z "},"8":{"ha":886,"x_min":54,"x_max":832,"o":"m 443 -21 q 157 54 260 -21 q 54 265 54 129 q 97 405 54 344 q 213 492 139 465 q 114 571 147 521 q 81 688 81 621 q 174 893 81 821 q 443 965 268 965 q 711 893 618 965 q 804 688 804 821 q 771 571 804 621 q 674 492 738 521 q 790 405 747 465 q 832 265 832 344 q 728 54 832 129 q 443 -21 625 -21 m 443 554 q 581 585 533 554 q 628 688 628 617 q 583 799 628 765 q 443 833 538 833 q 303 799 349 833 q 257 688 257 765 q 304 585 257 617 q 443 554 351 554 m 443 110 q 656 265 656 110 q 443 425 656 425 q 229 265 229 425 q 443 110 229 110 z "},"9":{"ha":883,"x_min":54,"x_max":829,"o":"m 415 -21 q 259 -2 329 -21 q 140 49 189 17 q 128 68 128 57 q 135 88 128 76 l 174 154 q 189 167 182 167 q 208 160 194 167 q 406 110 292 110 q 588 172 524 110 q 667 364 651 235 q 556 301 619 319 q 407 282 493 282 q 219 322 299 282 q 97 433 139 361 q 54 599 54 506 q 157 874 54 782 q 450 965 260 965 q 726 859 622 965 q 829 532 829 753 q 713 108 829 238 q 415 -21 597 -21 m 446 396 q 545 419 499 396 q 621 487 592 442 q 650 596 650 532 q 597 774 650 714 q 449 833 544 833 q 284 778 339 833 q 229 601 229 722 q 284 447 229 499 q 446 396 339 396 z "},"\r":{"ha":542,"x_min":0,"x_max":0,"o":""}," ":{"ha":542,"x_min":0,"x_max":0,"o":""},"A":{"ha":1018,"x_min":54,"x_max":964,"o":"m 78 0 q 54 21 54 0 q 58 39 54 29 l 425 908 q 443 937 433 929 q 471 944 453 944 l 547 944 q 576 937 567 944 q 593 908 585 929 l 960 39 q 964 21 964 29 q 940 0 964 0 l 819 0 q 794 5 801 0 q 779 25 786 10 l 700 219 l 317 219 l 239 25 q 224 5 232 10 q 199 0 217 0 l 78 0 m 656 349 l 508 713 l 361 349 l 656 349 z "},"Á":{"ha":1018,"x_min":54,"x_max":964,"o":"m 469 1013 q 440 1035 440 1013 q 443 1051 440 1046 l 508 1233 q 526 1260 517 1253 q 560 1267 535 1267 l 663 1267 q 697 1243 697 1267 q 692 1222 697 1233 l 600 1043 q 579 1019 590 1025 q 542 1013 568 1013 l 469 1013 m 78 0 q 54 21 54 0 q 58 39 54 29 l 425 908 q 443 937 433 929 q 471 944 453 944 l 547 944 q 576 937 567 944 q 593 908 585 929 l 960 39 q 964 21 964 29 q 940 0 964 0 l 819 0 q 794 5 801 0 q 779 25 786 10 l 700 219 l 317 219 l 239 25 q 224 5 232 10 q 199 0 217 0 l 78 0 m 656 349 l 508 713 l 361 349 l 656 349 z "},"Ă":{"ha":1018,"x_min":54,"x_max":964,"o":"m 508 1050 q 337 1112 394 1050 q 279 1276 279 1174 q 285 1294 279 1288 q 301 1301 292 1301 l 393 1301 q 412 1295 407 1301 q 417 1275 417 1289 q 437 1198 417 1225 q 508 1171 457 1171 q 579 1198 558 1171 q 600 1275 600 1225 q 605 1295 600 1289 q 624 1301 610 1301 l 715 1301 q 731 1294 725 1301 q 738 1276 738 1288 q 678 1113 738 1175 q 508 1050 619 1050 m 78 0 q 54 21 54 0 q 58 39 54 29 l 425 908 q 443 937 433 929 q 471 944 453 944 l 547 944 q 576 937 567 944 q 593 908 585 929 l 960 39 q 964 21 964 29 q 940 0 964 0 l 819 0 q 794 5 801 0 q 779 25 786 10 l 700 219 l 317 219 l 239 25 q 224 5 232 10 q 199 0 217 0 l 78 0 m 656 349 l 508 713 l 361 349 l 656 349 z "},"Ắ":{"ha":1018,"x_min":54,"x_max":964,"o":"m 479 1240 q 453 1261 453 1240 q 456 1275 453 1267 l 501 1403 q 517 1429 508 1422 q 549 1436 525 1436 l 618 1436 q 647 1415 647 1436 q 640 1393 647 1404 l 575 1271 q 554 1246 564 1251 q 521 1240 544 1240 l 479 1240 m 508 1042 q 341 1097 403 1042 q 279 1240 279 1151 q 285 1258 279 1251 q 301 1265 292 1265 l 392 1265 q 410 1259 406 1265 q 415 1239 415 1253 q 439 1177 415 1201 q 508 1153 463 1153 q 578 1177 554 1153 q 601 1239 601 1201 q 606 1259 601 1253 q 625 1265 611 1265 l 715 1265 q 731 1258 725 1265 q 738 1240 738 1251 q 675 1097 738 1151 q 508 1042 613 1042 m 78 0 q 54 21 54 0 q 58 39 54 29 l 425 908 q 443 937 433 929 q 471 944 453 944 l 547 944 q 576 937 567 944 q 593 908 585 929 l 960 39 q 964 21 964 29 q 940 0 964 0 l 819 0 q 794 5 801 0 q 779 25 786 10 l 700 219 l 317 219 l 239 25 q 224 5 232 10 q 199 0 217 0 l 78 0 m 656 349 l 508 713 l 361 349 l 656 349 z "},"Ặ":{"ha":1018,"x_min":54,"x_max":964,"o":"m 508 1033 q 337 1095 394 1033 q 279 1260 279 1157 q 285 1278 279 1271 q 301 1285 292 1285 l 393 1285 q 412 1278 407 1285 q 417 1258 417 1272 q 437 1181 417 1208 q 508 1154 457 1154 q 579 1181 558 1154 q 600 1258 600 1208 q 605 1278 600 1272 q 624 1285 610 1285 l 715 1285 q 731 1278 725 1285 q 738 1260 738 1271 q 678 1096 738 1158 q 508 1033 619 1033 m 78 0 q 54 21 54 0 q 58 39 54 29 l 425 908 q 443 937 433 929 q 471 944 453 944 l 547 944 q 576 937 567 944 q 593 908 585 929 l 960 39 q 964 21 964 29 q 940 0 964 0 l 819 0 q 794 5 801 0 q 779 25 786 10 l 700 219 l 317 219 l 239 25 q 224 5 232 10 q 199 0 217 0 l 78 0 m 656 349 l 508 713 l 361 349 l 656 349 m 496 -256 q 449 -235 468 -256 q 431 -186 431 -215 l 431 -160 q 449 -112 431 -132 q 496 -92 468 -92 l 524 -92 q 571 -111 553 -92 q 589 -160 589 -131 l 589 -186 q 571 -235 589 -215 q 524 -256 553 -256 l 496 -256 z "},"Ằ":{"ha":1018,"x_min":54,"x_max":964,"o":"m 496 1221 q 463 1226 472 1221 q 442 1251 453 1232 l 376 1374 q 369 1396 369 1385 q 399 1417 369 1417 l 468 1417 q 500 1410 492 1417 q 515 1383 508 1403 l 561 1256 q 564 1242 564 1247 q 538 1221 564 1221 l 496 1221 m 508 1022 q 342 1077 404 1022 q 279 1221 279 1132 q 285 1239 279 1232 q 301 1246 292 1246 l 392 1246 q 410 1240 406 1246 q 415 1219 415 1233 q 439 1158 415 1182 q 508 1133 463 1133 q 578 1158 554 1133 q 601 1219 601 1182 q 606 1240 601 1233 q 625 1246 611 1246 l 715 1246 q 731 1239 725 1246 q 738 1221 738 1232 q 676 1077 738 1132 q 508 1022 614 1022 m 78 0 q 54 21 54 0 q 58 39 54 29 l 425 908 q 443 937 433 929 q 471 944 453 944 l 547 944 q 576 937 567 944 q 593 908 585 929 l 960 39 q 964 21 964 29 q 940 0 964 0 l 819 0 q 794 5 801 0 q 779 25 786 10 l 700 219 l 317 219 l 239 25 q 224 5 232 10 q 199 0 217 0 l 78 0 m 656 349 l 508 713 l 361 349 l 656 349 z "},"Ẳ":{"ha":1018,"x_min":54,"x_max":964,"o":"m 474 1196 q 444 1224 444 1196 l 444 1263 q 488 1301 444 1301 q 531 1310 518 1301 q 543 1338 543 1318 q 496 1369 543 1369 q 422 1350 456 1369 q 411 1353 414 1346 l 386 1403 q 390 1417 383 1411 q 445 1438 411 1431 q 514 1446 479 1446 q 615 1419 581 1446 q 649 1342 649 1392 q 620 1269 649 1294 q 549 1243 592 1243 l 549 1224 q 521 1196 549 1196 l 474 1196 m 510 1021 q 343 1076 406 1021 q 281 1219 281 1131 q 287 1238 281 1231 q 303 1244 293 1244 l 393 1244 q 412 1238 407 1244 q 417 1218 417 1232 q 440 1156 417 1181 q 510 1132 464 1132 q 579 1156 556 1132 q 603 1218 603 1181 q 608 1238 603 1232 q 626 1244 613 1244 l 717 1244 q 733 1238 726 1244 q 739 1219 739 1231 q 677 1076 739 1131 q 510 1021 615 1021 m 78 0 q 54 21 54 0 q 58 39 54 29 l 425 908 q 443 937 433 929 q 471 944 453 944 l 547 944 q 576 937 567 944 q 593 908 585 929 l 960 39 q 964 21 964 29 q 940 0 964 0 l 819 0 q 794 5 801 0 q 779 25 786 10 l 700 219 l 317 219 l 239 25 q 224 5 232 10 q 199 0 217 0 l 78 0 m 656 349 l 508 713 l 361 349 l 656 349 z "},"Ẵ":{"ha":1018,"x_min":54,"x_max":964,"o":"m 596 1279 q 547 1287 568 1279 q 494 1311 525 1294 q 451 1331 468 1325 q 415 1338 435 1338 q 378 1328 392 1338 q 346 1299 364 1319 q 322 1285 336 1285 q 282 1306 307 1285 q 267 1321 274 1313 q 261 1336 261 1329 q 272 1363 261 1347 q 331 1420 299 1400 q 404 1440 363 1440 q 462 1431 438 1440 q 515 1406 486 1422 q 558 1386 543 1392 q 590 1381 572 1381 q 628 1389 614 1381 q 660 1419 643 1397 q 685 1435 671 1435 q 724 1417 700 1435 q 746 1385 746 1399 q 733 1356 746 1372 q 672 1297 704 1315 q 596 1279 640 1279 m 508 1021 q 342 1076 404 1021 q 279 1219 279 1131 q 285 1238 279 1231 q 301 1244 292 1244 l 392 1244 q 410 1238 406 1244 q 415 1218 415 1232 q 439 1156 415 1181 q 508 1132 463 1132 q 578 1156 554 1132 q 601 1218 601 1181 q 606 1238 601 1232 q 625 1244 611 1244 l 715 1244 q 731 1238 725 1244 q 738 1219 738 1231 q 676 1076 738 1131 q 508 1021 614 1021 m 78 0 q 54 21 54 0 q 58 39 54 29 l 425 908 q 443 937 433 929 q 471 944 453 944 l 547 944 q 576 937 567 944 q 593 908 585 929 l 960 39 q 964 21 964 29 q 940 0 964 0 l 819 0 q 794 5 801 0 q 779 25 786 10 l 700 219 l 317 219 l 239 25 q 224 5 232 10 q 199 0 217 0 l 78 0 m 656 349 l 508 713 l 361 349 l 656 349 z "},"Ǎ":{"ha":1018,"x_min":54,"x_max":964,"o":"m 469 1031 q 440 1036 447 1031 q 417 1060 432 1042 l 272 1256 q 261 1282 261 1271 q 286 1300 261 1300 l 360 1300 q 393 1295 383 1300 q 414 1274 403 1290 l 510 1133 l 604 1274 q 624 1295 614 1290 q 658 1300 633 1300 l 731 1300 q 757 1282 757 1300 q 746 1256 757 1268 l 601 1060 q 580 1036 589 1042 q 549 1031 571 1031 l 469 1031 m 78 0 q 54 21 54 0 q 58 39 54 29 l 425 908 q 443 937 433 929 q 471 944 453 944 l 547 944 q 576 937 567 944 q 593 908 585 929 l 960 39 q 964 21 964 29 q 940 0 964 0 l 819 0 q 794 5 801 0 q 779 25 786 10 l 700 219 l 317 219 l 239 25 q 224 5 232 10 q 199 0 217 0 l 78 0 m 656 349 l 508 713 l 361 349 l 656 349 z "},"Â":{"ha":1018,"x_min":54,"x_max":964,"o":"m 293 1008 q 270 1014 279 1008 q 261 1029 261 1019 q 271 1053 261 1042 l 415 1249 q 438 1274 431 1268 q 468 1279 446 1279 l 547 1279 q 578 1273 569 1279 q 600 1249 586 1267 l 744 1053 q 754 1029 754 1042 q 746 1014 754 1019 q 724 1008 738 1008 l 658 1008 q 624 1015 635 1008 q 601 1038 614 1021 l 508 1176 l 414 1038 q 393 1015 404 1021 q 358 1008 382 1008 l 293 1008 m 78 0 q 54 21 54 0 q 58 39 54 29 l 425 908 q 443 937 433 929 q 471 944 453 944 l 547 944 q 576 937 567 944 q 593 908 585 929 l 960 39 q 964 21 964 29 q 940 0 964 0 l 819 0 q 794 5 801 0 q 779 25 786 10 l 700 219 l 317 219 l 239 25 q 224 5 232 10 q 199 0 217 0 l 78 0 m 656 349 l 508 713 l 361 349 l 656 349 z "},"Ấ":{"ha":1018,"x_min":54,"x_max":964,"o":"m 681 1201 q 654 1222 654 1201 q 657 1236 654 1228 l 706 1371 q 721 1397 713 1390 q 753 1404 729 1404 l 822 1404 q 851 1383 851 1404 q 844 1361 851 1372 l 776 1232 q 756 1207 765 1213 q 722 1201 746 1201 l 681 1201 m 303 1021 q 281 1026 289 1021 q 272 1042 272 1032 q 283 1065 272 1051 l 424 1236 q 448 1260 439 1254 q 479 1267 457 1267 l 542 1267 q 574 1260 564 1267 q 597 1236 585 1254 l 738 1065 q 749 1042 749 1051 q 740 1026 749 1032 q 718 1021 732 1021 l 656 1021 q 624 1026 633 1021 q 601 1046 614 1031 l 511 1161 l 419 1046 q 399 1026 410 1031 q 365 1021 389 1021 l 303 1021 m 78 0 q 54 21 54 0 q 58 39 54 29 l 425 908 q 443 937 433 929 q 471 944 453 944 l 547 944 q 576 937 567 944 q 593 908 585 929 l 960 39 q 964 21 964 29 q 940 0 964 0 l 819 0 q 794 5 801 0 q 779 25 786 10 l 700 219 l 317 219 l 239 25 q 224 5 232 10 q 199 0 217 0 l 78 0 m 656 349 l 508 713 l 361 349 l 656 349 z "},"Ậ":{"ha":1018,"x_min":54,"x_max":964,"o":"m 293 1025 q 270 1031 279 1025 q 261 1046 261 1036 q 271 1069 261 1058 l 415 1265 q 438 1290 431 1285 q 468 1296 446 1296 l 547 1296 q 578 1290 569 1296 q 600 1265 586 1283 l 744 1069 q 754 1046 754 1058 q 746 1031 754 1036 q 724 1025 738 1025 l 658 1025 q 624 1031 635 1025 q 601 1054 614 1038 l 508 1193 l 414 1054 q 393 1031 404 1038 q 358 1025 382 1025 l 293 1025 m 78 0 q 54 21 54 0 q 58 39 54 29 l 425 908 q 443 937 433 929 q 471 944 453 944 l 547 944 q 576 937 567 944 q 593 908 585 929 l 960 39 q 964 21 964 29 q 940 0 964 0 l 819 0 q 794 5 801 0 q 779 25 786 10 l 700 219 l 317 219 l 239 25 q 224 5 232 10 q 199 0 217 0 l 78 0 m 656 349 l 508 713 l 361 349 l 656 349 m 494 -256 q 448 -235 467 -256 q 429 -186 429 -215 l 429 -160 q 448 -112 429 -132 q 494 -92 467 -92 l 522 -92 q 569 -111 551 -92 q 588 -160 588 -131 l 588 -186 q 569 -235 588 -215 q 522 -256 551 -256 l 494 -256 z "},"Ầ":{"ha":1018,"x_min":54,"x_max":964,"o":"m 296 1201 q 263 1207 272 1201 q 242 1232 253 1213 l 174 1361 q 167 1383 167 1375 q 196 1404 167 1404 l 265 1404 q 297 1397 289 1404 q 313 1371 306 1390 l 361 1236 q 364 1222 364 1228 q 338 1201 364 1201 l 296 1201 m 300 1021 q 278 1026 286 1021 q 269 1042 269 1032 q 281 1065 269 1051 l 421 1236 q 445 1260 436 1254 q 476 1267 454 1267 l 539 1267 q 570 1260 561 1267 q 594 1236 579 1254 l 735 1065 q 746 1042 746 1051 q 738 1026 746 1032 q 715 1021 729 1021 l 653 1021 q 621 1026 631 1021 q 599 1046 611 1031 l 507 1161 l 417 1046 q 394 1026 404 1031 q 363 1021 385 1021 l 300 1021 m 78 0 q 54 21 54 0 q 58 39 54 29 l 425 908 q 443 937 433 929 q 471 944 453 944 l 547 944 q 576 937 567 944 q 593 908 585 929 l 960 39 q 964 21 964 29 q 940 0 964 0 l 819 0 q 794 5 801 0 q 779 25 786 10 l 700 219 l 317 219 l 239 25 q 224 5 232 10 q 199 0 217 0 l 78 0 m 656 349 l 508 713 l 361 349 l 656 349 z "},"Ẩ":{"ha":1018,"x_min":54,"x_max":964,"o":"m 688 1188 q 658 1215 658 1188 l 658 1254 q 701 1293 658 1293 q 744 1301 732 1293 q 757 1329 757 1310 q 710 1361 757 1361 q 636 1342 671 1361 q 625 1344 628 1338 l 600 1394 q 604 1408 597 1403 q 659 1430 625 1422 q 728 1438 693 1438 q 828 1410 794 1438 q 863 1333 863 1383 q 834 1260 863 1286 q 763 1235 806 1235 l 763 1215 q 735 1188 763 1188 l 688 1188 m 278 1028 q 261 1042 261 1028 q 267 1054 261 1049 l 422 1238 q 447 1261 438 1256 q 478 1267 456 1267 l 540 1267 q 572 1261 563 1267 q 596 1238 582 1256 l 751 1054 q 757 1042 757 1049 q 740 1028 757 1028 l 642 1028 q 624 1030 629 1028 q 613 1039 618 1032 l 508 1167 l 406 1039 q 394 1030 400 1032 q 376 1028 389 1028 l 278 1028 m 78 0 q 54 21 54 0 q 58 39 54 29 l 425 908 q 443 937 433 929 q 471 944 453 944 l 547 944 q 576 937 567 944 q 593 908 585 929 l 960 39 q 964 21 964 29 q 940 0 964 0 l 819 0 q 794 5 801 0 q 779 25 786 10 l 700 219 l 317 219 l 239 25 q 224 5 232 10 q 199 0 217 0 l 78 0 m 656 349 l 508 713 l 361 349 l 656 349 z "},"Ẫ":{"ha":1018,"x_min":54,"x_max":964,"o":"m 610 1285 q 560 1292 582 1285 q 508 1317 539 1300 q 465 1337 482 1331 q 429 1343 449 1343 q 392 1334 406 1343 q 360 1304 378 1325 q 336 1290 350 1290 q 296 1311 321 1290 q 281 1326 288 1318 q 275 1342 275 1335 q 286 1368 275 1353 q 344 1426 313 1406 q 418 1446 376 1446 q 476 1437 451 1446 q 529 1411 500 1428 q 572 1392 557 1397 q 604 1386 586 1386 q 642 1394 628 1386 q 674 1425 657 1403 q 699 1440 685 1440 q 738 1422 714 1440 q 760 1390 760 1404 q 747 1361 760 1378 q 686 1303 718 1321 q 610 1285 654 1285 m 278 1028 q 261 1042 261 1028 q 267 1054 261 1049 l 422 1238 q 447 1261 438 1256 q 478 1267 456 1267 l 540 1267 q 572 1261 563 1267 q 596 1238 582 1256 l 751 1054 q 757 1042 757 1049 q 740 1028 757 1028 l 642 1028 q 624 1030 629 1028 q 613 1039 618 1032 l 508 1167 l 406 1039 q 394 1030 400 1032 q 376 1028 389 1028 l 278 1028 m 78 0 q 54 21 54 0 q 58 39 54 29 l 425 908 q 443 937 433 929 q 471 944 453 944 l 547 944 q 576 937 567 944 q 593 908 585 929 l 960 39 q 964 21 964 29 q 940 0 964 0 l 819 0 q 794 5 801 0 q 779 25 786 10 l 700 219 l 317 219 l 239 25 q 224 5 232 10 q 199 0 217 0 l 78 0 m 656 349 l 508 713 l 361 349 l 656 349 z "},"Ä":{"ha":1018,"x_min":54,"x_max":964,"o":"m 358 1022 q 311 1042 329 1022 q 293 1092 293 1063 l 293 1118 q 311 1167 293 1147 q 358 1186 329 1186 l 386 1186 q 433 1167 415 1186 q 451 1118 451 1147 l 451 1092 q 433 1042 451 1063 q 386 1022 415 1022 l 358 1022 m 632 1022 q 585 1042 604 1022 q 567 1092 567 1063 l 567 1118 q 585 1166 567 1146 q 632 1186 604 1186 l 660 1186 q 707 1167 689 1186 q 725 1118 725 1147 l 725 1092 q 707 1042 725 1063 q 660 1022 689 1022 l 632 1022 m 78 0 q 54 21 54 0 q 58 39 54 29 l 425 908 q 443 937 433 929 q 471 944 453 944 l 547 944 q 576 937 567 944 q 593 908 585 929 l 960 39 q 964 21 964 29 q 940 0 964 0 l 819 0 q 794 5 801 0 q 779 25 786 10 l 700 219 l 317 219 l 239 25 q 224 5 232 10 q 199 0 217 0 l 78 0 m 656 349 l 508 713 l 361 349 l 656 349 z "},"Ạ":{"ha":1018,"x_min":54,"x_max":964,"o":"m 78 0 q 54 21 54 0 q 58 39 54 29 l 425 908 q 443 937 433 929 q 471 944 453 944 l 547 944 q 576 937 567 944 q 593 908 585 929 l 960 39 q 964 21 964 29 q 940 0 964 0 l 819 0 q 794 5 801 0 q 779 25 786 10 l 700 219 l 317 219 l 239 25 q 224 5 232 10 q 199 0 217 0 l 78 0 m 656 349 l 508 713 l 361 349 l 656 349 m 496 -256 q 449 -235 468 -256 q 431 -186 431 -215 l 431 -160 q 449 -112 431 -132 q 496 -92 468 -92 l 524 -92 q 571 -111 553 -92 q 589 -160 589 -131 l 589 -186 q 571 -235 589 -215 q 524 -256 553 -256 l 496 -256 z "},"À":{"ha":1018,"x_min":54,"x_max":964,"o":"m 483 1013 q 447 1019 458 1013 q 426 1043 436 1025 l 335 1222 q 329 1243 329 1233 q 364 1267 329 1267 l 465 1267 q 501 1260 492 1267 q 517 1233 510 1253 l 583 1051 q 586 1035 586 1046 q 556 1013 586 1013 l 483 1013 m 78 0 q 54 21 54 0 q 58 39 54 29 l 425 908 q 443 937 433 929 q 471 944 453 944 l 547 944 q 576 937 567 944 q 593 908 585 929 l 960 39 q 964 21 964 29 q 940 0 964 0 l 819 0 q 794 5 801 0 q 779 25 786 10 l 700 219 l 317 219 l 239 25 q 224 5 232 10 q 199 0 217 0 l 78 0 m 656 349 l 508 713 l 361 349 l 656 349 z "},"Ả":{"ha":1018,"x_min":54,"x_max":964,"o":"m 475 1015 q 443 1047 443 1015 l 443 1110 q 454 1142 443 1132 q 492 1153 465 1153 q 558 1165 540 1153 q 575 1206 575 1176 q 558 1240 575 1229 q 503 1251 542 1251 q 399 1225 451 1251 q 385 1228 389 1221 l 356 1292 q 354 1299 354 1294 q 361 1308 354 1303 q 432 1337 389 1326 q 518 1347 475 1347 q 656 1312 610 1347 q 701 1211 701 1276 q 661 1114 701 1150 q 565 1078 621 1078 l 565 1047 q 533 1015 565 1015 l 475 1015 m 78 0 q 54 21 54 0 q 58 39 54 29 l 425 908 q 443 937 433 929 q 471 944 453 944 l 547 944 q 576 937 567 944 q 593 908 585 929 l 960 39 q 964 21 964 29 q 940 0 964 0 l 819 0 q 794 5 801 0 q 779 25 786 10 l 700 219 l 317 219 l 239 25 q 224 5 232 10 q 199 0 217 0 l 78 0 m 656 349 l 508 713 l 361 349 l 656 349 z "},"Ā":{"ha":1018,"x_min":54,"x_max":964,"o":"m 319 1079 q 281 1090 292 1079 q 269 1128 269 1101 l 269 1164 q 281 1202 269 1190 q 319 1214 292 1214 l 699 1214 q 738 1202 726 1214 q 749 1164 749 1190 l 749 1128 q 738 1090 749 1101 q 699 1079 726 1079 l 319 1079 m 78 0 q 54 21 54 0 q 58 39 54 29 l 425 908 q 443 937 433 929 q 471 944 453 944 l 547 944 q 576 937 567 944 q 593 908 585 929 l 960 39 q 964 21 964 29 q 940 0 964 0 l 819 0 q 794 5 801 0 q 779 25 786 10 l 700 219 l 317 219 l 239 25 q 224 5 232 10 q 199 0 217 0 l 78 0 m 656 349 l 508 713 l 361 349 l 656 349 z "},"Ą":{"ha":1018,"x_min":54,"x_max":964,"o":"m 960 39 q 964 21 964 29 q 940 0 964 0 l 910 0 q 907 -15 915 -7 q 842 -104 858 -74 q 825 -165 825 -135 q 858 -203 825 -203 q 889 -197 878 -203 q 899 -194 897 -194 q 908 -204 904 -194 l 929 -250 q 932 -258 932 -256 q 915 -274 932 -267 q 813 -290 882 -290 q 722 -260 753 -290 q 692 -182 692 -229 q 712 -103 692 -143 q 776 -11 732 -62 q 794 4 790 3 q 779 25 785 10 l 700 219 l 317 219 l 239 25 q 224 5 232 10 q 199 0 217 0 l 78 0 q 54 21 54 0 q 58 39 54 29 l 425 908 q 443 937 433 929 q 471 944 453 944 l 547 944 q 576 937 567 944 q 593 908 585 929 l 960 39 m 656 349 l 508 713 l 361 349 l 656 349 z "},"Å":{"ha":1018,"x_min":54,"x_max":964,"o":"m 960 39 q 964 21 964 29 q 940 0 964 0 l 819 0 q 794 5 801 0 q 779 25 786 10 l 700 219 l 317 219 l 239 25 q 224 5 232 10 q 199 0 217 0 l 78 0 q 54 21 54 0 q 58 39 54 29 l 424 907 q 367 965 389 928 q 346 1046 346 1001 q 393 1161 346 1114 q 508 1208 440 1208 q 624 1161 576 1208 q 671 1046 671 1114 q 650 966 671 1003 q 593 907 629 929 l 960 39 m 508 1119 q 456 1098 478 1119 q 433 1046 433 1076 q 456 993 433 1015 q 508 971 478 971 q 560 993 539 971 q 582 1046 582 1015 q 560 1098 582 1076 q 508 1119 539 1119 m 656 349 l 508 713 l 361 349 l 656 349 z "},"Ǻ":{"ha":1018,"x_min":54,"x_max":964,"o":"m 457 1244 q 428 1267 428 1244 q 431 1283 428 1278 l 496 1465 q 513 1492 504 1485 q 547 1499 522 1499 l 650 1499 q 685 1475 685 1499 q 679 1454 685 1465 l 588 1275 q 567 1251 578 1257 q 529 1244 556 1244 l 457 1244 m 960 39 q 964 21 964 29 q 940 0 964 0 l 819 0 q 794 5 801 0 q 779 25 786 10 l 700 219 l 317 219 l 239 25 q 224 5 232 10 q 199 0 217 0 l 78 0 q 54 21 54 0 q 58 39 54 29 l 424 907 q 367 965 389 928 q 346 1046 346 1001 q 393 1161 346 1114 q 508 1208 440 1208 q 624 1161 576 1208 q 671 1046 671 1114 q 650 966 671 1003 q 593 907 629 929 l 960 39 m 508 1119 q 456 1098 478 1119 q 433 1046 433 1076 q 456 993 433 1015 q 508 971 478 971 q 560 993 539 971 q 582 1046 582 1015 q 560 1098 582 1076 q 508 1119 539 1119 m 656 349 l 508 713 l 361 349 l 656 349 z "},"Ã":{"ha":1018,"x_min":54,"x_max":964,"o":"m 647 1031 q 584 1041 615 1031 q 511 1071 553 1051 q 449 1097 471 1089 q 404 1104 426 1104 q 361 1094 376 1104 q 322 1060 346 1085 q 297 1046 313 1046 q 249 1072 279 1046 q 224 1111 224 1096 q 239 1146 224 1126 q 307 1211 272 1189 q 389 1233 342 1233 q 461 1223 429 1233 q 536 1193 493 1213 q 591 1169 568 1178 q 638 1161 614 1161 q 683 1172 665 1161 q 724 1213 701 1183 q 751 1228 735 1228 q 799 1206 771 1228 q 829 1163 829 1181 q 815 1129 829 1147 q 743 1053 781 1076 q 647 1031 706 1031 m 78 0 q 54 21 54 0 q 58 39 54 29 l 425 908 q 443 937 433 929 q 471 944 453 944 l 547 944 q 576 937 567 944 q 593 908 585 929 l 960 39 q 964 21 964 29 q 940 0 964 0 l 819 0 q 794 5 801 0 q 779 25 786 10 l 700 219 l 317 219 l 239 25 q 224 5 232 10 q 199 0 217 0 l 78 0 m 656 349 l 508 713 l 361 349 l 656 349 z "},"Æ":{"ha":1231,"x_min":56,"x_max":1190,"o":"m 78 0 q 56 22 56 0 q 58 39 56 33 l 425 908 q 445 936 433 928 q 476 944 457 944 l 1140 944 q 1179 933 1168 944 q 1190 896 1190 922 l 1190 858 q 1179 820 1190 832 q 1140 808 1168 808 l 739 808 l 739 539 l 1018 539 q 1057 528 1046 539 q 1068 490 1068 517 l 1068 456 q 1057 417 1068 429 q 1018 406 1046 406 l 739 406 l 739 135 l 1140 135 q 1179 123 1168 135 q 1190 85 1190 111 l 1190 47 q 1179 11 1190 22 q 1140 0 1168 0 l 624 0 q 571 51 571 0 l 571 221 l 317 221 l 239 25 q 224 5 233 10 q 194 0 215 0 l 78 0 m 571 349 l 571 808 l 539 808 l 357 349 l 571 349 z "},"Ǽ":{"ha":1231,"x_min":56,"x_max":1190,"o":"m 633 1013 q 604 1035 604 1013 q 607 1051 604 1046 l 672 1233 q 690 1260 681 1253 q 724 1267 699 1267 l 826 1267 q 861 1243 861 1267 q 856 1222 861 1233 l 764 1043 q 743 1019 754 1025 q 706 1013 732 1013 l 633 1013 m 78 0 q 56 22 56 0 q 58 39 56 33 l 425 908 q 445 936 433 928 q 476 944 457 944 l 1140 944 q 1179 933 1168 944 q 1190 896 1190 922 l 1190 858 q 1179 820 1190 832 q 1140 808 1168 808 l 739 808 l 739 539 l 1018 539 q 1057 528 1046 539 q 1068 490 1068 517 l 1068 456 q 1057 417 1068 429 q 1018 406 1046 406 l 739 406 l 739 135 l 1140 135 q 1179 123 1168 135 q 1190 85 1190 111 l 1190 47 q 1179 11 1190 22 q 1140 0 1168 0 l 624 0 q 571 51 571 0 l 571 221 l 317 221 l 239 25 q 224 5 233 10 q 194 0 215 0 l 78 0 m 571 349 l 571 808 l 539 808 l 357 349 l 571 349 z "},"B":{"ha":910,"x_min":82,"x_max":856,"o":"m 133 0 q 94 13 106 0 q 82 50 82 25 l 82 893 q 94 932 82 919 q 133 944 106 944 l 535 944 q 753 875 679 944 q 828 688 828 806 q 794 568 828 621 q 701 490 761 515 q 856 274 856 442 q 820 134 856 196 q 714 36 785 72 q 539 0 643 0 l 133 0 m 510 550 q 615 585 578 550 q 651 682 651 619 q 617 780 651 750 q 508 810 583 810 l 260 810 l 260 550 l 510 550 m 531 135 q 643 174 607 135 q 679 276 679 214 q 635 385 679 349 q 514 422 592 422 l 260 422 l 260 135 l 531 135 z "},"C":{"ha":940,"x_min":54,"x_max":888,"o":"m 549 -21 q 183 107 313 -21 q 54 472 54 235 q 181 838 54 710 q 544 965 308 965 q 719 946 639 965 q 856 890 800 926 q 868 872 868 882 q 861 853 868 864 l 822 786 q 807 774 814 774 q 788 781 801 774 q 564 833 700 833 q 318 743 407 833 q 229 472 229 653 q 321 199 229 289 q 568 110 413 110 q 806 164 713 110 q 824 171 819 171 q 840 158 832 171 l 883 86 q 888 72 888 78 q 872 54 888 64 q 549 -21 765 -21 z "},"Ć":{"ha":940,"x_min":54,"x_max":888,"o":"m 472 1046 q 443 1068 443 1046 q 446 1085 443 1079 l 511 1267 q 528 1293 519 1286 q 563 1300 538 1300 l 665 1300 q 700 1276 700 1300 q 694 1256 700 1267 l 603 1076 q 582 1052 593 1058 q 544 1046 571 1046 l 472 1046 m 549 -21 q 183 107 313 -21 q 54 472 54 235 q 181 838 54 710 q 544 965 308 965 q 719 946 639 965 q 856 890 800 926 q 868 872 868 882 q 861 853 868 864 l 822 786 q 807 774 814 774 q 788 781 801 774 q 564 833 700 833 q 318 743 407 833 q 229 472 229 653 q 321 199 229 289 q 568 110 413 110 q 806 164 713 110 q 824 171 819 171 q 840 158 832 171 l 883 86 q 888 72 888 78 q 872 54 888 64 q 549 -21 765 -21 z "},"Č":{"ha":940,"x_min":54,"x_max":888,"o":"m 514 1047 q 484 1053 492 1047 q 461 1076 476 1058 l 317 1272 q 306 1299 306 1288 q 331 1317 306 1317 l 404 1317 q 438 1312 428 1317 q 458 1290 447 1307 l 554 1150 l 649 1290 q 668 1312 658 1307 q 703 1317 678 1317 l 775 1317 q 801 1299 801 1317 q 790 1272 801 1285 l 646 1076 q 624 1053 633 1058 q 593 1047 615 1047 l 514 1047 m 549 -21 q 183 107 313 -21 q 54 472 54 235 q 181 838 54 710 q 544 965 308 965 q 719 946 639 965 q 856 890 800 926 q 868 872 868 882 q 861 853 868 864 l 822 786 q 807 774 814 774 q 788 781 801 774 q 564 833 700 833 q 318 743 407 833 q 229 472 229 653 q 321 199 229 289 q 568 110 413 110 q 806 164 713 110 q 824 171 819 171 q 840 158 832 171 l 883 86 q 888 72 888 78 q 872 54 888 64 q 549 -21 765 -21 z "},"Ç":{"ha":940,"x_min":54,"x_max":888,"o":"m 883 86 q 888 72 888 78 q 872 54 888 64 q 614 -19 783 -8 q 611 -28 614 -22 l 579 -97 q 679 -200 679 -106 q 639 -284 679 -253 q 524 -315 599 -315 q 460 -308 492 -315 q 410 -292 428 -301 q 394 -281 397 -285 q 396 -267 392 -276 l 415 -218 q 426 -208 419 -208 q 440 -212 432 -208 q 504 -228 468 -228 q 546 -218 533 -228 q 558 -187 558 -208 q 539 -151 558 -160 q 475 -142 519 -142 l 454 -142 q 440 -135 443 -142 q 440 -119 436 -129 l 478 -25 q 479 -22 479 -24 q 481 -18 479 -19 q 165 126 276 0 q 54 472 54 253 q 181 838 54 710 q 544 965 308 965 q 719 946 639 965 q 856 890 800 926 q 868 872 868 882 q 861 853 868 864 l 822 786 q 807 774 814 774 q 788 781 801 774 q 564 833 700 833 q 318 743 407 833 q 229 472 229 653 q 321 199 229 289 q 568 110 413 110 q 806 164 713 110 q 824 171 819 171 q 840 158 832 171 l 883 86 z "},"Ĉ":{"ha":940,"x_min":54,"x_max":888,"o":"m 315 1025 q 292 1031 301 1025 q 283 1046 283 1036 q 293 1069 283 1058 l 438 1265 q 460 1290 453 1285 q 490 1296 468 1296 l 569 1296 q 600 1290 592 1296 q 622 1265 608 1283 l 767 1069 q 776 1046 776 1058 q 768 1031 776 1036 q 746 1025 760 1025 l 681 1025 q 647 1031 657 1025 q 624 1054 636 1038 l 531 1193 l 436 1054 q 415 1031 426 1038 q 381 1025 404 1025 l 315 1025 m 549 -21 q 183 107 313 -21 q 54 472 54 235 q 181 838 54 710 q 544 965 308 965 q 719 946 639 965 q 856 890 800 926 q 868 872 868 882 q 861 853 868 864 l 822 786 q 807 774 814 774 q 788 781 801 774 q 564 833 700 833 q 318 743 407 833 q 229 472 229 653 q 321 199 229 289 q 568 110 413 110 q 806 164 713 110 q 824 171 819 171 q 840 158 832 171 l 883 86 q 888 72 888 78 q 872 54 888 64 q 549 -21 765 -21 z "},"Ċ":{"ha":940,"x_min":54,"x_max":888,"o":"m 517 1071 q 470 1091 489 1071 q 451 1140 451 1111 l 451 1167 q 470 1215 451 1194 q 517 1235 489 1235 l 546 1235 q 592 1215 574 1235 q 611 1167 611 1194 l 611 1140 q 593 1091 611 1111 q 546 1071 575 1071 l 517 1071 m 549 -21 q 183 107 313 -21 q 54 472 54 235 q 181 838 54 710 q 544 965 308 965 q 719 946 639 965 q 856 890 800 926 q 868 872 868 882 q 861 853 868 864 l 822 786 q 807 774 814 774 q 788 781 801 774 q 564 833 700 833 q 318 743 407 833 q 229 472 229 653 q 321 199 229 289 q 568 110 413 110 q 806 164 713 110 q 824 171 819 171 q 840 158 832 171 l 883 86 q 888 72 888 78 q 872 54 888 64 q 549 -21 765 -21 z "},"D":{"ha":949,"x_min":82,"x_max":894,"o":"m 133 0 q 94 13 106 0 q 82 50 82 25 l 82 893 q 94 932 82 919 q 133 944 106 944 l 411 944 q 770 832 646 944 q 894 472 894 719 q 411 0 894 0 l 133 0 m 422 135 q 644 211 569 135 q 718 472 718 288 q 644 733 718 657 q 422 808 569 808 l 260 808 l 260 135 l 422 135 z "},"Ð":{"ha":1011,"x_min":26,"x_max":957,"o":"m 197 0 q 157 13 169 0 q 144 50 144 25 l 144 406 l 71 406 q 35 415 44 406 q 26 451 26 425 l 26 492 q 35 530 26 519 q 71 540 44 540 l 144 540 l 144 893 q 157 932 144 919 q 197 944 169 944 l 475 944 q 833 832 708 944 q 957 472 957 719 q 475 0 957 0 l 197 0 m 485 135 q 706 211 632 135 q 781 472 781 288 q 706 733 781 657 q 485 808 632 808 l 322 808 l 322 540 l 528 540 q 563 530 554 540 q 572 492 572 519 l 572 451 q 563 415 572 425 q 528 406 554 406 l 322 406 l 322 135 l 485 135 z "},"Ď":{"ha":949,"x_min":82,"x_max":894,"o":"m 381 1047 q 351 1053 358 1047 q 328 1076 343 1058 l 183 1272 q 172 1299 172 1288 q 197 1317 172 1317 l 271 1317 q 304 1312 294 1317 q 325 1290 314 1307 l 421 1150 l 515 1290 q 535 1312 525 1307 q 569 1317 544 1317 l 642 1317 q 668 1299 668 1317 q 657 1272 668 1285 l 513 1076 q 491 1053 500 1058 q 460 1047 482 1047 l 381 1047 m 133 0 q 94 13 106 0 q 82 50 82 25 l 82 893 q 94 932 82 919 q 133 944 106 944 l 411 944 q 770 832 646 944 q 894 472 894 719 q 411 0 894 0 l 133 0 m 422 135 q 644 211 569 135 q 718 472 718 288 q 644 733 718 657 q 422 808 569 808 l 260 808 l 260 135 l 422 135 z "},"Đ":{"ha":1011,"x_min":26,"x_max":957,"o":"m 197 0 q 157 13 169 0 q 144 50 144 25 l 144 406 l 75 406 q 37 417 47 406 q 26 453 26 428 l 26 490 q 37 528 26 517 q 75 540 47 540 l 144 540 l 144 893 q 157 932 144 919 q 197 944 169 944 l 475 944 q 833 832 708 944 q 957 472 957 719 q 475 0 957 0 l 197 0 m 485 135 q 706 211 632 135 q 781 472 781 288 q 706 733 781 657 q 485 808 632 808 l 322 808 l 322 540 l 522 540 q 561 528 550 540 q 572 490 572 517 l 572 453 q 561 417 572 428 q 522 406 550 406 l 322 406 l 322 135 l 485 135 z "},"Ḍ":{"ha":949,"x_min":82,"x_max":894,"o":"m 133 0 q 94 13 106 0 q 82 50 82 25 l 82 893 q 94 932 82 919 q 133 944 106 944 l 411 944 q 770 832 646 944 q 894 472 894 719 q 411 0 894 0 l 133 0 m 422 135 q 644 211 569 135 q 718 472 718 288 q 644 733 718 657 q 422 808 569 808 l 260 808 l 260 135 l 422 135 m 394 -256 q 348 -235 367 -256 q 329 -186 329 -215 l 329 -160 q 348 -112 329 -132 q 394 -92 367 -92 l 422 -92 q 469 -111 451 -92 q 488 -160 488 -131 l 488 -186 q 469 -235 488 -215 q 422 -256 451 -256 l 394 -256 z "},"Ḏ":{"ha":949,"x_min":82,"x_max":894,"o":"m 133 0 q 94 13 106 0 q 82 50 82 25 l 82 893 q 94 932 82 919 q 133 944 106 944 l 411 944 q 770 832 646 944 q 894 472 894 719 q 411 0 894 0 l 133 0 m 422 135 q 644 211 569 135 q 718 472 718 288 q 644 733 718 657 q 422 808 569 808 l 260 808 l 260 135 l 422 135 m 211 -224 q 172 -212 183 -224 q 161 -175 161 -201 l 161 -149 q 172 -110 161 -122 q 211 -99 183 -99 l 572 -99 q 611 -110 600 -99 q 622 -149 622 -122 l 622 -175 q 611 -212 622 -201 q 572 -224 600 -224 l 211 -224 z "},"E":{"ha":800,"x_min":82,"x_max":760,"o":"m 133 0 q 94 13 106 0 q 82 50 82 25 l 82 893 q 94 932 82 919 q 133 944 106 944 l 711 944 q 749 933 739 944 q 760 896 760 922 l 760 858 q 749 820 760 832 q 711 808 739 808 l 260 808 l 260 539 l 588 539 q 626 528 615 539 q 638 490 638 517 l 638 456 q 626 417 638 429 q 588 406 615 406 l 260 406 l 260 135 l 710 135 q 749 123 738 135 q 760 85 760 111 l 760 47 q 749 11 760 22 q 710 0 738 0 l 133 0 z "},"É":{"ha":800,"x_min":82,"x_max":760,"o":"m 354 1046 q 325 1068 325 1046 q 328 1085 325 1079 l 393 1267 q 410 1293 401 1286 q 444 1300 419 1300 l 547 1300 q 582 1276 582 1300 q 576 1256 582 1267 l 485 1076 q 464 1052 475 1058 q 426 1046 453 1046 l 354 1046 m 133 0 q 94 13 106 0 q 82 50 82 25 l 82 893 q 94 932 82 919 q 133 944 106 944 l 711 944 q 749 933 739 944 q 760 896 760 922 l 760 858 q 749 820 760 832 q 711 808 739 808 l 260 808 l 260 539 l 588 539 q 626 528 615 539 q 638 490 638 517 l 638 456 q 626 417 638 429 q 588 406 615 406 l 260 406 l 260 135 l 710 135 q 749 123 738 135 q 760 85 760 111 l 760 47 q 749 11 760 22 q 710 0 738 0 l 133 0 z "},"Ĕ":{"ha":800,"x_min":82,"x_max":760,"o":"m 428 1050 q 256 1112 314 1050 q 199 1276 199 1174 q 205 1294 199 1288 q 221 1301 211 1301 l 313 1301 q 331 1295 326 1301 q 336 1275 336 1289 q 356 1198 336 1225 q 428 1171 376 1171 q 499 1198 478 1171 q 519 1275 519 1225 q 524 1295 519 1289 q 543 1301 529 1301 l 635 1301 q 651 1294 644 1301 q 657 1276 657 1288 q 598 1113 657 1175 q 428 1050 539 1050 m 133 0 q 94 13 106 0 q 82 50 82 25 l 82 893 q 94 932 82 919 q 133 944 106 944 l 711 944 q 749 933 739 944 q 760 896 760 922 l 760 858 q 749 820 760 832 q 711 808 739 808 l 260 808 l 260 539 l 588 539 q 626 528 615 539 q 638 490 638 517 l 638 456 q 626 417 638 429 q 588 406 615 406 l 260 406 l 260 135 l 710 135 q 749 123 738 135 q 760 85 760 111 l 760 47 q 749 11 760 22 q 710 0 738 0 l 133 0 z "},"Ě":{"ha":800,"x_min":82,"x_max":760,"o":"m 388 1047 q 358 1053 365 1047 q 335 1076 350 1058 l 190 1272 q 179 1299 179 1288 q 204 1317 179 1317 l 278 1317 q 311 1312 301 1317 q 332 1290 321 1307 l 428 1150 l 522 1290 q 542 1312 532 1307 q 576 1317 551 1317 l 649 1317 q 675 1299 675 1317 q 664 1272 675 1285 l 519 1076 q 498 1053 507 1058 q 467 1047 489 1047 l 388 1047 m 133 0 q 94 13 106 0 q 82 50 82 25 l 82 893 q 94 932 82 919 q 133 944 106 944 l 711 944 q 749 933 739 944 q 760 896 760 922 l 760 858 q 749 820 760 832 q 711 808 739 808 l 260 808 l 260 539 l 588 539 q 626 528 615 539 q 638 490 638 517 l 638 456 q 626 417 638 429 q 588 406 615 406 l 260 406 l 260 135 l 710 135 q 749 123 738 135 q 760 85 760 111 l 760 47 q 749 11 760 22 q 710 0 738 0 l 133 0 z "},"Ê":{"ha":800,"x_min":82,"x_max":760,"o":"m 201 1042 q 178 1047 188 1042 q 169 1063 169 1053 q 179 1086 169 1075 l 324 1282 q 347 1307 339 1301 q 376 1313 354 1313 l 456 1313 q 486 1306 478 1313 q 508 1282 494 1300 l 653 1086 q 663 1063 663 1075 q 654 1047 663 1053 q 632 1042 646 1042 l 567 1042 q 533 1048 543 1042 q 510 1071 522 1054 l 417 1210 l 322 1071 q 301 1048 313 1054 q 267 1042 290 1042 l 201 1042 m 133 0 q 94 13 106 0 q 82 50 82 25 l 82 893 q 94 932 82 919 q 133 944 106 944 l 711 944 q 749 933 739 944 q 760 896 760 922 l 760 858 q 749 820 760 832 q 711 808 739 808 l 260 808 l 260 539 l 588 539 q 626 528 615 539 q 638 490 638 517 l 638 456 q 626 417 638 429 q 588 406 615 406 l 260 406 l 260 135 l 710 135 q 749 123 738 135 q 760 85 760 111 l 760 47 q 749 11 760 22 q 710 0 738 0 l 133 0 z "},"Ế":{"ha":800,"x_min":82,"x_max":760,"o":"m 583 1204 q 557 1225 557 1204 q 560 1239 557 1231 l 608 1374 q 624 1400 615 1393 q 656 1407 632 1407 l 725 1407 q 754 1386 754 1407 q 747 1364 754 1375 l 679 1235 q 658 1210 668 1215 q 625 1204 649 1204 l 583 1204 m 206 1024 q 183 1029 192 1024 q 175 1044 175 1035 q 186 1068 175 1054 l 326 1239 q 351 1263 342 1257 q 382 1269 360 1269 l 444 1269 q 477 1263 467 1269 q 500 1239 488 1257 l 640 1068 q 651 1044 651 1054 q 643 1029 651 1035 q 621 1024 635 1024 l 558 1024 q 526 1028 536 1024 q 504 1049 517 1033 l 414 1164 l 322 1049 q 302 1028 313 1033 q 268 1024 292 1024 l 206 1024 m 133 0 q 94 13 106 0 q 82 50 82 25 l 82 893 q 94 932 82 919 q 133 944 106 944 l 711 944 q 749 933 739 944 q 760 896 760 922 l 760 858 q 749 820 760 832 q 711 808 739 808 l 260 808 l 260 539 l 588 539 q 626 528 615 539 q 638 490 638 517 l 638 456 q 626 417 638 429 q 588 406 615 406 l 260 406 l 260 135 l 710 135 q 749 123 738 135 q 760 85 760 111 l 760 47 q 749 11 760 22 q 710 0 738 0 l 133 0 z "},"Ệ":{"ha":800,"x_min":82,"x_max":760,"o":"m 196 1025 q 173 1031 182 1025 q 164 1046 164 1036 q 174 1069 164 1058 l 318 1265 q 341 1290 333 1285 q 371 1296 349 1296 l 450 1296 q 481 1290 472 1296 q 503 1265 489 1283 l 647 1069 q 657 1046 657 1058 q 649 1031 657 1036 q 626 1025 640 1025 l 561 1025 q 527 1031 538 1025 q 504 1054 517 1038 l 411 1193 l 317 1054 q 296 1031 307 1038 q 261 1025 285 1025 l 196 1025 m 133 0 q 94 13 106 0 q 82 50 82 25 l 82 893 q 94 932 82 919 q 133 944 106 944 l 711 944 q 749 933 739 944 q 760 896 760 922 l 760 858 q 749 820 760 832 q 711 808 739 808 l 260 808 l 260 539 l 588 539 q 626 528 615 539 q 638 490 638 517 l 638 456 q 626 417 638 429 q 588 406 615 406 l 260 406 l 260 135 l 710 135 q 749 123 738 135 q 760 85 760 111 l 760 47 q 749 11 760 22 q 710 0 738 0 l 133 0 m 401 -256 q 355 -235 374 -256 q 336 -186 336 -215 l 336 -160 q 355 -112 336 -132 q 401 -92 374 -92 l 429 -92 q 476 -111 458 -92 q 494 -160 494 -131 l 494 -186 q 476 -235 494 -215 q 429 -256 458 -256 l 401 -256 z "},"Ề":{"ha":800,"x_min":82,"x_max":760,"o":"m 217 1201 q 183 1207 193 1201 q 163 1232 174 1213 l 94 1361 q 88 1383 88 1375 q 117 1404 88 1404 l 186 1404 q 218 1397 210 1404 q 233 1371 226 1390 l 282 1236 q 285 1222 285 1228 q 258 1201 285 1201 l 217 1201 m 221 1021 q 199 1026 207 1021 q 190 1042 190 1032 q 201 1065 190 1051 l 342 1236 q 366 1260 357 1254 q 397 1267 375 1267 l 460 1267 q 491 1260 482 1267 q 515 1236 500 1254 l 656 1065 q 667 1042 667 1051 q 658 1026 667 1032 q 636 1021 650 1021 l 574 1021 q 542 1026 551 1021 q 519 1046 532 1031 l 428 1161 l 338 1046 q 315 1026 325 1031 q 283 1021 306 1021 l 221 1021 m 133 0 q 94 13 106 0 q 82 50 82 25 l 82 893 q 94 932 82 919 q 133 944 106 944 l 711 944 q 749 933 739 944 q 760 896 760 922 l 760 858 q 749 820 760 832 q 711 808 739 808 l 260 808 l 260 539 l 588 539 q 626 528 615 539 q 638 490 638 517 l 638 456 q 626 417 638 429 q 588 406 615 406 l 260 406 l 260 135 l 710 135 q 749 123 738 135 q 760 85 760 111 l 760 47 q 749 11 760 22 q 710 0 738 0 l 133 0 z "},"Ể":{"ha":810,"x_min":82,"x_max":769,"o":"m 594 1188 q 565 1215 565 1188 l 565 1254 q 608 1293 565 1293 q 651 1301 639 1293 q 664 1329 664 1310 q 617 1361 664 1361 q 543 1342 578 1361 q 532 1344 535 1338 l 507 1394 q 511 1408 504 1403 q 566 1430 532 1422 q 635 1438 600 1438 q 735 1410 701 1438 q 769 1333 769 1383 q 741 1260 769 1286 q 669 1235 713 1235 l 669 1215 q 642 1188 669 1188 l 594 1188 m 185 1028 q 168 1042 168 1028 q 174 1054 168 1049 l 329 1238 q 353 1261 344 1256 q 385 1267 363 1267 l 447 1267 q 479 1261 469 1267 q 503 1238 489 1256 l 658 1054 q 664 1042 664 1049 q 647 1028 664 1028 l 549 1028 q 531 1030 536 1028 q 519 1039 525 1032 l 415 1167 l 313 1039 q 301 1030 307 1032 q 283 1028 296 1028 l 185 1028 m 133 0 q 94 13 106 0 q 82 50 82 25 l 82 893 q 94 932 82 919 q 133 944 106 944 l 711 944 q 749 933 739 944 q 760 896 760 922 l 760 858 q 749 820 760 832 q 711 808 739 808 l 260 808 l 260 539 l 588 539 q 626 528 615 539 q 638 490 638 517 l 638 456 q 626 417 638 429 q 588 406 615 406 l 260 406 l 260 135 l 710 135 q 749 123 738 135 q 760 85 760 111 l 760 47 q 749 11 760 22 q 710 0 738 0 l 133 0 z "},"Ễ":{"ha":800,"x_min":82,"x_max":760,"o":"m 539 1285 q 490 1292 511 1285 q 438 1317 468 1300 q 394 1337 411 1331 q 358 1343 378 1343 q 321 1334 335 1343 q 289 1304 307 1325 q 265 1290 279 1290 q 225 1311 250 1290 q 210 1326 217 1318 q 204 1342 204 1335 q 215 1368 204 1353 q 274 1426 242 1406 q 347 1446 306 1446 q 405 1437 381 1446 q 458 1411 429 1428 q 501 1392 486 1397 q 533 1386 515 1386 q 572 1394 557 1386 q 603 1425 586 1403 q 628 1440 614 1440 q 667 1422 643 1440 q 689 1390 689 1404 q 676 1361 689 1378 q 615 1303 647 1321 q 539 1285 583 1285 m 207 1028 q 190 1042 190 1028 q 196 1054 190 1049 l 351 1238 q 376 1261 367 1256 q 407 1267 385 1267 l 469 1267 q 501 1261 492 1267 q 525 1238 511 1256 l 681 1054 q 686 1042 686 1049 q 669 1028 686 1028 l 571 1028 q 553 1030 558 1028 q 542 1039 547 1032 l 438 1167 l 335 1039 q 324 1030 329 1032 q 306 1028 318 1028 l 207 1028 m 133 0 q 94 13 106 0 q 82 50 82 25 l 82 893 q 94 932 82 919 q 133 944 106 944 l 711 944 q 749 933 739 944 q 760 896 760 922 l 760 858 q 749 820 760 832 q 711 808 739 808 l 260 808 l 260 539 l 588 539 q 626 528 615 539 q 638 490 638 517 l 638 456 q 626 417 638 429 q 588 406 615 406 l 260 406 l 260 135 l 710 135 q 749 123 738 135 q 760 85 760 111 l 760 47 q 749 11 760 22 q 710 0 738 0 l 133 0 z "},"Ë":{"ha":800,"x_min":82,"x_max":760,"o":"m 265 1029 q 218 1049 236 1029 q 200 1099 200 1069 l 200 1125 q 218 1174 200 1154 q 265 1193 236 1193 l 293 1193 q 340 1174 322 1193 q 358 1125 358 1154 l 358 1099 q 340 1049 358 1069 q 293 1029 322 1029 l 265 1029 m 539 1029 q 492 1049 511 1029 q 474 1099 474 1069 l 474 1125 q 492 1173 474 1153 q 539 1193 511 1193 l 567 1193 q 614 1174 596 1193 q 632 1125 632 1154 l 632 1099 q 614 1049 632 1069 q 567 1029 596 1029 l 539 1029 m 133 0 q 94 13 106 0 q 82 50 82 25 l 82 893 q 94 932 82 919 q 133 944 106 944 l 711 944 q 749 933 739 944 q 760 896 760 922 l 760 858 q 749 820 760 832 q 711 808 739 808 l 260 808 l 260 539 l 588 539 q 626 528 615 539 q 638 490 638 517 l 638 456 q 626 417 638 429 q 588 406 615 406 l 260 406 l 260 135 l 710 135 q 749 123 738 135 q 760 85 760 111 l 760 47 q 749 11 760 22 q 710 0 738 0 l 133 0 z "},"Ė":{"ha":800,"x_min":82,"x_max":760,"o":"m 407 1071 q 360 1091 379 1071 q 342 1140 342 1111 l 342 1167 q 360 1215 342 1194 q 407 1235 379 1235 l 436 1235 q 483 1215 464 1235 q 501 1167 501 1194 l 501 1140 q 483 1091 501 1111 q 436 1071 465 1071 l 407 1071 m 133 0 q 94 13 106 0 q 82 50 82 25 l 82 893 q 94 932 82 919 q 133 944 106 944 l 711 944 q 749 933 739 944 q 760 896 760 922 l 760 858 q 749 820 760 832 q 711 808 739 808 l 260 808 l 260 539 l 588 539 q 626 528 615 539 q 638 490 638 517 l 638 456 q 626 417 638 429 q 588 406 615 406 l 260 406 l 260 135 l 710 135 q 749 123 738 135 q 760 85 760 111 l 760 47 q 749 11 760 22 q 710 0 738 0 l 133 0 z "},"Ẹ":{"ha":800,"x_min":82,"x_max":760,"o":"m 133 0 q 94 13 106 0 q 82 50 82 25 l 82 893 q 94 932 82 919 q 133 944 106 944 l 711 944 q 749 933 739 944 q 760 896 760 922 l 760 858 q 749 820 760 832 q 711 808 739 808 l 260 808 l 260 539 l 588 539 q 626 528 615 539 q 638 490 638 517 l 638 456 q 626 417 638 429 q 588 406 615 406 l 260 406 l 260 135 l 710 135 q 749 123 738 135 q 760 85 760 111 l 760 47 q 749 11 760 22 q 710 0 738 0 l 133 0 m 368 -256 q 322 -235 340 -256 q 303 -186 303 -215 l 303 -160 q 322 -112 303 -132 q 368 -92 340 -92 l 396 -92 q 443 -111 425 -92 q 461 -160 461 -131 l 461 -186 q 443 -235 461 -215 q 396 -256 425 -256 l 368 -256 z "},"È":{"ha":800,"x_min":82,"x_max":760,"o":"m 414 1046 q 378 1052 389 1046 q 357 1076 367 1058 l 265 1256 q 260 1276 260 1267 q 294 1300 260 1300 l 396 1300 q 431 1293 422 1300 q 447 1267 440 1286 l 514 1085 q 517 1068 517 1079 q 486 1046 517 1046 l 414 1046 m 133 0 q 94 13 106 0 q 82 50 82 25 l 82 893 q 94 932 82 919 q 133 944 106 944 l 711 944 q 749 933 739 944 q 760 896 760 922 l 760 858 q 749 820 760 832 q 711 808 739 808 l 260 808 l 260 539 l 588 539 q 626 528 615 539 q 638 490 638 517 l 638 456 q 626 417 638 429 q 588 406 615 406 l 260 406 l 260 135 l 710 135 q 749 123 738 135 q 760 85 760 111 l 760 47 q 749 11 760 22 q 710 0 738 0 l 133 0 z "},"Ẻ":{"ha":800,"x_min":82,"x_max":760,"o":"m 363 1015 q 331 1047 331 1015 l 331 1110 q 342 1142 331 1132 q 379 1153 353 1153 q 445 1165 428 1153 q 463 1206 463 1176 q 446 1240 463 1229 q 390 1251 429 1251 q 286 1225 339 1251 q 272 1228 276 1221 l 243 1292 q 242 1299 242 1294 q 249 1308 242 1303 q 319 1337 276 1326 q 406 1347 363 1347 q 543 1312 497 1347 q 589 1211 589 1276 q 549 1114 589 1150 q 453 1078 508 1078 l 453 1047 q 421 1015 453 1015 l 363 1015 m 133 0 q 94 13 106 0 q 82 50 82 25 l 82 893 q 94 932 82 919 q 133 944 106 944 l 711 944 q 749 933 739 944 q 760 896 760 922 l 760 858 q 749 820 760 832 q 711 808 739 808 l 260 808 l 260 539 l 588 539 q 626 528 615 539 q 638 490 638 517 l 638 456 q 626 417 638 429 q 588 406 615 406 l 260 406 l 260 135 l 710 135 q 749 123 738 135 q 760 85 760 111 l 760 47 q 749 11 760 22 q 710 0 738 0 l 133 0 z "},"Ē":{"ha":800,"x_min":82,"x_max":760,"o":"m 221 1079 q 182 1090 193 1079 q 171 1128 171 1101 l 171 1164 q 182 1202 171 1190 q 221 1214 193 1214 l 600 1214 q 639 1202 628 1214 q 650 1164 650 1190 l 650 1128 q 639 1090 650 1101 q 600 1079 628 1079 l 221 1079 m 133 0 q 94 13 106 0 q 82 50 82 25 l 82 893 q 94 932 82 919 q 133 944 106 944 l 711 944 q 749 933 739 944 q 760 896 760 922 l 760 858 q 749 820 760 832 q 711 808 739 808 l 260 808 l 260 539 l 588 539 q 626 528 615 539 q 638 490 638 517 l 638 456 q 626 417 638 429 q 588 406 615 406 l 260 406 l 260 135 l 710 135 q 749 123 738 135 q 760 85 760 111 l 760 47 q 749 11 760 22 q 710 0 738 0 l 133 0 z "},"Ę":{"ha":800,"x_min":82,"x_max":760,"o":"m 260 808 l 260 539 l 588 539 q 626 528 615 539 q 638 490 638 517 l 638 456 q 626 417 638 429 q 588 406 615 406 l 260 406 l 260 135 l 710 135 q 749 123 738 135 q 760 85 760 111 l 760 47 q 750 12 760 22 q 715 0 740 1 l 715 -3 q 711 -14 715 -8 q 646 -103 663 -72 q 629 -164 629 -133 q 663 -201 629 -201 q 693 -196 682 -201 q 703 -193 701 -193 q 713 -203 708 -193 l 733 -249 q 736 -257 736 -254 q 719 -272 736 -265 q 617 -289 686 -289 q 526 -258 557 -289 q 496 -181 496 -228 q 516 -101 496 -142 q 581 -10 536 -61 q 590 0 581 -10 l 133 0 q 94 13 106 0 q 82 50 82 25 l 82 893 q 94 932 82 919 q 133 944 106 944 l 711 944 q 749 933 739 944 q 760 896 760 922 l 760 858 q 749 820 760 832 q 711 808 739 808 l 260 808 z "},"Ẽ":{"ha":800,"x_min":82,"x_max":760,"o":"m 576 1047 q 513 1058 544 1047 q 440 1088 482 1068 q 378 1113 400 1106 q 333 1121 356 1121 q 290 1111 306 1121 q 251 1076 275 1101 q 226 1063 242 1063 q 178 1089 208 1063 q 153 1128 153 1113 q 168 1163 153 1143 q 236 1228 201 1206 q 318 1250 271 1250 q 390 1240 358 1250 q 465 1210 422 1229 q 520 1186 497 1194 q 567 1178 543 1178 q 613 1189 594 1178 q 653 1229 631 1200 q 681 1244 664 1244 q 728 1222 700 1244 q 758 1179 758 1197 q 744 1146 758 1164 q 672 1070 710 1093 q 576 1047 635 1047 m 133 0 q 94 13 106 0 q 82 50 82 25 l 82 893 q 94 932 82 919 q 133 944 106 944 l 711 944 q 749 933 739 944 q 760 896 760 922 l 760 858 q 749 820 760 832 q 711 808 739 808 l 260 808 l 260 539 l 588 539 q 626 528 615 539 q 638 490 638 517 l 638 456 q 626 417 638 429 q 588 406 615 406 l 260 406 l 260 135 l 710 135 q 749 123 738 135 q 760 85 760 111 l 760 47 q 749 11 760 22 q 710 0 738 0 l 133 0 z "},"F":{"ha":786,"x_min":82,"x_max":760,"o":"m 133 0 q 94 13 106 0 q 82 50 82 25 l 82 893 q 94 932 82 919 q 133 944 106 944 l 711 944 q 749 933 739 944 q 760 896 760 922 l 760 858 q 749 820 760 832 q 711 808 739 808 l 260 808 l 260 540 l 588 540 q 626 529 615 540 q 638 492 638 518 l 638 454 q 626 416 638 428 q 588 404 615 404 l 260 404 l 260 50 q 248 13 260 25 q 207 0 236 0 l 133 0 z "},"G":{"ha":972,"x_min":54,"x_max":918,"o":"m 549 -21 q 183 107 313 -21 q 54 472 54 235 q 184 837 54 708 q 549 965 314 965 q 725 946 643 965 q 861 890 807 926 q 874 872 874 882 q 868 856 874 865 l 828 786 q 811 774 819 774 q 793 781 807 774 q 568 833 699 833 q 319 744 410 833 q 229 472 229 654 q 317 200 229 289 q 557 111 404 111 q 665 120 613 111 q 751 146 718 129 l 751 403 l 568 403 q 529 415 540 403 q 518 453 518 426 l 518 489 q 529 526 518 515 q 568 536 540 536 l 861 536 q 905 522 892 536 q 918 476 918 507 l 918 110 q 914 78 918 89 q 896 60 910 68 q 549 -21 768 -21 z "},"Ğ":{"ha":972,"x_min":54,"x_max":918,"o":"m 542 1017 q 370 1078 428 1017 q 313 1243 313 1140 q 319 1261 313 1254 q 335 1268 325 1268 l 426 1268 q 445 1262 440 1268 q 450 1242 450 1256 q 470 1165 450 1192 q 542 1138 490 1138 q 613 1165 592 1138 q 633 1242 633 1192 q 638 1262 633 1256 q 657 1268 643 1268 l 749 1268 q 765 1261 758 1268 q 771 1243 771 1254 q 712 1079 771 1142 q 542 1017 653 1017 m 549 -21 q 183 107 313 -21 q 54 472 54 235 q 184 837 54 708 q 549 965 314 965 q 725 946 643 965 q 861 890 807 926 q 874 872 874 882 q 868 856 874 865 l 828 786 q 811 774 819 774 q 793 781 807 774 q 568 833 699 833 q 319 744 410 833 q 229 472 229 654 q 317 200 229 289 q 557 111 404 111 q 665 120 613 111 q 751 146 718 129 l 751 403 l 568 403 q 529 415 540 403 q 518 453 518 426 l 518 489 q 529 526 518 515 q 568 536 540 536 l 861 536 q 905 522 892 536 q 918 476 918 507 l 918 110 q 914 78 918 89 q 896 60 910 68 q 549 -21 768 -21 z "},"Ǧ":{"ha":972,"x_min":54,"x_max":918,"o":"m 511 1031 q 481 1036 489 1031 q 458 1060 474 1042 l 314 1256 q 303 1282 303 1271 q 328 1300 303 1300 l 401 1300 q 435 1295 425 1300 q 456 1274 444 1290 l 551 1133 l 646 1274 q 665 1295 656 1290 q 700 1300 675 1300 l 772 1300 q 799 1282 799 1300 q 788 1256 799 1268 l 643 1060 q 622 1036 631 1042 q 590 1031 613 1031 l 511 1031 m 549 -21 q 183 107 313 -21 q 54 472 54 235 q 184 837 54 708 q 549 965 314 965 q 725 946 643 965 q 861 890 807 926 q 874 872 874 882 q 868 856 874 865 l 828 786 q 811 774 819 774 q 793 781 807 774 q 568 833 699 833 q 319 744 410 833 q 229 472 229 654 q 317 200 229 289 q 557 111 404 111 q 665 120 613 111 q 751 146 718 129 l 751 403 l 568 403 q 529 415 540 403 q 518 453 518 426 l 518 489 q 529 526 518 515 q 568 536 540 536 l 861 536 q 905 522 892 536 q 918 476 918 507 l 918 110 q 914 78 918 89 q 896 60 910 68 q 549 -21 768 -21 z "},"Ĝ":{"ha":972,"x_min":54,"x_max":918,"o":"m 331 1008 q 308 1014 317 1008 q 299 1029 299 1019 q 308 1053 299 1042 l 453 1249 q 476 1274 468 1268 q 506 1279 483 1279 l 585 1279 q 615 1273 607 1279 q 638 1249 624 1267 l 782 1053 q 792 1029 792 1042 q 783 1014 792 1019 q 761 1008 775 1008 l 696 1008 q 662 1015 672 1008 q 639 1038 651 1021 l 546 1176 l 451 1038 q 431 1015 442 1021 q 396 1008 419 1008 l 331 1008 m 549 -21 q 183 107 313 -21 q 54 472 54 235 q 184 837 54 708 q 549 965 314 965 q 725 946 643 965 q 861 890 807 926 q 874 872 874 882 q 868 856 874 865 l 828 786 q 811 774 819 774 q 793 781 807 774 q 568 833 699 833 q 319 744 410 833 q 229 472 229 654 q 317 200 229 289 q 557 111 404 111 q 665 120 613 111 q 751 146 718 129 l 751 403 l 568 403 q 529 415 540 403 q 518 453 518 426 l 518 489 q 529 526 518 515 q 568 536 540 536 l 861 536 q 905 522 892 536 q 918 476 918 507 l 918 110 q 914 78 918 89 q 896 60 910 68 q 549 -21 768 -21 z "},"Ģ":{"ha":972,"x_min":54,"x_max":918,"o":"m 549 -21 q 183 107 313 -21 q 54 472 54 235 q 184 837 54 708 q 549 965 314 965 q 725 946 643 965 q 861 890 807 926 q 874 872 874 882 q 868 856 874 865 l 828 786 q 811 774 819 774 q 793 781 807 774 q 568 833 699 833 q 319 744 410 833 q 229 472 229 654 q 317 200 229 289 q 557 111 404 111 q 665 120 613 111 q 751 146 718 129 l 751 403 l 568 403 q 529 415 540 403 q 518 453 518 426 l 518 489 q 529 526 518 515 q 568 536 540 536 l 861 536 q 905 522 892 536 q 918 476 918 507 l 918 110 q 914 78 918 89 q 896 60 910 68 q 549 -21 768 -21 m 456 -331 q 431 -311 431 -331 q 433 -296 431 -307 l 497 -86 q 513 -57 503 -64 q 547 -50 524 -50 l 619 -50 q 654 -71 654 -50 q 647 -96 654 -78 l 557 -307 q 517 -331 549 -331 l 456 -331 z "},"Ġ":{"ha":972,"x_min":54,"x_max":918,"o":"m 525 1038 q 478 1058 497 1038 q 460 1107 460 1078 l 460 1133 q 478 1181 460 1161 q 525 1201 497 1201 l 554 1201 q 601 1181 582 1201 q 619 1133 619 1161 l 619 1107 q 601 1058 619 1078 q 554 1038 583 1038 l 525 1038 m 549 -21 q 183 107 313 -21 q 54 472 54 235 q 184 837 54 708 q 549 965 314 965 q 725 946 643 965 q 861 890 807 926 q 874 872 874 882 q 868 856 874 865 l 828 786 q 811 774 819 774 q 793 781 807 774 q 568 833 699 833 q 319 744 410 833 q 229 472 229 654 q 317 200 229 289 q 557 111 404 111 q 665 120 613 111 q 751 146 718 129 l 751 403 l 568 403 q 529 415 540 403 q 518 453 518 426 l 518 489 q 529 526 518 515 q 568 536 540 536 l 861 536 q 905 522 892 536 q 918 476 918 507 l 918 110 q 914 78 918 89 q 896 60 910 68 q 549 -21 768 -21 z "},"Ḡ":{"ha":972,"x_min":54,"x_max":918,"o":"m 336 1063 q 297 1074 308 1063 q 286 1111 286 1085 l 286 1147 q 297 1185 286 1174 q 336 1197 308 1197 l 715 1197 q 754 1185 743 1197 q 765 1147 765 1174 l 765 1111 q 754 1074 765 1085 q 715 1063 743 1063 l 336 1063 m 549 -21 q 183 107 313 -21 q 54 472 54 235 q 184 837 54 708 q 549 965 314 965 q 725 946 643 965 q 861 890 807 926 q 874 872 874 882 q 868 856 874 865 l 828 786 q 811 774 819 774 q 793 781 807 774 q 568 833 699 833 q 319 744 410 833 q 229 472 229 654 q 317 200 229 289 q 557 111 404 111 q 665 120 613 111 q 751 146 718 129 l 751 403 l 568 403 q 529 415 540 403 q 518 453 518 426 l 518 489 q 529 526 518 515 q 568 536 540 536 l 861 536 q 905 522 892 536 q 918 476 918 507 l 918 110 q 914 78 918 89 q 896 60 910 68 q 549 -21 768 -21 z "},"H":{"ha":975,"x_min":82,"x_max":893,"o":"m 133 0 q 94 13 106 0 q 82 50 82 25 l 82 893 q 94 932 82 919 q 133 944 106 944 l 207 944 q 247 932 235 944 q 260 893 260 919 l 260 543 l 715 543 l 715 893 q 728 932 715 919 q 768 944 740 944 l 840 944 q 881 932 868 944 q 893 893 893 919 l 893 50 q 881 13 893 25 q 840 0 869 0 l 768 0 q 728 13 740 0 q 715 50 715 25 l 715 408 l 260 408 l 260 50 q 248 13 260 25 q 207 0 236 0 l 133 0 z "},"Ħ":{"ha":992,"x_min":39,"x_max":979,"o":"m 939 803 q 970 794 961 803 q 979 764 979 786 l 979 724 q 971 694 979 701 q 939 686 963 686 l 921 686 l 921 50 q 909 13 921 25 q 868 0 897 0 l 796 0 q 756 13 768 0 q 743 50 743 25 l 743 408 l 288 408 l 288 50 q 276 13 288 25 q 235 0 264 0 l 161 0 q 122 13 133 0 q 110 50 110 25 l 110 686 l 79 686 q 48 694 57 686 q 39 724 39 701 l 39 764 q 48 794 39 786 q 79 803 57 803 l 110 803 l 110 893 q 122 932 110 919 q 161 944 133 944 l 235 944 q 275 932 263 944 q 288 893 288 919 l 288 803 l 743 803 l 743 893 q 756 932 743 919 q 796 944 768 944 l 868 944 q 908 932 896 944 q 921 893 921 919 l 921 803 l 939 803 m 743 686 l 288 686 l 288 543 l 743 543 l 743 686 z "},"Ḫ":{"ha":975,"x_min":82,"x_max":893,"o":"m 133 0 q 94 13 106 0 q 82 50 82 25 l 82 893 q 94 932 82 919 q 133 944 106 944 l 207 944 q 247 932 235 944 q 260 893 260 919 l 260 543 l 715 543 l 715 893 q 728 932 715 919 q 768 944 740 944 l 840 944 q 881 932 868 944 q 893 893 893 919 l 893 50 q 881 13 893 25 q 840 0 869 0 l 768 0 q 728 13 740 0 q 715 50 715 25 l 715 408 l 260 408 l 260 50 q 248 13 260 25 q 207 0 236 0 l 133 0 m 489 -303 q 318 -241 376 -303 q 260 -76 260 -179 q 266 -58 260 -65 q 282 -51 272 -51 l 374 -51 q 392 -58 388 -51 q 397 -78 397 -64 q 418 -155 397 -128 q 489 -182 439 -182 q 560 -155 540 -182 q 581 -78 581 -128 q 585 -58 581 -64 q 604 -51 590 -51 l 696 -51 q 712 -58 706 -51 q 718 -76 718 -65 q 660 -241 718 -179 q 489 -303 601 -303 z "},"Ĥ":{"ha":975,"x_min":82,"x_max":893,"o":"m 272 1042 q 249 1047 258 1042 q 240 1063 240 1053 q 250 1086 240 1075 l 394 1282 q 417 1307 410 1301 q 447 1313 425 1313 l 526 1313 q 557 1306 549 1313 q 579 1282 565 1300 l 724 1086 q 733 1063 733 1075 q 725 1047 733 1053 q 703 1042 717 1042 l 638 1042 q 603 1048 614 1042 q 581 1071 593 1054 l 488 1210 l 393 1071 q 372 1048 383 1054 q 338 1042 361 1042 l 272 1042 m 133 0 q 94 13 106 0 q 82 50 82 25 l 82 893 q 94 932 82 919 q 133 944 106 944 l 207 944 q 247 932 235 944 q 260 893 260 919 l 260 543 l 715 543 l 715 893 q 728 932 715 919 q 768 944 740 944 l 840 944 q 881 932 868 944 q 893 893 893 919 l 893 50 q 881 13 893 25 q 840 0 869 0 l 768 0 q 728 13 740 0 q 715 50 715 25 l 715 408 l 260 408 l 260 50 q 248 13 260 25 q 207 0 236 0 l 133 0 z "},"Ḥ":{"ha":975,"x_min":82,"x_max":893,"o":"m 133 0 q 94 13 106 0 q 82 50 82 25 l 82 893 q 94 932 82 919 q 133 944 106 944 l 207 944 q 247 932 235 944 q 260 893 260 919 l 260 543 l 715 543 l 715 893 q 728 932 715 919 q 768 944 740 944 l 840 944 q 881 932 868 944 q 893 893 893 919 l 893 50 q 881 13 893 25 q 840 0 869 0 l 768 0 q 728 13 740 0 q 715 50 715 25 l 715 408 l 260 408 l 260 50 q 248 13 260 25 q 207 0 236 0 l 133 0 m 476 -256 q 430 -235 449 -256 q 411 -186 411 -215 l 411 -160 q 430 -112 411 -132 q 476 -92 449 -92 l 504 -92 q 551 -111 533 -92 q 569 -160 569 -131 l 569 -186 q 551 -235 569 -215 q 504 -256 533 -256 l 476 -256 z "},"I":{"ha":342,"x_min":82,"x_max":260,"o":"m 133 0 q 94 13 106 0 q 82 50 82 25 l 82 893 q 94 932 82 919 q 133 944 106 944 l 207 944 q 247 932 235 944 q 260 893 260 919 l 260 50 q 248 13 260 25 q 207 0 236 0 l 133 0 z "},"Ĳ":{"ha":949,"x_min":82,"x_max":865,"o":"m 133 0 q 94 13 106 0 q 82 50 82 25 l 82 893 q 94 932 82 919 q 133 944 106 944 l 207 944 q 247 932 235 944 q 260 893 260 919 l 260 50 q 248 13 260 25 q 207 0 236 0 l 133 0 m 565 -21 q 303 47 413 -21 q 290 65 290 54 q 297 85 290 74 l 338 153 q 354 167 346 167 q 372 158 361 167 q 450 123 404 136 q 547 110 496 110 q 653 148 619 110 q 688 264 688 186 l 688 893 q 700 932 688 919 q 740 944 713 944 l 813 944 q 853 932 840 944 q 865 893 865 919 l 865 264 q 790 56 865 133 q 565 -21 715 -21 z "},"Í":{"ha":363,"x_min":93,"x_max":360,"o":"m 132 1046 q 103 1068 103 1046 q 106 1085 103 1079 l 171 1267 q 188 1293 179 1286 q 222 1300 197 1300 l 325 1300 q 360 1276 360 1300 q 354 1256 360 1267 l 263 1076 q 242 1052 253 1058 q 204 1046 231 1046 l 132 1046 m 144 0 q 105 13 117 0 q 93 50 93 25 l 93 893 q 105 932 93 919 q 144 944 117 944 l 218 944 q 258 932 246 944 q 271 893 271 919 l 271 50 q 259 13 271 25 q 218 0 247 0 l 144 0 z "},"Ĭ":{"ha":376,"x_min":-42,"x_max":417,"o":"m 188 1046 q 16 1108 74 1046 q -42 1272 -42 1169 q -35 1290 -42 1283 q -19 1297 -29 1297 l 72 1297 q 91 1291 86 1297 q 96 1271 96 1285 q 116 1194 96 1221 q 188 1167 136 1167 q 258 1194 238 1167 q 279 1271 279 1221 q 284 1291 279 1285 q 303 1297 289 1297 l 394 1297 q 410 1290 404 1297 q 417 1272 417 1283 q 358 1108 417 1171 q 188 1046 299 1046 m 150 0 q 110 13 122 0 q 99 50 99 25 l 99 893 q 110 932 99 919 q 150 944 122 944 l 224 944 q 264 932 251 944 q 276 893 276 919 l 276 50 q 265 13 276 25 q 224 0 253 0 l 150 0 z "},"Ǐ":{"ha":408,"x_min":-44,"x_max":451,"o":"m 164 1031 q 134 1036 142 1031 q 111 1060 126 1042 l -33 1256 q -44 1282 -44 1271 q -19 1300 -44 1300 l 54 1300 q 88 1295 78 1300 q 108 1274 97 1290 l 204 1133 l 299 1274 q 318 1295 308 1290 q 353 1300 328 1300 l 425 1300 q 451 1282 451 1300 q 440 1256 451 1268 l 296 1060 q 274 1036 283 1042 q 243 1031 265 1031 l 164 1031 m 167 0 q 127 13 139 0 q 115 50 115 25 l 115 893 q 127 932 115 919 q 167 944 139 944 l 240 944 q 281 932 268 944 q 293 893 293 919 l 293 50 q 281 13 293 25 q 240 0 269 0 l 167 0 z "},"Î":{"ha":333,"x_min":-81,"x_max":413,"o":"m -49 1051 q -72 1057 -62 1051 q -81 1072 -81 1063 q -71 1096 -81 1085 l 74 1292 q 97 1317 89 1311 q 126 1322 104 1322 l 206 1322 q 236 1316 228 1322 q 258 1292 244 1310 l 403 1096 q 413 1072 413 1085 q 404 1057 413 1063 q 382 1051 396 1051 l 317 1051 q 283 1058 293 1051 q 260 1081 272 1064 l 167 1219 l 72 1081 q 51 1058 63 1064 q 17 1051 40 1051 l -49 1051 m 129 0 q 90 13 101 0 q 78 50 78 25 l 78 893 q 90 932 78 919 q 129 944 101 944 l 203 944 q 243 932 231 944 q 256 893 256 919 l 256 50 q 244 13 256 25 q 203 0 232 0 l 129 0 z "},"Ï":{"ha":376,"x_min":-28,"x_max":404,"o":"m 38 992 q -10 1012 8 992 q -28 1061 -28 1032 l -28 1088 q -10 1136 -28 1117 q 38 1156 8 1156 l 65 1156 q 113 1136 94 1156 q 131 1088 131 1117 l 131 1061 q 113 1012 131 1032 q 65 992 94 992 l 38 992 m 311 992 q 265 1012 283 992 q 246 1061 246 1032 l 246 1088 q 265 1135 246 1115 q 311 1156 283 1156 l 339 1156 q 386 1136 368 1156 q 404 1088 404 1117 l 404 1061 q 386 1012 404 1032 q 339 992 368 992 l 311 992 m 149 0 q 109 13 121 0 q 97 50 97 25 l 97 893 q 109 932 97 919 q 149 944 121 944 l 222 944 q 263 932 250 944 q 275 893 275 919 l 275 50 q 263 13 275 25 q 222 0 251 0 l 149 0 z "},"İ":{"ha":328,"x_min":74,"x_max":251,"o":"m 151 1038 q 105 1058 124 1038 q 86 1107 86 1078 l 86 1133 q 105 1181 86 1161 q 151 1201 124 1201 l 181 1201 q 227 1181 208 1201 q 246 1133 246 1161 l 246 1107 q 228 1058 246 1078 q 181 1038 210 1038 l 151 1038 m 125 0 q 85 13 97 0 q 74 50 74 25 l 74 893 q 85 932 74 919 q 125 944 97 944 l 199 944 q 239 932 226 944 q 251 893 251 919 l 251 50 q 240 13 251 25 q 199 0 228 0 l 125 0 z "},"Ị":{"ha":342,"x_min":82,"x_max":260,"o":"m 133 0 q 94 13 106 0 q 82 50 82 25 l 82 893 q 94 932 82 919 q 133 944 106 944 l 207 944 q 247 932 235 944 q 260 893 260 919 l 260 50 q 248 13 260 25 q 207 0 236 0 l 133 0 m 160 -256 q 113 -235 132 -256 q 94 -186 94 -215 l 94 -160 q 113 -112 94 -132 q 160 -92 132 -92 l 188 -92 q 235 -111 217 -92 q 253 -160 253 -131 l 253 -186 q 235 -235 253 -215 q 188 -256 217 -256 l 160 -256 z "},"Ì":{"ha":333,"x_min":-15,"x_max":256,"o":"m 139 1046 q 103 1052 114 1046 q 82 1076 92 1058 l -10 1256 q -15 1276 -15 1267 q 19 1300 -15 1300 l 121 1300 q 156 1293 147 1300 q 172 1267 165 1286 l 239 1085 q 242 1068 242 1079 q 211 1046 242 1046 l 139 1046 m 129 0 q 90 13 101 0 q 78 50 78 25 l 78 893 q 90 932 78 919 q 129 944 101 944 l 203 944 q 243 932 231 944 q 256 893 256 919 l 256 50 q 244 13 256 25 q 203 0 232 0 l 129 0 z "},"Ỉ":{"ha":328,"x_min":3,"x_max":350,"o":"m 124 1015 q 92 1047 92 1015 l 92 1110 q 103 1142 92 1132 q 140 1153 114 1153 q 206 1165 189 1153 q 224 1206 224 1176 q 207 1240 224 1229 q 151 1251 190 1251 q 47 1225 100 1251 q 33 1228 38 1221 l 4 1292 q 3 1299 3 1294 q 10 1308 3 1303 q 81 1337 38 1326 q 167 1347 124 1347 q 304 1312 258 1347 q 350 1211 350 1276 q 310 1114 350 1150 q 214 1078 269 1078 l 214 1047 q 182 1015 214 1015 l 124 1015 m 128 0 q 88 13 100 0 q 76 50 76 25 l 76 893 q 88 932 76 919 q 128 944 100 944 l 201 944 q 242 932 229 944 q 254 893 254 919 l 254 50 q 242 13 254 25 q 201 0 231 0 l 128 0 z "},"Ī":{"ha":333,"x_min":-72,"x_max":406,"o":"m -24 1051 q -62 1063 -51 1051 q -72 1100 -72 1074 l -72 1138 q -62 1176 -72 1164 q -24 1188 -51 1188 l 356 1188 q 394 1176 383 1188 q 406 1138 406 1164 l 406 1100 q 394 1063 406 1074 q 356 1051 383 1051 l -24 1051 m 131 0 q 90 13 103 0 q 78 50 78 25 l 78 893 q 90 932 78 919 q 131 944 103 944 l 203 944 q 243 932 231 944 q 256 893 256 919 l 256 50 q 244 13 256 25 q 203 0 232 0 l 131 0 z "},"Į":{"ha":343,"x_min":14,"x_max":267,"o":"m 214 944 q 254 932 242 944 q 267 893 267 919 l 267 50 q 233 1 267 10 q 229 -6 233 -1 q 164 -94 181 -64 q 147 -156 147 -125 q 181 -193 147 -193 q 211 -187 200 -193 q 221 -185 219 -185 q 231 -194 226 -185 l 251 -240 q 254 -249 254 -246 q 238 -264 254 -257 q 135 -281 204 -281 q 44 -250 75 -281 q 14 -172 14 -219 q 34 -93 14 -133 q 99 -1 54 -53 q 107 7 107 7 q 89 50 89 19 l 89 893 q 101 932 89 919 q 140 944 113 944 l 214 944 z "},"Ĩ":{"ha":335,"x_min":-122,"x_max":483,"o":"m 301 1031 q 238 1041 269 1031 q 165 1071 207 1051 q 103 1097 125 1089 q 58 1104 81 1104 q 15 1094 31 1104 q -24 1060 0 1085 q -49 1046 -33 1046 q -97 1072 -67 1046 q -122 1111 -122 1096 q -107 1146 -122 1126 q -39 1211 -74 1189 q 43 1233 -4 1233 q 115 1223 83 1233 q 190 1193 147 1213 q 245 1169 222 1178 q 292 1161 268 1161 q 338 1172 319 1161 q 378 1213 356 1183 q 406 1228 389 1228 q 453 1206 425 1228 q 483 1163 483 1181 q 469 1129 483 1147 q 397 1053 435 1076 q 301 1031 360 1031 m 128 0 q 88 13 100 0 q 76 50 76 25 l 76 893 q 88 932 76 919 q 128 944 100 944 l 201 944 q 242 932 229 944 q 254 893 254 919 l 254 50 q 242 13 254 25 q 201 0 231 0 l 128 0 z "},"J":{"ha":676,"x_min":26,"x_max":601,"o":"m 301 -21 q 39 47 149 -21 q 26 65 26 54 q 33 85 26 74 l 74 153 q 90 167 82 167 q 108 158 99 167 q 186 123 140 136 q 283 110 232 110 q 390 148 356 110 q 424 264 424 186 l 424 893 q 436 932 424 919 q 476 944 449 944 l 549 944 q 589 932 576 944 q 601 893 601 919 l 601 264 q 526 56 601 133 q 301 -21 451 -21 z "},"Ĵ":{"ha":776,"x_min":26,"x_max":763,"o":"m 301 1042 q 278 1047 288 1042 q 269 1063 269 1053 q 279 1086 269 1075 l 424 1282 q 447 1307 439 1301 q 476 1313 454 1313 l 556 1313 q 586 1306 578 1313 q 608 1282 594 1300 l 753 1086 q 763 1063 763 1075 q 754 1047 763 1053 q 732 1042 746 1042 l 667 1042 q 633 1048 643 1042 q 610 1071 622 1054 l 517 1210 l 422 1071 q 401 1048 413 1054 q 367 1042 390 1042 l 301 1042 m 301 -21 q 39 47 149 -21 q 26 65 26 54 q 33 85 26 74 l 74 153 q 90 167 82 167 q 108 158 99 167 q 186 123 140 136 q 283 110 232 110 q 390 148 356 110 q 424 264 424 186 l 424 893 q 436 932 424 919 q 476 944 449 944 l 549 944 q 589 932 576 944 q 601 893 601 919 l 601 264 q 526 56 601 133 q 301 -21 451 -21 z "},"K":{"ha":881,"x_min":82,"x_max":829,"o":"m 133 0 q 94 13 106 0 q 82 50 82 25 l 82 893 q 94 932 82 919 q 133 944 106 944 l 207 944 q 247 932 235 944 q 260 893 260 919 l 260 50 q 248 13 260 25 q 207 0 236 0 l 133 0 m 676 0 q 653 3 661 0 q 638 15 646 6 l 303 418 q 285 444 290 433 q 279 474 279 456 q 284 501 279 492 q 303 529 289 511 l 629 928 q 646 942 638 939 q 672 944 654 944 l 800 944 q 815 939 810 944 q 821 925 821 933 q 813 906 821 914 l 453 474 l 821 39 q 829 19 829 31 q 824 6 829 11 q 808 0 818 0 l 676 0 z "},"Ķ":{"ha":881,"x_min":82,"x_max":829,"o":"m 133 0 q 94 13 106 0 q 82 50 82 25 l 82 893 q 94 932 82 919 q 133 944 106 944 l 207 944 q 247 932 235 944 q 260 893 260 919 l 260 50 q 248 13 260 25 q 207 0 236 0 l 133 0 m 676 0 q 653 3 661 0 q 638 15 646 6 l 303 418 q 285 444 290 433 q 279 474 279 456 q 284 501 279 492 q 303 529 289 511 l 629 928 q 646 942 638 939 q 672 944 654 944 l 800 944 q 815 939 810 944 q 821 925 821 933 q 813 906 821 914 l 453 474 l 821 39 q 829 19 829 31 q 824 6 829 11 q 808 0 818 0 l 676 0 m 293 -331 q 268 -311 268 -331 q 271 -296 268 -307 l 335 -86 q 351 -57 340 -64 q 385 -50 361 -50 l 457 -50 q 492 -71 492 -50 q 485 -96 492 -78 l 394 -307 q 354 -331 386 -331 l 293 -331 z "},"L":{"ha":761,"x_min":82,"x_max":735,"o":"m 133 0 q 94 13 106 0 q 82 50 82 25 l 82 893 q 94 932 82 919 q 133 944 106 944 l 207 944 q 247 932 235 944 q 260 893 260 919 l 260 135 l 685 135 q 724 123 713 135 q 735 85 735 111 l 735 47 q 724 11 735 22 q 685 0 713 0 l 133 0 z "},"Ĺ":{"ha":761,"x_min":82,"x_max":735,"o":"m 142 1013 q 113 1035 113 1013 q 115 1051 113 1046 l 181 1233 q 198 1260 189 1253 q 232 1267 207 1267 l 335 1267 q 369 1243 369 1267 q 364 1222 369 1233 l 272 1043 q 251 1019 263 1025 q 214 1013 240 1013 l 142 1013 m 133 0 q 94 13 106 0 q 82 50 82 25 l 82 893 q 94 932 82 919 q 133 944 106 944 l 207 944 q 247 932 235 944 q 260 893 260 919 l 260 135 l 685 135 q 724 123 713 135 q 735 85 735 111 l 735 47 q 724 11 735 22 q 685 0 713 0 l 133 0 z "},"Ľ":{"ha":783,"x_min":82,"x_max":735,"o":"m 482 729 q 457 749 457 729 q 460 764 457 753 l 524 974 q 540 1003 529 996 q 574 1010 550 1010 l 646 1010 q 681 989 681 1010 q 674 964 681 982 l 583 753 q 543 729 575 729 l 482 729 m 133 0 q 94 13 106 0 q 82 50 82 25 l 82 893 q 94 932 82 919 q 133 944 106 944 l 207 944 q 247 932 235 944 q 260 893 260 919 l 260 135 l 685 135 q 724 123 713 135 q 735 85 735 111 l 735 47 q 724 11 735 22 q 685 0 713 0 l 133 0 z "},"Ļ":{"ha":761,"x_min":82,"x_max":735,"o":"m 133 0 q 94 13 106 0 q 82 50 82 25 l 82 893 q 94 932 82 919 q 133 944 106 944 l 207 944 q 247 932 235 944 q 260 893 260 919 l 260 135 l 685 135 q 724 123 713 135 q 735 85 735 111 l 735 47 q 724 11 735 22 q 685 0 713 0 l 133 0 m 294 -331 q 269 -311 269 -331 q 272 -296 269 -307 l 336 -86 q 352 -57 342 -64 q 386 -50 363 -50 l 458 -50 q 493 -71 493 -50 q 486 -96 493 -78 l 396 -307 q 356 -331 388 -331 l 294 -331 z "},"Ŀ":{"ha":761,"x_min":82,"x_max":735,"o":"m 133 0 q 94 13 106 0 q 82 50 82 25 l 82 893 q 94 932 82 919 q 133 944 106 944 l 207 944 q 247 932 235 944 q 260 893 260 919 l 260 135 l 685 135 q 724 123 713 135 q 735 85 735 111 l 735 47 q 724 11 735 22 q 685 0 713 0 l 133 0 m 486 388 q 439 408 457 388 q 421 457 421 428 l 421 483 q 439 532 421 513 q 486 551 457 551 l 514 551 q 560 531 542 551 q 579 483 579 511 l 579 457 q 561 408 579 428 q 514 388 543 388 l 486 388 z "},"Ḷ":{"ha":761,"x_min":82,"x_max":735,"o":"m 133 0 q 94 13 106 0 q 82 50 82 25 l 82 893 q 94 932 82 919 q 133 944 106 944 l 207 944 q 247 932 235 944 q 260 893 260 919 l 260 135 l 685 135 q 724 123 713 135 q 735 85 735 111 l 735 47 q 724 11 735 22 q 685 0 713 0 l 133 0 m 403 -256 q 356 -235 375 -256 q 338 -186 338 -215 l 338 -160 q 356 -112 338 -132 q 403 -92 375 -92 l 431 -92 q 478 -111 460 -92 q 496 -160 496 -131 l 496 -186 q 478 -235 496 -215 q 431 -256 460 -256 l 403 -256 z "},"Ḹ":{"ha":772,"x_min":-58,"x_max":746,"o":"m -8 1063 q -47 1074 -36 1063 q -58 1111 -58 1085 l -58 1147 q -47 1185 -58 1174 q -8 1197 -36 1197 l 371 1197 q 410 1185 399 1197 q 421 1147 421 1174 l 421 1111 q 410 1074 421 1085 q 371 1063 399 1063 l -8 1063 m 144 0 q 105 13 117 0 q 93 50 93 25 l 93 893 q 105 932 93 919 q 144 944 117 944 l 218 944 q 258 932 246 944 q 271 893 271 919 l 271 135 l 696 135 q 735 123 724 135 q 746 85 746 111 l 746 47 q 735 11 746 22 q 696 0 724 0 l 144 0 m 415 -256 q 369 -235 388 -256 q 350 -186 350 -215 l 350 -160 q 369 -112 350 -132 q 415 -92 388 -92 l 443 -92 q 490 -111 472 -92 q 508 -160 508 -131 l 508 -186 q 490 -235 508 -215 q 443 -256 472 -256 l 415 -256 z "},"Ḻ":{"ha":761,"x_min":82,"x_max":735,"o":"m 133 0 q 94 13 106 0 q 82 50 82 25 l 82 893 q 94 932 82 919 q 133 944 106 944 l 207 944 q 247 932 235 944 q 260 893 260 919 l 260 135 l 685 135 q 724 123 713 135 q 735 85 735 111 l 735 47 q 724 11 735 22 q 685 0 713 0 l 133 0 m 207 -224 q 168 -212 179 -224 q 157 -175 157 -201 l 157 -149 q 168 -110 157 -122 q 207 -99 179 -99 l 568 -99 q 607 -110 596 -99 q 618 -149 618 -122 l 618 -175 q 607 -212 618 -201 q 568 -224 596 -224 l 207 -224 z "},"Ł":{"ha":872,"x_min":13,"x_max":846,"o":"m 796 135 q 835 123 824 135 q 846 85 846 111 l 846 47 q 835 11 846 22 q 796 0 824 0 l 246 0 q 206 13 218 0 q 193 50 193 25 l 193 342 l 96 286 q 75 279 82 279 q 54 294 64 279 l 19 354 q 13 374 13 365 q 31 396 13 388 l 193 489 l 193 893 q 206 932 193 919 q 246 944 218 944 l 318 944 q 358 932 346 944 q 371 893 371 919 l 371 590 l 479 651 q 497 658 490 658 q 521 640 508 658 l 557 581 q 563 565 563 574 q 543 542 563 553 l 371 443 l 371 135 l 796 135 z "},"M":{"ha":1086,"x_min":82,"x_max":1004,"o":"m 133 0 q 94 13 106 0 q 82 50 82 25 l 82 893 q 94 932 82 919 q 135 944 106 944 l 210 944 q 244 939 232 944 q 263 917 256 933 l 543 271 l 824 917 q 842 939 831 933 q 876 944 854 944 l 951 944 q 992 932 981 944 q 1004 893 1004 919 l 1004 50 q 992 13 1004 25 q 953 0 981 0 l 892 0 q 851 13 864 0 q 839 50 839 25 l 839 649 l 601 119 q 579 88 590 97 q 543 78 568 78 q 506 88 518 78 q 485 119 494 97 l 247 649 l 247 50 q 235 13 247 25 q 194 0 224 0 l 133 0 z "},"Ṃ":{"ha":1086,"x_min":82,"x_max":1004,"o":"m 133 0 q 94 13 106 0 q 82 50 82 25 l 82 893 q 94 932 82 919 q 135 944 106 944 l 210 944 q 244 939 232 944 q 263 917 256 933 l 543 271 l 824 917 q 842 939 831 933 q 876 944 854 944 l 951 944 q 992 932 981 944 q 1004 893 1004 919 l 1004 50 q 992 13 1004 25 q 953 0 981 0 l 892 0 q 851 13 864 0 q 839 50 839 25 l 839 649 l 601 119 q 579 88 590 97 q 543 78 568 78 q 506 88 518 78 q 485 119 494 97 l 247 649 l 247 50 q 235 13 247 25 q 194 0 224 0 l 133 0 m 533 -256 q 487 -235 506 -256 q 468 -186 468 -215 l 468 -160 q 487 -112 468 -132 q 533 -92 506 -92 l 561 -92 q 608 -111 590 -92 q 626 -160 626 -131 l 626 -186 q 608 -235 626 -215 q 561 -256 590 -256 l 533 -256 z "},"N":{"ha":969,"x_min":82,"x_max":888,"o":"m 133 0 q 94 13 106 0 q 82 50 82 25 l 82 893 q 94 932 82 919 q 135 944 106 944 l 199 944 q 229 939 218 944 q 251 917 240 933 l 710 281 l 710 893 q 722 932 710 919 q 761 944 733 944 l 835 944 q 875 932 863 944 q 888 893 888 919 l 888 50 q 876 13 888 25 q 835 0 864 0 l 769 0 q 740 5 750 0 q 718 26 731 10 l 260 661 l 260 50 q 248 13 260 25 q 207 0 236 0 l 133 0 z "},"Ń":{"ha":969,"x_min":82,"x_max":888,"o":"m 432 1029 q 403 1051 403 1029 q 406 1068 403 1063 l 471 1250 q 488 1276 479 1269 q 522 1283 497 1283 l 625 1283 q 660 1260 660 1283 q 654 1239 660 1250 l 563 1060 q 542 1035 553 1042 q 504 1029 531 1029 l 432 1029 m 133 0 q 94 13 106 0 q 82 50 82 25 l 82 893 q 94 932 82 919 q 135 944 106 944 l 199 944 q 229 939 218 944 q 251 917 240 933 l 710 281 l 710 893 q 722 932 710 919 q 761 944 733 944 l 835 944 q 875 932 863 944 q 888 893 888 919 l 888 50 q 876 13 888 25 q 835 0 864 0 l 769 0 q 740 5 750 0 q 718 26 731 10 l 260 661 l 260 50 q 248 13 260 25 q 207 0 236 0 l 133 0 z "},"Ň":{"ha":969,"x_min":82,"x_max":888,"o":"m 444 1031 q 415 1036 422 1031 q 392 1060 407 1042 l 247 1256 q 236 1282 236 1271 q 261 1300 236 1300 l 335 1300 q 368 1295 358 1300 q 389 1274 378 1290 l 485 1133 l 579 1274 q 599 1295 589 1290 q 633 1300 608 1300 l 706 1300 q 732 1282 732 1300 q 721 1256 732 1268 l 576 1060 q 555 1036 564 1042 q 524 1031 546 1031 l 444 1031 m 133 0 q 94 13 106 0 q 82 50 82 25 l 82 893 q 94 932 82 919 q 135 944 106 944 l 199 944 q 229 939 218 944 q 251 917 240 933 l 710 281 l 710 893 q 722 932 710 919 q 761 944 733 944 l 835 944 q 875 932 863 944 q 888 893 888 919 l 888 50 q 876 13 888 25 q 835 0 864 0 l 769 0 q 740 5 750 0 q 718 26 731 10 l 260 661 l 260 50 q 248 13 260 25 q 207 0 236 0 l 133 0 z "},"Ņ":{"ha":969,"x_min":82,"x_max":888,"o":"m 133 0 q 94 13 106 0 q 82 50 82 25 l 82 893 q 94 932 82 919 q 135 944 106 944 l 199 944 q 229 939 218 944 q 251 917 240 933 l 710 281 l 710 893 q 722 932 710 919 q 761 944 733 944 l 835 944 q 875 932 863 944 q 888 893 888 919 l 888 50 q 876 13 888 25 q 835 0 864 0 l 769 0 q 740 5 750 0 q 718 26 731 10 l 260 661 l 260 50 q 248 13 260 25 q 207 0 236 0 l 133 0 m 386 -331 q 361 -311 361 -331 q 364 -296 361 -307 l 428 -86 q 444 -57 433 -64 q 478 -50 454 -50 l 550 -50 q 585 -71 585 -50 q 578 -96 585 -78 l 488 -307 q 447 -331 479 -331 l 386 -331 z "},"Ṅ":{"ha":969,"x_min":82,"x_max":888,"o":"m 479 1054 q 433 1074 451 1054 q 414 1124 414 1094 l 414 1150 q 433 1198 414 1178 q 479 1218 451 1218 l 508 1218 q 555 1198 536 1218 q 574 1150 574 1178 l 574 1124 q 556 1074 574 1094 q 508 1054 538 1054 l 479 1054 m 133 0 q 94 13 106 0 q 82 50 82 25 l 82 893 q 94 932 82 919 q 135 944 106 944 l 199 944 q 229 939 218 944 q 251 917 240 933 l 710 281 l 710 893 q 722 932 710 919 q 761 944 733 944 l 835 944 q 875 932 863 944 q 888 893 888 919 l 888 50 q 876 13 888 25 q 835 0 864 0 l 769 0 q 740 5 750 0 q 718 26 731 10 l 260 661 l 260 50 q 248 13 260 25 q 207 0 236 0 l 133 0 z "},"Ṇ":{"ha":969,"x_min":82,"x_max":888,"o":"m 133 0 q 94 13 106 0 q 82 50 82 25 l 82 893 q 94 932 82 919 q 135 944 106 944 l 199 944 q 229 939 218 944 q 251 917 240 933 l 710 281 l 710 893 q 722 932 710 919 q 761 944 733 944 l 835 944 q 875 932 863 944 q 888 893 888 919 l 888 50 q 876 13 888 25 q 835 0 864 0 l 769 0 q 740 5 750 0 q 718 26 731 10 l 260 661 l 260 50 q 248 13 260 25 q 207 0 236 0 l 133 0 m 482 -256 q 435 -235 454 -256 q 417 -186 417 -215 l 417 -160 q 435 -112 417 -132 q 482 -92 454 -92 l 510 -92 q 557 -111 539 -92 q 575 -160 575 -131 l 575 -186 q 557 -235 575 -215 q 510 -256 539 -256 l 482 -256 z "},"Ŋ":{"ha":969,"x_min":82,"x_max":888,"o":"m 588 -346 q 325 -279 432 -346 q 313 -260 313 -271 q 318 -242 313 -251 l 358 -175 q 376 -161 367 -161 q 394 -168 386 -161 q 474 -202 428 -189 q 569 -215 519 -215 q 676 -177 642 -215 q 710 -61 710 -139 l 710 39 l 260 661 l 260 50 q 248 13 260 25 q 207 0 236 0 l 133 0 q 94 13 106 0 q 82 50 82 25 l 82 893 q 94 932 82 919 q 135 944 106 944 l 199 944 q 229 939 218 944 q 251 917 240 933 l 710 281 l 710 893 q 722 932 710 919 q 761 944 733 944 l 835 944 q 875 932 863 944 q 888 893 888 919 l 888 -61 q 813 -269 888 -192 q 588 -346 738 -346 z "},"Ṉ":{"ha":969,"x_min":82,"x_max":888,"o":"m 133 0 q 94 13 106 0 q 82 50 82 25 l 82 893 q 94 932 82 919 q 135 944 106 944 l 199 944 q 229 939 218 944 q 251 917 240 933 l 710 281 l 710 893 q 722 932 710 919 q 761 944 733 944 l 835 944 q 875 932 863 944 q 888 893 888 919 l 888 50 q 876 13 888 25 q 835 0 864 0 l 769 0 q 740 5 750 0 q 718 26 731 10 l 260 661 l 260 50 q 248 13 260 25 q 207 0 236 0 l 133 0 m 304 -224 q 265 -212 276 -224 q 254 -175 254 -201 l 254 -149 q 265 -110 254 -122 q 304 -99 276 -99 l 665 -99 q 704 -110 693 -99 q 715 -149 715 -122 l 715 -175 q 704 -212 715 -201 q 665 -224 693 -224 l 304 -224 z "},"Ñ":{"ha":969,"x_min":82,"x_max":888,"o":"m 617 1064 q 553 1074 585 1064 q 481 1104 522 1085 q 418 1130 440 1122 q 374 1138 396 1138 q 331 1128 346 1138 q 292 1093 315 1118 q 267 1079 282 1079 q 218 1106 249 1079 q 193 1144 193 1129 q 208 1179 193 1160 q 276 1244 242 1222 q 358 1267 311 1267 q 431 1256 399 1267 q 506 1226 463 1246 q 560 1203 538 1211 q 607 1194 583 1194 q 653 1206 635 1194 q 693 1246 671 1217 q 721 1261 704 1261 q 768 1239 740 1261 q 799 1196 799 1214 q 785 1163 799 1181 q 713 1087 750 1110 q 617 1064 675 1064 m 133 0 q 94 13 106 0 q 82 50 82 25 l 82 893 q 94 932 82 919 q 135 944 106 944 l 199 944 q 229 939 218 944 q 251 917 240 933 l 710 281 l 710 893 q 722 932 710 919 q 761 944 733 944 l 835 944 q 875 932 863 944 q 888 893 888 919 l 888 50 q 876 13 888 25 q 835 0 864 0 l 769 0 q 740 5 750 0 q 718 26 731 10 l 260 661 l 260 50 q 248 13 260 25 q 207 0 236 0 l 133 0 z "},"O":{"ha":1058,"x_min":54,"x_max":1004,"o":"m 529 -21 q 177 108 300 -21 q 54 472 54 238 q 177 836 54 707 q 529 965 300 965 q 881 836 757 965 q 1004 472 1004 707 q 881 108 1004 238 q 529 -21 757 -21 m 529 110 q 751 202 675 110 q 828 472 828 294 q 751 742 828 650 q 529 833 675 833 q 306 742 383 833 q 229 472 229 650 q 306 202 229 294 q 529 110 383 110 z "},"Ó":{"ha":1058,"x_min":54,"x_max":1004,"o":"m 467 1046 q 438 1068 438 1046 q 440 1085 438 1079 l 506 1267 q 523 1293 514 1286 q 557 1300 532 1300 l 660 1300 q 694 1276 694 1300 q 689 1256 694 1267 l 597 1076 q 576 1052 588 1058 q 539 1046 565 1046 l 467 1046 m 529 -21 q 177 108 300 -21 q 54 472 54 238 q 177 836 54 707 q 529 965 300 965 q 881 836 757 965 q 1004 472 1004 707 q 881 108 1004 238 q 529 -21 757 -21 m 529 110 q 751 202 675 110 q 828 472 828 294 q 751 742 828 650 q 529 833 675 833 q 306 742 383 833 q 229 472 229 650 q 306 202 229 294 q 529 110 383 110 z "},"Ŏ":{"ha":1058,"x_min":54,"x_max":1004,"o":"m 517 1033 q 345 1095 403 1033 q 288 1260 288 1157 q 294 1278 288 1271 q 310 1285 300 1285 l 401 1285 q 420 1278 415 1285 q 425 1258 425 1272 q 445 1181 425 1208 q 517 1154 465 1154 q 588 1181 567 1154 q 608 1258 608 1208 q 613 1278 608 1272 q 632 1285 618 1285 l 724 1285 q 740 1278 733 1285 q 746 1260 746 1271 q 687 1096 746 1158 q 517 1033 628 1033 m 529 -21 q 177 108 300 -21 q 54 472 54 238 q 177 836 54 707 q 529 965 300 965 q 881 836 757 965 q 1004 472 1004 707 q 881 108 1004 238 q 529 -21 757 -21 m 529 110 q 751 202 675 110 q 828 472 828 294 q 751 742 828 650 q 529 833 675 833 q 306 742 383 833 q 229 472 229 650 q 306 202 229 294 q 529 110 383 110 z "},"Ǒ":{"ha":1058,"x_min":54,"x_max":1004,"o":"m 475 1031 q 445 1036 453 1031 q 422 1060 438 1042 l 278 1256 q 267 1282 267 1271 q 292 1300 267 1300 l 365 1300 q 399 1295 389 1300 q 419 1274 408 1290 l 515 1133 l 610 1274 q 629 1295 619 1290 q 664 1300 639 1300 l 736 1300 q 763 1282 763 1300 q 751 1256 763 1268 l 607 1060 q 585 1036 594 1042 q 554 1031 576 1031 l 475 1031 m 529 -21 q 177 108 300 -21 q 54 472 54 238 q 177 836 54 707 q 529 965 300 965 q 881 836 757 965 q 1004 472 1004 707 q 881 108 1004 238 q 529 -21 757 -21 m 529 110 q 751 202 675 110 q 828 472 828 294 q 751 742 828 650 q 529 833 675 833 q 306 742 383 833 q 229 472 229 650 q 306 202 229 294 q 529 110 383 110 z "},"Ô":{"ha":1058,"x_min":54,"x_max":1004,"o":"m 314 1042 q 291 1047 300 1042 q 282 1063 282 1053 q 292 1086 282 1075 l 436 1282 q 459 1307 451 1301 q 489 1313 467 1313 l 568 1313 q 599 1306 590 1313 q 621 1282 607 1300 l 765 1086 q 775 1063 775 1075 q 767 1047 775 1053 q 744 1042 758 1042 l 679 1042 q 645 1048 656 1042 q 622 1071 635 1054 l 529 1210 l 435 1071 q 414 1048 425 1054 q 379 1042 403 1042 l 314 1042 m 529 -21 q 177 108 300 -21 q 54 472 54 238 q 177 836 54 707 q 529 965 300 965 q 881 836 757 965 q 1004 472 1004 707 q 881 108 1004 238 q 529 -21 757 -21 m 529 110 q 751 202 675 110 q 828 472 828 294 q 751 742 828 650 q 529 833 675 833 q 306 742 383 833 q 229 472 229 650 q 306 202 229 294 q 529 110 383 110 z "},"Ố":{"ha":1058,"x_min":54,"x_max":1004,"o":"m 699 1218 q 672 1239 672 1218 q 675 1253 672 1244 l 724 1388 q 739 1414 731 1407 q 771 1421 747 1421 l 840 1421 q 869 1400 869 1421 q 863 1378 869 1389 l 794 1249 q 774 1224 783 1229 q 740 1218 764 1218 l 699 1218 m 321 1038 q 299 1043 307 1038 q 290 1058 290 1049 q 301 1082 290 1068 l 442 1253 q 466 1277 457 1271 q 497 1283 475 1283 l 560 1283 q 592 1277 582 1283 q 615 1253 603 1271 l 756 1082 q 767 1058 767 1068 q 758 1043 767 1049 q 736 1038 750 1038 l 674 1038 q 642 1042 651 1038 q 619 1063 632 1047 l 529 1178 l 438 1063 q 417 1042 428 1047 q 383 1038 407 1038 l 321 1038 m 529 -21 q 177 108 300 -21 q 54 472 54 238 q 177 836 54 707 q 529 965 300 965 q 881 836 757 965 q 1004 472 1004 707 q 881 108 1004 238 q 529 -21 757 -21 m 529 110 q 751 202 675 110 q 828 472 828 294 q 751 742 828 650 q 529 833 675 833 q 306 742 383 833 q 229 472 229 650 q 306 202 229 294 q 529 110 383 110 z "},"Ộ":{"ha":1058,"x_min":54,"x_max":1004,"o":"m 314 1031 q 291 1036 300 1031 q 282 1051 282 1042 q 292 1075 282 1064 l 436 1271 q 459 1296 451 1290 q 489 1301 467 1301 l 568 1301 q 599 1295 590 1301 q 621 1271 607 1289 l 765 1075 q 775 1051 775 1064 q 767 1036 775 1042 q 744 1031 758 1031 l 679 1031 q 645 1037 656 1031 q 622 1060 635 1043 l 529 1199 l 435 1060 q 414 1037 425 1043 q 379 1031 403 1031 l 314 1031 m 529 -21 q 177 108 300 -21 q 54 472 54 238 q 177 836 54 707 q 529 965 300 965 q 881 836 757 965 q 1004 472 1004 707 q 881 108 1004 238 q 529 -21 757 -21 m 529 110 q 751 202 675 110 q 828 472 828 294 q 751 742 828 650 q 529 833 675 833 q 306 742 383 833 q 229 472 229 650 q 306 202 229 294 q 529 110 383 110 m 499 -256 q 452 -235 471 -256 q 433 -186 433 -215 l 433 -160 q 452 -112 433 -132 q 499 -92 471 -92 l 526 -92 q 574 -111 556 -92 q 592 -160 592 -131 l 592 -186 q 574 -235 592 -215 q 526 -256 556 -256 l 499 -256 z "},"Ồ":{"ha":1058,"x_min":54,"x_max":1004,"o":"m 318 1217 q 285 1222 294 1217 q 264 1247 275 1228 l 196 1376 q 189 1399 189 1390 q 218 1419 189 1419 l 288 1419 q 319 1413 311 1419 q 335 1386 328 1406 l 383 1251 q 386 1238 386 1243 q 360 1217 386 1217 l 318 1217 m 322 1036 q 300 1042 308 1036 q 292 1057 292 1047 q 303 1081 292 1067 l 443 1251 q 468 1276 458 1269 q 499 1282 478 1282 l 561 1282 q 592 1276 583 1282 q 617 1251 601 1269 l 757 1081 q 768 1057 768 1067 q 760 1042 768 1047 q 738 1036 751 1036 l 675 1036 q 643 1041 653 1036 q 621 1061 633 1046 l 529 1176 l 439 1061 q 417 1041 426 1046 q 385 1036 407 1036 l 322 1036 m 529 -21 q 177 108 300 -21 q 54 472 54 238 q 177 836 54 707 q 529 965 300 965 q 881 836 757 965 q 1004 472 1004 707 q 881 108 1004 238 q 529 -21 757 -21 m 529 110 q 751 202 675 110 q 828 472 828 294 q 751 742 828 650 q 529 833 675 833 q 306 742 383 833 q 229 472 229 650 q 306 202 229 294 q 529 110 383 110 z "},"Ổ":{"ha":1058,"x_min":54,"x_max":1004,"o":"m 708 1197 q 679 1225 679 1197 l 679 1264 q 722 1303 679 1303 q 765 1311 753 1303 q 778 1339 778 1319 q 731 1371 778 1371 q 657 1351 690 1371 q 646 1354 649 1347 l 621 1404 q 625 1418 618 1413 q 680 1440 646 1432 q 749 1447 714 1447 q 849 1420 815 1447 q 883 1343 883 1393 q 855 1270 883 1296 q 783 1244 826 1244 l 783 1225 q 756 1197 783 1197 l 708 1197 m 299 1038 q 282 1051 282 1038 q 288 1064 282 1058 l 443 1247 q 467 1271 458 1265 q 499 1276 476 1276 l 561 1276 q 593 1271 583 1276 q 617 1247 603 1265 l 772 1064 q 778 1051 778 1058 q 761 1038 778 1038 l 663 1038 q 644 1040 650 1038 q 633 1049 639 1042 l 529 1176 l 426 1049 q 415 1040 421 1042 q 397 1038 410 1038 l 299 1038 m 529 -21 q 177 108 300 -21 q 54 472 54 238 q 177 836 54 707 q 529 965 300 965 q 881 836 757 965 q 1004 472 1004 707 q 881 108 1004 238 q 529 -21 757 -21 m 529 110 q 751 202 675 110 q 828 472 828 294 q 751 742 828 650 q 529 833 675 833 q 306 742 383 833 q 229 472 229 650 q 306 202 229 294 q 529 110 383 110 z "},"Ỗ":{"ha":1058,"x_min":54,"x_max":1004,"o":"m 617 1296 q 567 1303 589 1296 q 515 1328 546 1311 q 472 1348 489 1342 q 436 1354 456 1354 q 399 1345 413 1354 q 367 1315 385 1336 q 343 1301 357 1301 q 303 1322 328 1301 q 288 1337 294 1329 q 282 1353 282 1344 q 293 1379 282 1364 q 351 1437 319 1417 q 425 1457 383 1457 q 483 1448 458 1457 q 536 1422 507 1439 q 578 1403 564 1408 q 611 1397 593 1397 q 649 1406 635 1397 q 681 1436 664 1414 q 706 1451 692 1451 q 744 1433 721 1451 q 767 1401 767 1415 q 754 1372 767 1389 q 693 1314 725 1332 q 617 1296 661 1296 m 529 1038 q 363 1092 425 1038 q 300 1236 300 1147 q 306 1254 300 1247 q 322 1261 313 1261 l 413 1261 q 431 1255 426 1261 q 436 1235 436 1249 q 460 1173 436 1197 q 529 1149 483 1149 q 599 1173 575 1149 q 622 1235 622 1197 q 627 1255 622 1249 q 646 1261 632 1261 l 736 1261 q 752 1254 746 1261 q 758 1236 758 1247 q 697 1092 758 1147 q 529 1038 635 1038 m 529 -21 q 177 108 300 -21 q 54 472 54 238 q 177 836 54 707 q 529 965 300 965 q 881 836 757 965 q 1004 472 1004 707 q 881 108 1004 238 q 529 -21 757 -21 m 529 110 q 751 202 675 110 q 828 472 828 294 q 751 742 828 650 q 529 833 675 833 q 306 742 383 833 q 229 472 229 650 q 306 202 229 294 q 529 110 383 110 z "},"Ö":{"ha":1058,"x_min":54,"x_max":1004,"o":"m 378 1038 q 331 1058 349 1038 q 313 1107 313 1078 l 313 1133 q 331 1182 313 1163 q 378 1201 349 1201 l 406 1201 q 453 1182 435 1201 q 471 1133 471 1163 l 471 1107 q 453 1058 471 1078 q 406 1038 435 1038 l 378 1038 m 651 1038 q 605 1058 624 1038 q 586 1107 586 1078 l 586 1133 q 605 1181 586 1161 q 651 1201 624 1201 l 679 1201 q 726 1182 708 1201 q 744 1133 744 1163 l 744 1107 q 726 1058 744 1078 q 679 1038 708 1038 l 651 1038 m 529 -21 q 177 108 300 -21 q 54 472 54 238 q 177 836 54 707 q 529 965 300 965 q 881 836 757 965 q 1004 472 1004 707 q 881 108 1004 238 q 529 -21 757 -21 m 529 110 q 751 202 675 110 q 828 472 828 294 q 751 742 828 650 q 529 833 675 833 q 306 742 383 833 q 229 472 229 650 q 306 202 229 294 q 529 110 383 110 z "},"Ọ":{"ha":1058,"x_min":54,"x_max":1004,"o":"m 529 -21 q 177 108 300 -21 q 54 472 54 238 q 177 836 54 707 q 529 965 300 965 q 881 836 757 965 q 1004 472 1004 707 q 881 108 1004 238 q 529 -21 757 -21 m 529 110 q 751 202 675 110 q 828 472 828 294 q 751 742 828 650 q 529 833 675 833 q 306 742 383 833 q 229 472 229 650 q 306 202 229 294 q 529 110 383 110 m 513 -256 q 466 -235 485 -256 q 447 -186 447 -215 l 447 -160 q 466 -112 447 -132 q 513 -92 485 -92 l 540 -92 q 588 -111 569 -92 q 606 -160 606 -131 l 606 -186 q 588 -235 606 -215 q 540 -256 569 -256 l 513 -256 z "},"Ò":{"ha":1058,"x_min":54,"x_max":1004,"o":"m 507 1046 q 471 1052 482 1046 q 450 1076 460 1058 l 358 1256 q 353 1276 353 1267 q 388 1300 353 1300 l 489 1300 q 524 1293 515 1300 q 540 1267 533 1286 l 607 1085 q 610 1068 610 1079 q 579 1046 610 1046 l 507 1046 m 529 -21 q 177 108 300 -21 q 54 472 54 238 q 177 836 54 707 q 529 965 300 965 q 881 836 757 965 q 1004 472 1004 707 q 881 108 1004 238 q 529 -21 757 -21 m 529 110 q 751 202 675 110 q 828 472 828 294 q 751 742 828 650 q 529 833 675 833 q 306 742 383 833 q 229 472 229 650 q 306 202 229 294 q 529 110 383 110 z "},"Ỏ":{"ha":1058,"x_min":54,"x_max":1004,"o":"m 497 1029 q 465 1061 465 1029 l 465 1124 q 476 1156 465 1146 q 514 1167 488 1167 q 580 1178 563 1167 q 597 1219 597 1190 q 581 1254 597 1243 q 525 1265 564 1265 q 421 1239 474 1265 q 407 1242 411 1235 l 378 1306 q 376 1313 376 1308 q 383 1322 376 1317 q 454 1351 411 1340 q 540 1361 497 1361 q 678 1326 632 1361 q 724 1225 724 1290 q 683 1128 724 1164 q 588 1092 643 1092 l 588 1061 q 556 1029 588 1029 l 497 1029 m 529 -21 q 177 108 300 -21 q 54 472 54 238 q 177 836 54 707 q 529 965 300 965 q 881 836 757 965 q 1004 472 1004 707 q 881 108 1004 238 q 529 -21 757 -21 m 529 110 q 751 202 675 110 q 828 472 828 294 q 751 742 828 650 q 529 833 675 833 q 306 742 383 833 q 229 472 229 650 q 306 202 229 294 q 529 110 383 110 z "},"Ơ":{"ha":1115,"x_min":54,"x_max":1103,"o":"m 529 -21 q 177 108 300 -21 q 54 472 54 238 q 177 836 54 707 q 529 965 300 965 q 851 861 731 965 q 927 898 904 865 q 950 1003 950 931 q 956 1032 950 1024 q 979 1040 963 1040 l 1071 1040 q 1096 1032 1089 1040 q 1103 1003 1103 1024 q 942 746 1103 793 q 1004 472 1004 632 q 881 108 1004 238 q 529 -21 757 -21 m 529 110 q 751 202 675 110 q 828 472 828 294 q 751 742 828 650 q 529 833 675 833 q 306 742 383 833 q 229 472 229 650 q 306 202 229 294 q 529 110 383 110 z "},"Ớ":{"ha":1115,"x_min":54,"x_max":1103,"o":"m 490 1040 q 461 1063 461 1040 q 464 1079 461 1074 l 529 1261 q 547 1288 538 1281 q 581 1294 556 1294 l 683 1294 q 718 1271 718 1294 q 713 1250 718 1261 l 621 1071 q 600 1047 611 1053 q 563 1040 589 1040 l 490 1040 m 529 -21 q 177 108 300 -21 q 54 472 54 238 q 177 836 54 707 q 529 965 300 965 q 851 861 731 965 q 927 898 904 865 q 950 1003 950 931 q 956 1032 950 1024 q 979 1040 963 1040 l 1071 1040 q 1096 1032 1089 1040 q 1103 1003 1103 1024 q 942 746 1103 793 q 1004 472 1004 632 q 881 108 1004 238 q 529 -21 757 -21 m 529 110 q 751 202 675 110 q 828 472 828 294 q 751 742 828 650 q 529 833 675 833 q 306 742 383 833 q 229 472 229 650 q 306 202 229 294 q 529 110 383 110 z "},"Ợ":{"ha":1115,"x_min":54,"x_max":1103,"o":"m 529 -21 q 177 108 300 -21 q 54 472 54 238 q 177 836 54 707 q 529 965 300 965 q 851 861 731 965 q 927 898 904 865 q 950 1003 950 931 q 956 1032 950 1024 q 979 1040 963 1040 l 1071 1040 q 1096 1032 1089 1040 q 1103 1003 1103 1024 q 942 746 1103 793 q 1004 472 1004 632 q 881 108 1004 238 q 529 -21 757 -21 m 529 110 q 751 202 675 110 q 828 472 828 294 q 751 742 828 650 q 529 833 675 833 q 306 742 383 833 q 229 472 229 650 q 306 202 229 294 q 529 110 383 110 m 513 -256 q 466 -235 485 -256 q 447 -186 447 -215 l 447 -160 q 466 -112 447 -132 q 513 -92 485 -92 l 540 -92 q 588 -111 569 -92 q 606 -160 606 -131 l 606 -186 q 588 -235 606 -215 q 540 -256 569 -256 l 513 -256 z "},"Ờ":{"ha":1115,"x_min":54,"x_max":1103,"o":"m 533 1028 q 497 1034 508 1028 q 476 1058 486 1040 l 385 1238 q 379 1258 379 1249 q 414 1282 379 1282 l 515 1282 q 551 1275 542 1282 q 567 1249 560 1268 l 633 1067 q 636 1050 636 1061 q 606 1028 636 1028 l 533 1028 m 529 -21 q 177 108 300 -21 q 54 472 54 238 q 177 836 54 707 q 529 965 300 965 q 851 861 731 965 q 927 898 904 865 q 950 1003 950 931 q 956 1032 950 1024 q 979 1040 963 1040 l 1071 1040 q 1096 1032 1089 1040 q 1103 1003 1103 1024 q 942 746 1103 793 q 1004 472 1004 632 q 881 108 1004 238 q 529 -21 757 -21 m 529 110 q 751 202 675 110 q 828 472 828 294 q 751 742 828 650 q 529 833 675 833 q 306 742 383 833 q 229 472 229 650 q 306 202 229 294 q 529 110 383 110 z "},"Ở":{"ha":1115,"x_min":54,"x_max":1103,"o":"m 499 1015 q 467 1047 467 1015 l 467 1110 q 478 1142 467 1132 q 515 1153 489 1153 q 581 1165 564 1153 q 599 1206 599 1176 q 582 1240 599 1229 q 526 1251 565 1251 q 422 1225 475 1251 q 408 1228 413 1221 l 379 1292 q 378 1299 378 1294 q 385 1308 378 1303 q 456 1337 413 1326 q 542 1347 499 1347 q 679 1312 633 1347 q 725 1211 725 1276 q 685 1114 725 1150 q 589 1078 644 1078 l 589 1047 q 557 1015 589 1015 l 499 1015 m 529 -21 q 177 108 300 -21 q 54 472 54 238 q 177 836 54 707 q 529 965 300 965 q 851 861 731 965 q 927 898 904 865 q 950 1003 950 931 q 956 1032 950 1024 q 979 1040 963 1040 l 1071 1040 q 1096 1032 1089 1040 q 1103 1003 1103 1024 q 942 746 1103 793 q 1004 472 1004 632 q 881 108 1004 238 q 529 -21 757 -21 m 529 110 q 751 202 675 110 q 828 472 828 294 q 751 742 828 650 q 529 833 675 833 q 306 742 383 833 q 229 472 229 650 q 306 202 229 294 q 529 110 383 110 z "},"Ỡ":{"ha":1115,"x_min":54,"x_max":1103,"o":"m 690 1036 q 627 1047 658 1036 q 554 1076 596 1057 q 492 1102 514 1094 q 447 1110 471 1110 q 404 1100 419 1110 q 365 1065 389 1090 q 340 1051 356 1051 q 292 1078 322 1051 q 267 1117 267 1101 q 282 1151 267 1132 q 350 1217 315 1194 q 432 1239 385 1239 q 504 1228 472 1239 q 579 1199 536 1218 q 634 1175 611 1183 q 681 1167 657 1167 q 726 1178 708 1167 q 767 1218 744 1189 q 794 1233 778 1233 q 842 1211 814 1233 q 872 1168 872 1186 q 858 1135 872 1153 q 786 1059 824 1082 q 690 1036 749 1036 m 529 -21 q 177 108 300 -21 q 54 472 54 238 q 177 836 54 707 q 529 965 300 965 q 851 861 731 965 q 927 898 904 865 q 950 1003 950 931 q 956 1032 950 1024 q 979 1040 963 1040 l 1071 1040 q 1096 1032 1089 1040 q 1103 1003 1103 1024 q 942 746 1103 793 q 1004 472 1004 632 q 881 108 1004 238 q 529 -21 757 -21 m 529 110 q 751 202 675 110 q 828 472 828 294 q 751 742 828 650 q 529 833 675 833 q 306 742 383 833 q 229 472 229 650 q 306 202 229 294 q 529 110 383 110 z "},"Ő":{"ha":1058,"x_min":54,"x_max":1004,"o":"m 333 1035 q 303 1057 303 1035 q 307 1074 303 1064 l 397 1256 q 416 1282 407 1275 q 449 1289 425 1289 l 540 1289 q 566 1283 556 1289 q 576 1267 576 1276 q 568 1244 576 1257 l 453 1065 q 429 1040 439 1046 q 394 1035 419 1035 l 333 1035 m 611 1035 q 579 1057 579 1035 q 583 1074 579 1065 l 674 1256 q 692 1282 683 1275 q 726 1289 701 1289 l 817 1289 q 843 1283 833 1289 q 853 1265 853 1276 q 846 1244 853 1256 l 729 1065 q 706 1041 717 1047 q 671 1035 696 1035 l 611 1035 m 529 -21 q 177 108 300 -21 q 54 472 54 238 q 177 836 54 707 q 529 965 300 965 q 881 836 757 965 q 1004 472 1004 707 q 881 108 1004 238 q 529 -21 757 -21 m 529 110 q 751 202 675 110 q 828 472 828 294 q 751 742 828 650 q 529 833 675 833 q 306 742 383 833 q 229 472 229 650 q 306 202 229 294 q 529 110 383 110 z "},"Ō":{"ha":1058,"x_min":54,"x_max":1004,"o":"m 326 1063 q 288 1074 299 1063 q 276 1111 276 1085 l 276 1147 q 288 1185 276 1174 q 326 1197 299 1197 l 706 1197 q 744 1185 733 1197 q 756 1147 756 1174 l 756 1111 q 744 1074 756 1085 q 706 1063 733 1063 l 326 1063 m 529 -21 q 177 108 300 -21 q 54 472 54 238 q 177 836 54 707 q 529 965 300 965 q 881 836 757 965 q 1004 472 1004 707 q 881 108 1004 238 q 529 -21 757 -21 m 529 110 q 751 202 675 110 q 828 472 828 294 q 751 742 828 650 q 529 833 675 833 q 306 742 383 833 q 229 472 229 650 q 306 202 229 294 q 529 110 383 110 z "},"Ø":{"ha":1058,"x_min":54,"x_max":1004,"o":"m 786 908 q 949 740 893 851 q 1004 472 1004 628 q 881 108 1004 238 q 529 -21 757 -21 q 411 -11 464 -21 l 376 -97 q 364 -115 371 -110 q 342 -119 357 -119 l 229 -119 q 210 -104 210 -119 q 214 -85 210 -96 l 265 40 q 108 208 163 99 q 54 472 54 318 q 177 836 54 707 q 529 965 300 965 q 639 957 589 965 l 665 1019 q 678 1038 671 1033 q 699 1043 685 1043 l 811 1043 q 831 1026 831 1043 q 826 1008 831 1019 l 786 908 m 229 472 q 324 183 229 278 l 588 829 q 529 833 561 833 q 306 742 383 833 q 229 472 229 650 m 529 110 q 751 202 675 110 q 828 472 828 294 q 728 767 828 675 l 463 115 q 529 110 490 110 z "},"Ǿ":{"ha":1058,"x_min":54,"x_max":1004,"o":"m 463 1013 q 433 1035 433 1013 q 436 1051 433 1046 l 501 1233 q 519 1260 510 1253 q 553 1267 528 1267 l 656 1267 q 690 1243 690 1267 q 685 1222 690 1233 l 593 1043 q 572 1019 583 1025 q 535 1013 561 1013 l 463 1013 m 786 908 q 949 740 893 851 q 1004 472 1004 628 q 881 108 1004 238 q 529 -21 757 -21 q 411 -11 464 -21 l 376 -97 q 364 -115 371 -110 q 342 -119 357 -119 l 229 -119 q 210 -104 210 -119 q 214 -85 210 -96 l 265 40 q 108 208 163 99 q 54 472 54 318 q 177 836 54 707 q 529 965 300 965 q 639 957 589 965 l 665 1019 q 678 1038 671 1033 q 699 1043 685 1043 l 811 1043 q 831 1026 831 1043 q 826 1008 831 1019 l 786 908 m 229 472 q 324 183 229 278 l 588 829 q 529 833 561 833 q 306 742 383 833 q 229 472 229 650 m 529 110 q 751 202 675 110 q 828 472 828 294 q 728 767 828 675 l 463 115 q 529 110 490 110 z "},"Õ":{"ha":1058,"x_min":54,"x_max":1004,"o":"m 654 1022 q 591 1033 622 1022 q 518 1063 560 1043 q 456 1088 478 1081 q 411 1096 433 1096 q 368 1086 383 1096 q 329 1051 353 1076 q 304 1038 319 1038 q 256 1064 286 1038 q 231 1103 231 1088 q 246 1138 231 1118 q 314 1203 279 1181 q 396 1225 349 1225 q 468 1215 436 1225 q 543 1185 500 1204 q 598 1161 575 1169 q 644 1153 621 1153 q 690 1164 672 1153 q 731 1204 708 1175 q 758 1219 742 1219 q 806 1197 778 1219 q 836 1154 836 1172 q 822 1121 836 1139 q 750 1045 788 1068 q 654 1022 713 1022 m 529 -21 q 177 108 300 -21 q 54 472 54 238 q 177 836 54 707 q 529 965 300 965 q 881 836 757 965 q 1004 472 1004 707 q 881 108 1004 238 q 529 -21 757 -21 m 529 110 q 751 202 675 110 q 828 472 828 294 q 751 742 828 650 q 529 833 675 833 q 306 742 383 833 q 229 472 229 650 q 306 202 229 294 q 529 110 383 110 z "},"Œ":{"ha":1625,"x_min":68,"x_max":1569,"o":"m 1069 808 l 1069 539 l 1397 539 q 1436 528 1425 539 q 1447 490 1447 517 l 1447 456 q 1436 417 1447 429 q 1397 406 1425 406 l 1069 406 l 1069 135 l 1519 135 q 1558 123 1547 135 q 1569 85 1569 111 l 1569 47 q 1558 11 1569 22 q 1519 0 1547 0 l 943 0 q 903 13 915 0 q 892 50 892 25 l 892 106 q 543 -21 768 -21 q 191 108 314 -21 q 68 472 68 238 q 191 836 68 707 q 543 965 314 965 q 892 839 768 965 l 892 893 q 903 932 892 919 q 943 944 915 944 l 1521 944 q 1559 933 1549 944 q 1569 896 1569 922 l 1569 858 q 1559 820 1569 832 q 1521 808 1549 808 l 1069 808 m 543 110 q 765 202 689 110 q 842 472 842 294 q 765 742 842 650 q 543 833 689 833 q 320 742 397 833 q 243 472 243 650 q 320 202 243 294 q 543 110 397 110 z "},"P":{"ha":851,"x_min":82,"x_max":825,"o":"m 133 0 q 94 13 106 0 q 82 50 82 25 l 82 893 q 94 932 82 919 q 133 944 106 944 l 489 944 q 742 863 660 944 q 825 631 825 782 q 742 400 825 481 q 489 319 660 319 l 260 319 l 260 50 q 248 13 260 25 q 207 0 236 0 l 133 0 m 481 454 q 607 498 565 454 q 649 631 649 542 q 607 765 649 721 q 481 808 565 808 l 260 808 l 260 454 l 481 454 z "},"Þ":{"ha":879,"x_min":82,"x_max":825,"o":"m 133 0 q 94 13 106 0 q 82 50 82 25 l 82 893 q 94 932 82 919 q 133 944 106 944 l 207 944 q 247 932 235 944 q 260 893 260 919 l 260 785 l 489 785 q 742 703 658 785 q 825 472 825 622 q 742 240 825 321 q 489 160 660 160 l 260 160 l 260 50 q 248 13 260 25 q 207 0 236 0 l 133 0 m 481 294 q 649 472 649 294 q 607 605 649 561 q 481 649 565 649 l 260 649 l 260 294 l 481 294 z "},"Q":{"ha":1058,"x_min":54,"x_max":1004,"o":"m 733 -251 q 528 -187 604 -251 q 447 -15 453 -124 q 156 132 257 6 q 54 472 54 258 q 177 836 54 707 q 529 965 300 965 q 881 836 757 965 q 1004 472 1004 707 q 896 127 1004 253 q 585 -15 788 1 q 631 -104 588 -75 q 740 -133 674 -133 q 876 -94 815 -133 q 890 -89 883 -89 q 903 -99 897 -89 l 944 -164 q 949 -178 949 -172 q 936 -194 949 -186 q 844 -237 892 -224 q 733 -251 796 -251 m 529 110 q 751 202 675 110 q 828 472 828 294 q 751 742 828 650 q 529 833 675 833 q 306 742 383 833 q 229 472 229 650 q 306 202 229 294 q 529 110 383 110 z "},"R":{"ha":879,"x_min":82,"x_max":825,"o":"m 133 0 q 94 13 106 0 q 82 50 82 25 l 82 893 q 94 932 82 919 q 133 944 106 944 l 496 944 q 741 869 657 944 q 825 647 825 794 q 779 481 825 550 q 646 378 733 413 l 800 36 q 804 21 804 28 q 779 0 804 0 l 665 0 q 639 5 647 0 q 624 25 631 10 l 483 354 l 260 354 l 260 50 q 248 13 260 25 q 207 0 236 0 l 133 0 m 460 488 q 603 525 557 488 q 649 647 649 563 q 607 769 649 731 q 481 808 565 808 l 260 808 l 260 488 l 460 488 z "},"Ŕ":{"ha":879,"x_min":82,"x_max":825,"o":"m 365 1029 q 336 1051 336 1029 q 339 1068 336 1063 l 404 1250 q 422 1276 413 1269 q 456 1283 431 1283 l 558 1283 q 593 1260 593 1283 q 588 1239 593 1250 l 496 1060 q 475 1035 486 1042 q 438 1029 464 1029 l 365 1029 m 133 0 q 94 13 106 0 q 82 50 82 25 l 82 893 q 94 932 82 919 q 133 944 106 944 l 496 944 q 741 869 657 944 q 825 647 825 794 q 779 481 825 550 q 646 378 733 413 l 800 36 q 804 21 804 28 q 779 0 804 0 l 665 0 q 639 5 647 0 q 624 25 631 10 l 483 354 l 260 354 l 260 50 q 248 13 260 25 q 207 0 236 0 l 133 0 m 460 488 q 603 525 557 488 q 649 647 649 563 q 607 769 649 731 q 481 808 565 808 l 260 808 l 260 488 l 460 488 z "},"Ř":{"ha":879,"x_min":82,"x_max":825,"o":"m 389 1031 q 359 1036 367 1031 q 336 1060 351 1042 l 192 1256 q 181 1282 181 1271 q 206 1300 181 1300 l 279 1300 q 313 1295 303 1300 q 333 1274 322 1290 l 429 1133 l 524 1274 q 543 1295 533 1290 q 578 1300 553 1300 l 650 1300 q 676 1282 676 1300 q 665 1256 676 1268 l 521 1060 q 499 1036 508 1042 q 468 1031 490 1031 l 389 1031 m 133 0 q 94 13 106 0 q 82 50 82 25 l 82 893 q 94 932 82 919 q 133 944 106 944 l 496 944 q 741 869 657 944 q 825 647 825 794 q 779 481 825 550 q 646 378 733 413 l 800 36 q 804 21 804 28 q 779 0 804 0 l 665 0 q 639 5 647 0 q 624 25 631 10 l 483 354 l 260 354 l 260 50 q 248 13 260 25 q 207 0 236 0 l 133 0 m 460 488 q 603 525 557 488 q 649 647 649 563 q 607 769 649 731 q 481 808 565 808 l 260 808 l 260 488 l 460 488 z "},"Ŗ":{"ha":879,"x_min":82,"x_max":825,"o":"m 133 0 q 94 13 106 0 q 82 50 82 25 l 82 893 q 94 932 82 919 q 133 944 106 944 l 496 944 q 741 869 657 944 q 825 647 825 794 q 779 481 825 550 q 646 378 733 413 l 800 36 q 804 21 804 28 q 779 0 804 0 l 665 0 q 639 5 647 0 q 624 25 631 10 l 483 354 l 260 354 l 260 50 q 248 13 260 25 q 207 0 236 0 l 133 0 m 460 488 q 603 525 557 488 q 649 647 649 563 q 607 769 649 731 q 481 808 565 808 l 260 808 l 260 488 l 460 488 m 329 -331 q 304 -311 304 -331 q 307 -296 304 -307 l 371 -86 q 387 -57 376 -64 q 421 -50 397 -50 l 493 -50 q 528 -71 528 -50 q 521 -96 528 -78 l 431 -307 q 390 -331 422 -331 l 329 -331 z "},"Ṛ":{"ha":879,"x_min":82,"x_max":825,"o":"m 133 0 q 94 13 106 0 q 82 50 82 25 l 82 893 q 94 932 82 919 q 133 944 106 944 l 496 944 q 741 869 657 944 q 825 647 825 794 q 779 481 825 550 q 646 378 733 413 l 800 36 q 804 21 804 28 q 779 0 804 0 l 665 0 q 639 5 647 0 q 624 25 631 10 l 483 354 l 260 354 l 260 50 q 248 13 260 25 q 207 0 236 0 l 133 0 m 460 488 q 603 525 557 488 q 649 647 649 563 q 607 769 649 731 q 481 808 565 808 l 260 808 l 260 488 l 460 488 m 410 -256 q 363 -235 382 -256 q 344 -186 344 -215 l 344 -160 q 363 -112 344 -132 q 410 -92 382 -92 l 438 -92 q 485 -111 467 -92 q 503 -160 503 -131 l 503 -186 q 485 -235 503 -215 q 438 -256 467 -256 l 410 -256 z "},"Ṝ":{"ha":879,"x_min":82,"x_max":825,"o":"m 211 1063 q 172 1074 183 1063 q 161 1111 161 1085 l 161 1147 q 172 1185 161 1174 q 211 1197 183 1197 l 590 1197 q 629 1185 618 1197 q 640 1147 640 1174 l 640 1111 q 629 1074 640 1085 q 590 1063 618 1063 l 211 1063 m 133 0 q 94 13 106 0 q 82 50 82 25 l 82 893 q 94 932 82 919 q 133 944 106 944 l 496 944 q 741 869 657 944 q 825 647 825 794 q 779 481 825 550 q 646 378 733 413 l 800 36 q 804 21 804 28 q 779 0 804 0 l 665 0 q 639 5 647 0 q 624 25 631 10 l 483 354 l 260 354 l 260 50 q 248 13 260 25 q 207 0 236 0 l 133 0 m 460 488 q 603 525 557 488 q 649 647 649 563 q 607 769 649 731 q 481 808 565 808 l 260 808 l 260 488 l 460 488 m 410 -256 q 363 -235 382 -256 q 344 -186 344 -215 l 344 -160 q 363 -112 344 -132 q 410 -92 382 -92 l 438 -92 q 485 -111 467 -92 q 503 -160 503 -131 l 503 -186 q 485 -235 503 -215 q 438 -256 467 -256 l 410 -256 z "},"Ṟ":{"ha":879,"x_min":82,"x_max":825,"o":"m 133 0 q 94 13 106 0 q 82 50 82 25 l 82 893 q 94 932 82 919 q 133 944 106 944 l 496 944 q 741 869 657 944 q 825 647 825 794 q 779 481 825 550 q 646 378 733 413 l 800 36 q 804 21 804 28 q 779 0 804 0 l 665 0 q 639 5 647 0 q 624 25 631 10 l 483 354 l 260 354 l 260 50 q 248 13 260 25 q 207 0 236 0 l 133 0 m 460 488 q 603 525 557 488 q 649 647 649 563 q 607 769 649 731 q 481 808 565 808 l 260 808 l 260 488 l 460 488 m 250 -224 q 211 -212 222 -224 q 200 -175 200 -201 l 200 -149 q 211 -110 200 -122 q 250 -99 222 -99 l 611 -99 q 650 -110 639 -99 q 661 -149 661 -122 l 661 -175 q 650 -212 661 -201 q 611 -224 639 -224 l 250 -224 z "},"S":{"ha":818,"x_min":56,"x_max":764,"o":"m 419 -21 q 226 1 321 -21 q 74 61 131 22 q 56 83 56 74 q 61 100 56 93 l 107 172 q 122 185 115 185 q 140 178 129 185 q 260 128 192 147 q 397 110 328 110 q 540 141 492 110 q 588 242 588 172 q 569 308 588 283 q 517 351 551 333 q 404 400 482 369 l 372 413 q 223 482 282 449 q 125 569 164 515 q 86 701 86 624 q 183 897 86 828 q 436 965 279 965 q 602 947 532 965 q 724 892 672 929 q 740 868 740 879 q 735 853 740 860 l 690 781 q 676 768 682 768 q 658 776 671 768 q 438 833 569 833 q 306 801 350 833 q 261 700 261 769 q 280 631 261 657 q 335 588 299 606 q 451 539 371 569 l 486 525 q 644 451 588 485 q 733 366 701 417 q 764 236 764 315 q 674 48 764 117 q 419 -21 585 -21 z "},"Ś":{"ha":818,"x_min":56,"x_max":764,"o":"m 389 1029 q 360 1051 360 1029 q 363 1068 360 1063 l 428 1250 q 445 1276 436 1269 q 479 1283 454 1283 l 582 1283 q 617 1260 617 1283 q 611 1239 617 1250 l 519 1060 q 499 1035 510 1042 q 461 1029 488 1029 l 389 1029 m 419 -21 q 226 1 321 -21 q 74 61 131 22 q 56 83 56 74 q 61 100 56 93 l 107 172 q 122 185 115 185 q 140 178 129 185 q 260 128 192 147 q 397 110 328 110 q 540 141 492 110 q 588 242 588 172 q 569 308 588 283 q 517 351 551 333 q 404 400 482 369 l 372 413 q 223 482 282 449 q 125 569 164 515 q 86 701 86 624 q 183 897 86 828 q 436 965 279 965 q 602 947 532 965 q 724 892 672 929 q 740 868 740 879 q 735 853 740 860 l 690 781 q 676 768 682 768 q 658 776 671 768 q 438 833 569 833 q 306 801 350 833 q 261 700 261 769 q 280 631 261 657 q 335 588 299 606 q 451 539 371 569 l 486 525 q 644 451 588 485 q 733 366 701 417 q 764 236 764 315 q 674 48 764 117 q 419 -21 585 -21 z "},"Š":{"ha":818,"x_min":56,"x_max":764,"o":"m 388 1047 q 358 1053 365 1047 q 335 1076 350 1058 l 190 1272 q 179 1299 179 1288 q 204 1317 179 1317 l 278 1317 q 311 1312 301 1317 q 332 1290 321 1307 l 428 1150 l 522 1290 q 542 1312 532 1307 q 576 1317 551 1317 l 649 1317 q 675 1299 675 1317 q 664 1272 675 1285 l 519 1076 q 498 1053 507 1058 q 467 1047 489 1047 l 388 1047 m 419 -21 q 226 1 321 -21 q 74 61 131 22 q 56 83 56 74 q 61 100 56 93 l 107 172 q 122 185 115 185 q 140 178 129 185 q 260 128 192 147 q 397 110 328 110 q 540 141 492 110 q 588 242 588 172 q 569 308 588 283 q 517 351 551 333 q 404 400 482 369 l 372 413 q 223 482 282 449 q 125 569 164 515 q 86 701 86 624 q 183 897 86 828 q 436 965 279 965 q 602 947 532 965 q 724 892 672 929 q 740 868 740 879 q 735 853 740 860 l 690 781 q 676 768 682 768 q 658 776 671 768 q 438 833 569 833 q 306 801 350 833 q 261 700 261 769 q 280 631 261 657 q 335 588 299 606 q 451 539 371 569 l 486 525 q 644 451 588 485 q 733 366 701 417 q 764 236 764 315 q 674 48 764 117 q 419 -21 585 -21 z "},"Ş":{"ha":818,"x_min":56,"x_max":764,"o":"m 510 -15 q 508 -19 510 -18 l 476 -89 q 551 -119 525 -93 q 576 -192 576 -144 q 536 -275 576 -244 q 421 -306 496 -306 q 357 -299 389 -306 q 306 -283 325 -293 q 290 -272 293 -276 q 292 -258 288 -268 l 313 -210 q 325 -199 317 -199 q 338 -204 326 -199 q 401 -218 361 -218 q 443 -209 431 -218 q 456 -178 456 -200 q 436 -142 456 -151 q 371 -133 417 -133 l 350 -133 q 335 -127 339 -133 q 336 -111 332 -121 l 372 -19 q 204 6 285 -15 q 74 61 124 26 q 56 83 56 74 q 61 100 56 93 l 106 171 q 121 183 114 183 q 139 176 128 183 q 257 127 189 144 q 397 110 325 110 q 540 141 492 110 q 588 242 588 172 q 567 315 588 288 q 506 363 547 343 q 374 417 464 383 q 224 482 283 450 q 126 568 165 514 q 86 701 86 622 q 180 896 86 826 q 424 965 274 965 q 724 892 613 965 q 740 868 740 879 q 735 853 740 860 l 690 781 q 676 768 682 768 q 658 776 671 768 q 438 833 574 833 q 309 801 356 833 q 263 700 263 769 q 281 631 263 657 q 333 588 300 604 q 438 543 367 571 q 463 533 451 538 q 486 524 475 528 q 644 451 586 485 q 733 366 701 417 q 764 236 764 315 q 699 69 764 135 q 510 -15 633 3 z "},"Ŝ":{"ha":818,"x_min":56,"x_max":764,"o":"m 206 1025 q 183 1031 192 1025 q 174 1046 174 1036 q 183 1069 174 1058 l 328 1265 q 351 1290 343 1285 q 381 1296 358 1296 l 460 1296 q 490 1290 482 1296 q 513 1265 499 1283 l 657 1069 q 667 1046 667 1058 q 658 1031 667 1036 q 636 1025 650 1025 l 571 1025 q 537 1031 547 1025 q 514 1054 526 1038 l 421 1193 l 326 1054 q 306 1031 317 1038 q 271 1025 294 1025 l 206 1025 m 419 -21 q 226 1 321 -21 q 74 61 131 22 q 56 83 56 74 q 61 100 56 93 l 107 172 q 122 185 115 185 q 140 178 129 185 q 260 128 192 147 q 397 110 328 110 q 540 141 492 110 q 588 242 588 172 q 569 308 588 283 q 517 351 551 333 q 404 400 482 369 l 372 413 q 223 482 282 449 q 125 569 164 515 q 86 701 86 624 q 183 897 86 828 q 436 965 279 965 q 602 947 532 965 q 724 892 672 929 q 740 868 740 879 q 735 853 740 860 l 690 781 q 676 768 682 768 q 658 776 671 768 q 438 833 569 833 q 306 801 350 833 q 261 700 261 769 q 280 631 261 657 q 335 588 299 606 q 451 539 371 569 l 486 525 q 644 451 588 485 q 733 366 701 417 q 764 236 764 315 q 674 48 764 117 q 419 -21 585 -21 z "},"Ș":{"ha":819,"x_min":56,"x_max":765,"o":"m 421 -21 q 226 -1 324 -21 q 74 58 129 19 q 56 81 56 71 q 63 97 56 86 l 106 167 q 119 179 113 179 q 138 172 126 179 q 257 127 185 144 q 399 110 329 110 q 541 141 493 110 q 589 242 589 172 q 566 319 589 289 q 501 369 543 349 q 375 417 458 389 q 227 481 288 447 q 127 567 167 514 q 88 701 88 621 q 177 899 88 832 q 415 965 267 965 q 594 946 515 965 q 725 892 674 926 q 742 868 742 879 q 736 853 742 860 l 693 783 q 678 771 685 771 q 661 778 672 771 q 439 833 572 833 q 264 700 264 833 q 288 623 264 651 q 351 577 313 594 q 488 524 389 560 q 646 453 589 486 q 734 369 703 421 q 765 236 765 318 q 678 48 765 117 q 421 -21 590 -21 m 288 -364 q 263 -343 263 -364 q 265 -329 263 -340 l 338 -101 q 353 -73 343 -79 q 388 -67 363 -67 l 460 -67 q 493 -87 493 -67 q 488 -112 493 -100 l 390 -340 q 374 -358 383 -353 q 349 -364 365 -364 l 288 -364 z "},"Ṡ":{"ha":818,"x_min":56,"x_max":764,"o":"m 410 1054 q 363 1074 382 1054 q 344 1124 344 1094 l 344 1150 q 363 1198 344 1178 q 410 1218 382 1218 l 439 1218 q 485 1198 467 1218 q 504 1150 504 1178 l 504 1124 q 486 1074 504 1094 q 439 1054 468 1054 l 410 1054 m 419 -21 q 226 1 321 -21 q 74 61 131 22 q 56 83 56 74 q 61 100 56 93 l 107 172 q 122 185 115 185 q 140 178 129 185 q 260 128 192 147 q 397 110 328 110 q 540 141 492 110 q 588 242 588 172 q 569 308 588 283 q 517 351 551 333 q 404 400 482 369 l 372 413 q 223 482 282 449 q 125 569 164 515 q 86 701 86 624 q 183 897 86 828 q 436 965 279 965 q 602 947 532 965 q 724 892 672 929 q 740 868 740 879 q 735 853 740 860 l 690 781 q 676 768 682 768 q 658 776 671 768 q 438 833 569 833 q 306 801 350 833 q 261 700 261 769 q 280 631 261 657 q 335 588 299 606 q 451 539 371 569 l 486 525 q 644 451 588 485 q 733 366 701 417 q 764 236 764 315 q 674 48 764 117 q 419 -21 585 -21 z "},"Ṣ":{"ha":818,"x_min":56,"x_max":764,"o":"m 419 -21 q 226 1 321 -21 q 74 61 131 22 q 56 83 56 74 q 61 100 56 93 l 107 172 q 122 185 115 185 q 140 178 129 185 q 260 128 192 147 q 397 110 328 110 q 540 141 492 110 q 588 242 588 172 q 569 308 588 283 q 517 351 551 333 q 404 400 482 369 l 372 413 q 223 482 282 449 q 125 569 164 515 q 86 701 86 624 q 183 897 86 828 q 436 965 279 965 q 602 947 532 965 q 724 892 672 929 q 740 868 740 879 q 735 853 740 860 l 690 781 q 676 768 682 768 q 658 776 671 768 q 438 833 569 833 q 306 801 350 833 q 261 700 261 769 q 280 631 261 657 q 335 588 299 606 q 451 539 371 569 l 486 525 q 644 451 588 485 q 733 366 701 417 q 764 236 764 315 q 674 48 764 117 q 419 -21 585 -21 m 413 -256 q 366 -235 385 -256 q 347 -186 347 -215 l 347 -160 q 366 -112 347 -132 q 413 -92 385 -92 l 440 -92 q 488 -111 469 -92 q 506 -160 506 -131 l 506 -186 q 488 -235 506 -215 q 440 -256 469 -256 l 413 -256 z "},"ẞ":{"ha":882,"x_min":82,"x_max":856,"o":"m 568 -21 q 332 40 425 -21 q 319 60 319 47 q 325 79 319 69 l 363 142 q 376 153 369 153 q 389 149 382 153 q 452 120 415 131 q 531 110 489 110 q 641 151 603 110 q 679 264 679 193 q 640 382 679 346 q 513 418 601 418 l 422 418 q 396 426 404 418 q 388 451 388 433 l 388 478 q 392 504 388 494 q 410 525 396 514 l 631 692 q 583 776 631 744 q 447 808 536 808 q 260 619 260 808 l 260 50 q 247 13 260 25 q 206 0 235 0 l 133 0 q 94 13 106 0 q 82 50 82 25 l 82 640 q 173 877 82 789 q 447 965 264 965 q 715 887 624 965 q 807 679 807 808 l 579 500 l 606 500 q 794 436 732 500 q 856 257 856 372 q 781 56 856 133 q 568 -21 706 -21 z "},"Ə":{"ha":986,"x_min":54,"x_max":932,"o":"m 485 -21 q 54 474 54 -21 q 97 522 54 522 l 763 522 q 689 758 763 682 q 444 833 615 833 q 190 775 310 833 q 171 768 176 768 q 156 781 164 768 l 117 847 q 110 867 110 858 q 122 886 110 881 q 276 945 185 925 q 471 965 368 965 q 813 837 693 965 q 932 481 932 708 q 819 110 932 240 q 485 -21 706 -21 m 485 110 q 690 190 618 110 q 763 407 763 269 l 215 407 q 283 187 215 264 q 485 110 350 110 z "},"T":{"ha":815,"x_min":26,"x_max":789,"o":"m 371 0 q 331 13 343 0 q 318 50 318 25 l 318 808 l 75 808 q 37 819 47 808 q 26 857 26 831 l 26 894 q 37 933 26 921 q 75 944 47 944 l 739 944 q 778 933 767 944 q 789 894 789 921 l 789 857 q 778 819 789 831 q 739 808 767 808 l 496 808 l 496 50 q 484 13 496 25 q 443 0 472 0 l 371 0 z "},"Ŧ":{"ha":815,"x_min":26,"x_max":789,"o":"m 739 944 q 778 933 767 944 q 789 894 789 921 l 789 857 q 778 819 789 831 q 739 808 767 808 l 496 808 l 496 592 l 596 592 q 635 580 624 592 q 646 542 646 568 l 646 506 q 635 468 646 479 q 596 457 624 457 l 496 457 l 496 50 q 484 13 496 25 q 443 0 472 0 l 371 0 q 331 13 343 0 q 318 50 318 25 l 318 457 l 215 457 q 177 468 188 457 q 167 506 167 479 l 167 542 q 177 580 167 568 q 215 592 188 592 l 318 592 l 318 808 l 75 808 q 37 819 47 808 q 26 857 26 831 l 26 894 q 37 933 26 921 q 75 944 47 944 l 739 944 z "},"Ť":{"ha":815,"x_min":26,"x_max":789,"o":"m 369 1031 q 340 1036 347 1031 q 317 1060 332 1042 l 172 1256 q 161 1282 161 1271 q 186 1300 161 1300 l 260 1300 q 293 1295 283 1300 q 314 1274 303 1290 l 410 1133 l 504 1274 q 524 1295 514 1290 q 558 1300 533 1300 l 631 1300 q 657 1282 657 1300 q 646 1256 657 1268 l 501 1060 q 480 1036 489 1042 q 449 1031 471 1031 l 369 1031 m 371 0 q 331 13 343 0 q 318 50 318 25 l 318 808 l 75 808 q 37 819 47 808 q 26 857 26 831 l 26 894 q 37 933 26 921 q 75 944 47 944 l 739 944 q 778 933 767 944 q 789 894 789 921 l 789 857 q 778 819 789 831 q 739 808 767 808 l 496 808 l 496 50 q 484 13 496 25 q 443 0 472 0 l 371 0 z "},"Ţ":{"ha":815,"x_min":26,"x_max":789,"o":"m 739 944 q 778 933 767 944 q 789 894 789 921 l 789 857 q 778 819 789 831 q 739 808 767 808 l 496 808 l 496 50 q 483 11 496 24 l 483 8 q 481 -4 483 7 l 449 -74 q 549 -176 549 -82 q 508 -260 549 -229 q 393 -292 468 -292 q 329 -285 361 -292 q 279 -268 297 -278 q 264 -257 267 -261 q 265 -243 261 -253 l 285 -194 q 296 -185 289 -185 q 310 -189 301 -185 q 374 -204 338 -204 q 415 -194 403 -204 q 428 -164 428 -185 q 408 -127 428 -136 q 344 -118 389 -118 l 324 -118 q 309 -112 313 -118 q 310 -96 306 -106 l 347 -1 l 349 3 q 318 50 318 11 l 318 808 l 75 808 q 37 819 47 808 q 26 857 26 831 l 26 894 q 37 933 26 921 q 75 944 47 944 l 739 944 z "},"Ț":{"ha":815,"x_min":26,"x_max":789,"o":"m 371 0 q 331 13 343 0 q 318 50 318 25 l 318 808 l 75 808 q 37 819 47 808 q 26 857 26 831 l 26 894 q 37 933 26 921 q 75 944 47 944 l 739 944 q 778 933 767 944 q 789 894 789 921 l 789 857 q 778 819 789 831 q 739 808 767 808 l 496 808 l 496 50 q 484 13 496 25 q 443 0 472 0 l 371 0 m 286 -331 q 261 -311 261 -331 q 264 -296 261 -307 l 328 -86 q 344 -57 333 -64 q 378 -50 354 -50 l 450 -50 q 485 -71 485 -50 q 478 -96 485 -78 l 388 -307 q 347 -331 379 -331 l 286 -331 z "},"Ṭ":{"ha":815,"x_min":26,"x_max":789,"o":"m 371 0 q 331 13 343 0 q 318 50 318 25 l 318 808 l 75 808 q 37 819 47 808 q 26 857 26 831 l 26 894 q 37 933 26 921 q 75 944 47 944 l 739 944 q 778 933 767 944 q 789 894 789 921 l 789 857 q 778 819 789 831 q 739 808 767 808 l 496 808 l 496 50 q 484 13 496 25 q 443 0 472 0 l 371 0 m 400 -256 q 353 -235 372 -256 q 335 -186 335 -215 l 335 -160 q 353 -112 335 -132 q 400 -92 372 -92 l 428 -92 q 475 -111 457 -92 q 493 -160 493 -131 l 493 -186 q 475 -235 493 -215 q 428 -256 457 -256 l 400 -256 z "},"Ṯ":{"ha":815,"x_min":26,"x_max":789,"o":"m 371 0 q 331 13 343 0 q 318 50 318 25 l 318 808 l 75 808 q 37 819 47 808 q 26 857 26 831 l 26 894 q 37 933 26 921 q 75 944 47 944 l 739 944 q 778 933 767 944 q 789 894 789 921 l 789 857 q 778 819 789 831 q 739 808 767 808 l 496 808 l 496 50 q 484 13 496 25 q 443 0 472 0 l 371 0 m 225 -224 q 186 -212 197 -224 q 175 -175 175 -201 l 175 -149 q 186 -110 175 -122 q 225 -99 197 -99 l 586 -99 q 625 -110 614 -99 q 636 -149 636 -122 l 636 -175 q 625 -212 636 -201 q 586 -224 614 -224 l 225 -224 z "},"U":{"ha":994,"x_min":75,"x_max":919,"o":"m 497 -21 q 276 22 372 -21 q 128 144 181 64 q 75 333 75 225 l 75 893 q 87 932 75 919 q 126 944 99 944 l 200 944 q 240 932 228 944 q 253 893 253 919 l 253 329 q 316 165 253 221 q 497 110 379 110 q 677 165 614 110 q 740 329 740 221 l 740 893 q 753 932 740 919 q 793 944 765 944 l 865 944 q 919 893 919 944 l 919 333 q 866 145 919 225 q 717 22 813 65 q 497 -21 621 -21 z "},"Ú":{"ha":994,"x_min":75,"x_max":919,"o":"m 454 1046 q 425 1068 425 1046 q 428 1085 425 1079 l 493 1267 q 510 1293 501 1286 q 544 1300 519 1300 l 647 1300 q 682 1276 682 1300 q 676 1256 682 1267 l 585 1076 q 564 1052 575 1058 q 526 1046 553 1046 l 454 1046 m 497 -21 q 276 22 372 -21 q 128 144 181 64 q 75 333 75 225 l 75 893 q 87 932 75 919 q 126 944 99 944 l 200 944 q 240 932 228 944 q 253 893 253 919 l 253 329 q 316 165 253 221 q 497 110 379 110 q 677 165 614 110 q 740 329 740 221 l 740 893 q 753 932 740 919 q 793 944 765 944 l 865 944 q 919 893 919 944 l 919 333 q 866 145 919 225 q 717 22 813 65 q 497 -21 621 -21 z "},"Ŭ":{"ha":994,"x_min":75,"x_max":919,"o":"m 499 1033 q 327 1095 385 1033 q 269 1260 269 1157 q 276 1278 269 1271 q 292 1285 282 1285 l 383 1285 q 402 1278 397 1285 q 407 1258 407 1272 q 427 1181 407 1208 q 499 1154 447 1154 q 569 1181 549 1154 q 590 1258 590 1208 q 595 1278 590 1272 q 614 1285 600 1285 l 706 1285 q 722 1278 715 1285 q 728 1260 728 1271 q 669 1096 728 1158 q 499 1033 610 1033 m 497 -21 q 276 22 372 -21 q 128 144 181 64 q 75 333 75 225 l 75 893 q 87 932 75 919 q 126 944 99 944 l 200 944 q 240 932 228 944 q 253 893 253 919 l 253 329 q 316 165 253 221 q 497 110 379 110 q 677 165 614 110 q 740 329 740 221 l 740 893 q 753 932 740 919 q 793 944 765 944 l 865 944 q 919 893 919 944 l 919 333 q 866 145 919 225 q 717 22 813 65 q 497 -21 621 -21 z "},"Ǔ":{"ha":994,"x_min":75,"x_max":919,"o":"m 457 1031 q 427 1036 435 1031 q 404 1060 419 1042 l 260 1256 q 249 1282 249 1271 q 274 1300 249 1300 l 347 1300 q 381 1295 371 1300 q 401 1274 390 1290 l 497 1133 l 592 1274 q 611 1295 601 1290 q 646 1300 621 1300 l 718 1300 q 744 1282 744 1300 q 733 1256 744 1268 l 589 1060 q 567 1036 576 1042 q 536 1031 558 1031 l 457 1031 m 497 -21 q 276 22 372 -21 q 128 144 181 64 q 75 333 75 225 l 75 893 q 87 932 75 919 q 126 944 99 944 l 200 944 q 240 932 228 944 q 253 893 253 919 l 253 329 q 316 165 253 221 q 497 110 379 110 q 677 165 614 110 q 740 329 740 221 l 740 893 q 753 932 740 919 q 793 944 765 944 l 865 944 q 919 893 919 944 l 919 333 q 866 145 919 225 q 717 22 813 65 q 497 -21 621 -21 z "},"Û":{"ha":994,"x_min":75,"x_max":919,"o":"m 283 1042 q 260 1047 269 1042 q 251 1063 251 1053 q 261 1086 251 1075 l 406 1282 q 428 1307 421 1301 q 458 1313 436 1313 l 538 1313 q 568 1306 560 1313 q 590 1282 576 1300 l 735 1086 q 744 1063 744 1075 q 736 1047 744 1053 q 714 1042 728 1042 l 649 1042 q 615 1048 625 1042 q 592 1071 604 1054 l 499 1210 l 404 1071 q 383 1048 394 1054 q 349 1042 372 1042 l 283 1042 m 497 -21 q 276 22 372 -21 q 128 144 181 64 q 75 333 75 225 l 75 893 q 87 932 75 919 q 126 944 99 944 l 200 944 q 240 932 228 944 q 253 893 253 919 l 253 329 q 316 165 253 221 q 497 110 379 110 q 677 165 614 110 q 740 329 740 221 l 740 893 q 753 932 740 919 q 793 944 765 944 l 865 944 q 919 893 919 944 l 919 333 q 866 145 919 225 q 717 22 813 65 q 497 -21 621 -21 z "},"Ü":{"ha":994,"x_min":75,"x_max":919,"o":"m 346 1029 q 299 1049 317 1029 q 281 1099 281 1069 l 281 1125 q 299 1174 281 1154 q 346 1193 317 1193 l 374 1193 q 421 1174 403 1193 q 439 1125 439 1154 l 439 1099 q 421 1049 439 1069 q 374 1029 403 1029 l 346 1029 m 619 1029 q 573 1049 592 1029 q 554 1099 554 1069 l 554 1125 q 573 1173 554 1153 q 619 1193 592 1193 l 647 1193 q 694 1174 676 1193 q 713 1125 713 1154 l 713 1099 q 694 1049 713 1069 q 647 1029 676 1029 l 619 1029 m 497 -21 q 276 22 372 -21 q 128 144 181 64 q 75 333 75 225 l 75 893 q 87 932 75 919 q 126 944 99 944 l 200 944 q 240 932 228 944 q 253 893 253 919 l 253 329 q 316 165 253 221 q 497 110 379 110 q 677 165 614 110 q 740 329 740 221 l 740 893 q 753 932 740 919 q 793 944 765 944 l 865 944 q 919 893 919 944 l 919 333 q 866 145 919 225 q 717 22 813 65 q 497 -21 621 -21 z "},"Ǘ":{"ha":994,"x_min":75,"x_max":919,"o":"m 469 1243 q 443 1264 443 1243 q 446 1278 443 1269 l 494 1413 q 510 1439 501 1432 q 542 1446 518 1446 l 611 1446 q 640 1425 640 1446 q 633 1403 640 1417 l 565 1274 q 544 1249 554 1254 q 511 1243 535 1243 l 469 1243 m 342 1061 q 295 1081 314 1061 q 276 1131 276 1101 l 276 1157 q 295 1205 276 1185 q 342 1225 314 1225 l 369 1225 q 417 1206 399 1225 q 435 1157 435 1186 l 435 1131 q 417 1081 435 1101 q 369 1061 399 1061 l 342 1061 m 625 1061 q 578 1081 596 1061 q 560 1131 560 1101 l 560 1157 q 578 1206 560 1186 q 625 1225 596 1225 l 653 1225 q 699 1205 681 1225 q 718 1157 718 1185 l 718 1131 q 700 1081 718 1101 q 653 1061 682 1061 l 625 1061 m 497 -21 q 276 22 372 -21 q 128 144 181 64 q 75 333 75 225 l 75 893 q 87 932 75 919 q 126 944 99 944 l 200 944 q 240 932 228 944 q 253 893 253 919 l 253 329 q 316 165 253 221 q 497 110 379 110 q 677 165 614 110 q 740 329 740 221 l 740 893 q 753 932 740 919 q 793 944 765 944 l 865 944 q 919 893 919 944 l 919 333 q 866 145 919 225 q 717 22 813 65 q 497 -21 621 -21 z "},"Ǚ":{"ha":994,"x_min":75,"x_max":919,"o":"m 461 1249 q 430 1254 439 1249 q 406 1278 421 1260 l 250 1461 q 244 1474 244 1467 q 261 1488 244 1488 l 360 1488 q 378 1485 372 1488 q 389 1476 383 1483 l 492 1349 l 596 1476 q 607 1485 601 1483 q 625 1488 613 1488 l 724 1488 q 740 1474 740 1488 q 735 1461 740 1467 l 579 1278 q 556 1254 565 1260 q 524 1249 546 1249 l 461 1249 m 340 1061 q 293 1081 311 1061 q 275 1131 275 1101 l 275 1157 q 294 1205 275 1185 q 340 1225 313 1225 l 368 1225 q 415 1206 397 1225 q 433 1157 433 1186 l 433 1131 q 415 1081 433 1101 q 368 1061 397 1061 l 340 1061 m 624 1061 q 576 1081 594 1061 q 558 1131 558 1101 l 558 1157 q 576 1206 558 1186 q 624 1225 594 1225 l 651 1225 q 698 1205 679 1225 q 717 1157 717 1185 l 717 1131 q 698 1081 717 1101 q 651 1061 679 1061 l 624 1061 m 497 -21 q 276 22 372 -21 q 128 144 181 64 q 75 333 75 225 l 75 893 q 87 932 75 919 q 126 944 99 944 l 200 944 q 240 932 228 944 q 253 893 253 919 l 253 329 q 316 165 253 221 q 497 110 379 110 q 677 165 614 110 q 740 329 740 221 l 740 893 q 753 932 740 919 q 793 944 765 944 l 865 944 q 919 893 919 944 l 919 333 q 866 145 919 225 q 717 22 813 65 q 497 -21 621 -21 z "},"Ǜ":{"ha":994,"x_min":75,"x_max":919,"o":"m 483 1242 q 450 1247 460 1242 q 429 1272 440 1253 l 363 1400 q 356 1422 356 1414 q 385 1443 356 1443 l 453 1443 q 485 1436 476 1443 q 500 1410 493 1429 l 547 1276 q 550 1263 550 1268 q 524 1242 550 1242 l 483 1242 m 343 1063 q 297 1082 314 1063 q 279 1131 279 1101 l 279 1157 q 297 1204 279 1185 q 343 1224 315 1224 l 371 1224 q 417 1204 399 1224 q 435 1157 435 1185 l 435 1131 q 417 1082 435 1101 q 371 1063 399 1063 l 343 1063 m 622 1063 q 576 1082 593 1063 q 558 1131 558 1101 l 558 1157 q 576 1204 558 1185 q 622 1224 594 1224 l 650 1224 q 697 1204 678 1224 q 715 1157 715 1185 l 715 1131 q 697 1083 715 1103 q 650 1063 678 1063 l 622 1063 m 497 -21 q 276 22 372 -21 q 128 144 181 64 q 75 333 75 225 l 75 893 q 87 932 75 919 q 126 944 99 944 l 200 944 q 240 932 228 944 q 253 893 253 919 l 253 329 q 316 165 253 221 q 497 110 379 110 q 677 165 614 110 q 740 329 740 221 l 740 893 q 753 932 740 919 q 793 944 765 944 l 865 944 q 919 893 919 944 l 919 333 q 866 145 919 225 q 717 22 813 65 q 497 -21 621 -21 z "},"Ǖ":{"ha":994,"x_min":75,"x_max":919,"o":"m 306 1279 q 267 1290 278 1279 q 256 1328 256 1301 l 256 1364 q 267 1402 256 1390 q 306 1414 278 1414 l 685 1414 q 724 1402 713 1414 q 735 1364 735 1390 l 735 1328 q 724 1290 735 1301 q 685 1279 713 1279 l 306 1279 m 347 1035 q 300 1055 318 1035 q 282 1104 282 1075 l 282 1131 q 300 1179 282 1160 q 347 1199 318 1199 l 375 1199 q 422 1179 404 1199 q 440 1131 440 1160 l 440 1104 q 422 1055 440 1075 q 375 1035 404 1035 l 347 1035 m 621 1035 q 574 1055 593 1035 q 556 1104 556 1075 l 556 1131 q 574 1178 556 1158 q 621 1199 593 1199 l 649 1199 q 696 1179 678 1199 q 714 1131 714 1160 l 714 1104 q 696 1055 714 1075 q 649 1035 678 1035 l 621 1035 m 497 -21 q 276 22 372 -21 q 128 144 181 64 q 75 333 75 225 l 75 893 q 87 932 75 919 q 126 944 99 944 l 200 944 q 240 932 228 944 q 253 893 253 919 l 253 329 q 316 165 253 221 q 497 110 379 110 q 677 165 614 110 q 740 329 740 221 l 740 893 q 753 932 740 919 q 793 944 765 944 l 865 944 q 919 893 919 944 l 919 333 q 866 145 919 225 q 717 22 813 65 q 497 -21 621 -21 z "},"Ụ":{"ha":994,"x_min":75,"x_max":919,"o":"m 497 -21 q 276 22 372 -21 q 128 144 181 64 q 75 333 75 225 l 75 893 q 87 932 75 919 q 126 944 99 944 l 200 944 q 240 932 228 944 q 253 893 253 919 l 253 329 q 316 165 253 221 q 497 110 379 110 q 677 165 614 110 q 740 329 740 221 l 740 893 q 753 932 740 919 q 793 944 765 944 l 865 944 q 919 893 919 944 l 919 333 q 866 145 919 225 q 717 22 813 65 q 497 -21 621 -21 m 482 -256 q 435 -235 454 -256 q 417 -186 417 -215 l 417 -160 q 435 -112 417 -132 q 482 -92 454 -92 l 510 -92 q 557 -111 539 -92 q 575 -160 575 -131 l 575 -186 q 557 -235 575 -215 q 510 -256 539 -256 l 482 -256 z "},"Ù":{"ha":994,"x_min":75,"x_max":919,"o":"m 493 1046 q 457 1052 468 1046 q 436 1076 446 1058 l 344 1256 q 339 1276 339 1267 q 374 1300 339 1300 l 475 1300 q 510 1293 501 1300 q 526 1267 519 1286 l 593 1085 q 596 1068 596 1079 q 565 1046 596 1046 l 493 1046 m 497 -21 q 276 22 372 -21 q 128 144 181 64 q 75 333 75 225 l 75 893 q 87 932 75 919 q 126 944 99 944 l 200 944 q 240 932 228 944 q 253 893 253 919 l 253 329 q 316 165 253 221 q 497 110 379 110 q 677 165 614 110 q 740 329 740 221 l 740 893 q 753 932 740 919 q 793 944 765 944 l 865 944 q 919 893 919 944 l 919 333 q 866 145 919 225 q 717 22 813 65 q 497 -21 621 -21 z "},"Ủ":{"ha":994,"x_min":75,"x_max":919,"o":"m 458 1015 q 426 1047 426 1015 l 426 1110 q 438 1142 426 1132 q 475 1153 449 1153 q 541 1165 524 1153 q 558 1206 558 1176 q 542 1240 558 1229 q 486 1251 525 1251 q 382 1225 435 1251 q 368 1228 372 1221 l 339 1292 q 338 1299 338 1294 q 344 1308 338 1303 q 415 1337 372 1326 q 501 1347 458 1347 q 639 1312 593 1347 q 685 1211 685 1276 q 644 1114 685 1150 q 549 1078 604 1078 l 549 1047 q 517 1015 549 1015 l 458 1015 m 497 -21 q 276 22 372 -21 q 128 144 181 64 q 75 333 75 225 l 75 893 q 87 932 75 919 q 126 944 99 944 l 200 944 q 240 932 228 944 q 253 893 253 919 l 253 329 q 316 165 253 221 q 497 110 379 110 q 677 165 614 110 q 740 329 740 221 l 740 893 q 753 932 740 919 q 793 944 765 944 l 865 944 q 919 893 919 944 l 919 333 q 866 145 919 225 q 717 22 813 65 q 497 -21 621 -21 z "},"Ư":{"ha":1176,"x_min":75,"x_max":1164,"o":"m 497 -21 q 276 22 372 -21 q 128 144 181 64 q 75 333 75 225 l 75 893 q 87 932 75 919 q 126 944 99 944 l 200 944 q 240 932 228 944 q 253 893 253 919 l 253 329 q 320 166 253 222 q 497 110 388 110 q 673 166 606 110 q 740 329 740 222 l 740 893 q 793 944 740 944 l 867 944 q 906 932 894 944 q 918 893 918 919 l 918 858 q 990 899 968 865 q 1013 1003 1013 932 q 1019 1032 1013 1024 q 1042 1040 1025 1040 l 1133 1040 q 1157 1032 1150 1040 q 1164 1003 1164 1024 q 919 729 1164 747 l 919 333 q 866 145 919 225 q 717 22 813 65 q 497 -21 621 -21 z "},"Ứ":{"ha":1176,"x_min":75,"x_max":1164,"o":"m 436 1013 q 407 1035 407 1013 q 410 1051 407 1046 l 475 1233 q 492 1260 483 1253 q 526 1267 501 1267 l 629 1267 q 664 1243 664 1267 q 658 1222 664 1233 l 567 1043 q 546 1019 557 1025 q 508 1013 535 1013 l 436 1013 m 497 -21 q 276 22 372 -21 q 128 144 181 64 q 75 333 75 225 l 75 893 q 87 932 75 919 q 126 944 99 944 l 200 944 q 240 932 228 944 q 253 893 253 919 l 253 329 q 320 166 253 222 q 497 110 388 110 q 673 166 606 110 q 740 329 740 222 l 740 893 q 793 944 740 944 l 867 944 q 906 932 894 944 q 918 893 918 919 l 918 858 q 990 899 968 865 q 1013 1003 1013 932 q 1019 1032 1013 1024 q 1042 1040 1025 1040 l 1133 1040 q 1157 1032 1150 1040 q 1164 1003 1164 1024 q 919 729 1164 747 l 919 333 q 866 145 919 225 q 717 22 813 65 q 497 -21 621 -21 z "},"Ự":{"ha":1176,"x_min":75,"x_max":1164,"o":"m 497 -21 q 276 22 372 -21 q 128 144 181 64 q 75 333 75 225 l 75 893 q 87 932 75 919 q 126 944 99 944 l 200 944 q 240 932 228 944 q 253 893 253 919 l 253 329 q 320 166 253 222 q 497 110 388 110 q 673 166 606 110 q 740 329 740 222 l 740 893 q 793 944 740 944 l 867 944 q 906 932 894 944 q 918 893 918 919 l 918 858 q 990 899 968 865 q 1013 1003 1013 932 q 1019 1032 1013 1024 q 1042 1040 1025 1040 l 1133 1040 q 1157 1032 1150 1040 q 1164 1003 1164 1024 q 919 729 1164 747 l 919 333 q 866 145 919 225 q 717 22 813 65 q 497 -21 621 -21 m 488 -256 q 441 -235 460 -256 q 422 -186 422 -215 l 422 -160 q 441 -112 422 -132 q 488 -92 460 -92 l 515 -92 q 563 -111 544 -92 q 581 -160 581 -131 l 581 -186 q 563 -235 581 -215 q 515 -256 544 -256 l 488 -256 z "},"Ừ":{"ha":1176,"x_min":75,"x_max":1164,"o":"m 492 1013 q 456 1019 467 1013 q 435 1043 444 1025 l 343 1222 q 338 1243 338 1233 q 372 1267 338 1267 l 474 1267 q 509 1260 500 1267 q 525 1233 518 1253 l 592 1051 q 594 1035 594 1046 q 564 1013 594 1013 l 492 1013 m 497 -21 q 276 22 372 -21 q 128 144 181 64 q 75 333 75 225 l 75 893 q 87 932 75 919 q 126 944 99 944 l 200 944 q 240 932 228 944 q 253 893 253 919 l 253 329 q 320 166 253 222 q 497 110 388 110 q 673 166 606 110 q 740 329 740 222 l 740 893 q 793 944 740 944 l 867 944 q 906 932 894 944 q 918 893 918 919 l 918 858 q 990 899 968 865 q 1013 1003 1013 932 q 1019 1032 1013 1024 q 1042 1040 1025 1040 l 1133 1040 q 1157 1032 1150 1040 q 1164 1003 1164 1024 q 919 729 1164 747 l 919 333 q 866 145 919 225 q 717 22 813 65 q 497 -21 621 -21 z "},"Ử":{"ha":1176,"x_min":75,"x_max":1164,"o":"m 461 1015 q 429 1047 429 1015 l 429 1110 q 440 1142 429 1132 q 478 1153 451 1153 q 544 1165 526 1153 q 561 1206 561 1176 q 544 1240 561 1229 q 489 1251 528 1251 q 385 1225 438 1251 q 371 1228 375 1221 l 342 1292 q 340 1299 340 1294 q 347 1308 340 1303 q 418 1337 375 1326 q 504 1347 461 1347 q 642 1312 596 1347 q 688 1211 688 1276 q 647 1114 688 1150 q 551 1078 607 1078 l 551 1047 q 519 1015 551 1015 l 461 1015 m 497 -21 q 276 22 372 -21 q 128 144 181 64 q 75 333 75 225 l 75 893 q 87 932 75 919 q 126 944 99 944 l 200 944 q 240 932 228 944 q 253 893 253 919 l 253 329 q 320 166 253 222 q 497 110 388 110 q 673 166 606 110 q 740 329 740 222 l 740 893 q 793 944 740 944 l 867 944 q 906 932 894 944 q 918 893 918 919 l 918 858 q 990 899 968 865 q 1013 1003 1013 932 q 1019 1032 1013 1024 q 1042 1040 1025 1040 l 1133 1040 q 1157 1032 1150 1040 q 1164 1003 1164 1024 q 919 729 1164 747 l 919 333 q 866 145 919 225 q 717 22 813 65 q 497 -21 621 -21 z "},"Ữ":{"ha":1176,"x_min":75,"x_max":1164,"o":"m 651 1031 q 588 1041 619 1031 q 515 1071 557 1051 q 453 1097 475 1089 q 408 1104 432 1104 q 365 1094 381 1104 q 326 1060 350 1085 q 301 1046 317 1046 q 253 1072 283 1046 q 228 1111 228 1096 q 243 1146 228 1126 q 311 1211 276 1189 q 393 1233 346 1233 q 465 1223 433 1233 q 540 1193 497 1213 q 595 1169 572 1178 q 642 1161 618 1161 q 688 1172 669 1161 q 728 1213 706 1183 q 756 1228 739 1228 q 803 1206 775 1228 q 833 1163 833 1181 q 819 1129 833 1147 q 747 1053 785 1076 q 651 1031 710 1031 m 497 -21 q 276 22 372 -21 q 128 144 181 64 q 75 333 75 225 l 75 893 q 87 932 75 919 q 126 944 99 944 l 200 944 q 240 932 228 944 q 253 893 253 919 l 253 329 q 320 166 253 222 q 497 110 388 110 q 673 166 606 110 q 740 329 740 222 l 740 893 q 793 944 740 944 l 867 944 q 906 932 894 944 q 918 893 918 919 l 918 858 q 990 899 968 865 q 1013 1003 1013 932 q 1019 1032 1013 1024 q 1042 1040 1025 1040 l 1133 1040 q 1157 1032 1150 1040 q 1164 1003 1164 1024 q 919 729 1164 747 l 919 333 q 866 145 919 225 q 717 22 813 65 q 497 -21 621 -21 z "},"Ű":{"ha":1011,"x_min":75,"x_max":919,"o":"m 311 1035 q 281 1057 281 1035 q 285 1074 281 1064 l 375 1256 q 394 1282 385 1275 q 426 1289 403 1289 l 518 1289 q 544 1283 533 1289 q 554 1267 554 1276 q 546 1244 554 1257 l 431 1065 q 407 1040 417 1046 q 372 1035 397 1035 l 311 1035 m 589 1035 q 557 1057 557 1035 q 561 1074 557 1065 l 651 1256 q 670 1282 661 1275 q 704 1289 679 1289 l 794 1289 q 821 1283 811 1289 q 831 1265 831 1276 q 824 1244 831 1256 l 707 1065 q 684 1041 694 1047 q 649 1035 674 1035 l 589 1035 m 497 -21 q 276 22 372 -21 q 128 144 181 64 q 75 333 75 225 l 75 893 q 87 932 75 919 q 126 944 99 944 l 200 944 q 240 932 228 944 q 253 893 253 919 l 253 329 q 316 165 253 221 q 497 110 379 110 q 677 165 614 110 q 740 329 740 221 l 740 893 q 753 932 740 919 q 793 944 765 944 l 865 944 q 919 893 919 944 l 919 333 q 866 145 919 225 q 717 22 813 65 q 497 -21 621 -21 z "},"Ū":{"ha":994,"x_min":75,"x_max":919,"o":"m 310 1063 q 271 1074 282 1063 q 260 1111 260 1085 l 260 1147 q 271 1185 260 1174 q 310 1197 282 1197 l 689 1197 q 728 1185 717 1197 q 739 1147 739 1174 l 739 1111 q 728 1074 739 1085 q 689 1063 717 1063 l 310 1063 m 497 -21 q 276 22 372 -21 q 128 144 181 64 q 75 333 75 225 l 75 893 q 87 932 75 919 q 126 944 99 944 l 200 944 q 240 932 228 944 q 253 893 253 919 l 253 329 q 316 165 253 221 q 497 110 379 110 q 677 165 614 110 q 740 329 740 221 l 740 893 q 753 932 740 919 q 793 944 765 944 l 865 944 q 919 893 919 944 l 919 333 q 866 145 919 225 q 717 22 813 65 q 497 -21 621 -21 z "},"Ų":{"ha":994,"x_min":75,"x_max":919,"o":"m 865 944 q 919 893 919 944 l 919 333 q 829 99 919 190 q 586 -15 739 7 q 582 -24 586 -19 q 517 -112 533 -82 q 500 -174 500 -143 q 533 -211 500 -211 q 564 -206 553 -211 q 574 -203 572 -203 q 583 -212 579 -203 l 604 -258 q 607 -267 607 -264 q 590 -282 607 -275 q 488 -299 557 -299 q 397 -268 428 -299 q 367 -190 367 -237 q 387 -111 367 -151 q 451 -19 407 -71 q 178 86 281 -8 q 75 333 75 181 l 75 893 q 87 932 75 919 q 126 944 99 944 l 200 944 q 240 932 228 944 q 253 893 253 919 l 253 329 q 316 165 253 221 q 497 110 379 110 q 677 165 614 110 q 740 329 740 221 l 740 893 q 753 932 740 919 q 793 944 765 944 l 865 944 z "},"Ů":{"ha":994,"x_min":75,"x_max":919,"o":"m 503 1004 q 388 1051 435 1004 q 340 1167 340 1099 q 388 1282 340 1235 q 503 1329 435 1329 q 618 1282 571 1329 q 665 1167 665 1235 q 618 1051 665 1099 q 503 1004 571 1004 m 503 1092 q 555 1114 533 1092 q 576 1167 576 1136 q 555 1219 576 1197 q 503 1240 533 1240 q 450 1219 472 1240 q 428 1167 428 1197 q 450 1114 428 1136 q 503 1092 472 1092 m 497 -21 q 276 22 372 -21 q 128 144 181 64 q 75 333 75 225 l 75 893 q 87 932 75 919 q 126 944 99 944 l 200 944 q 240 932 228 944 q 253 893 253 919 l 253 329 q 316 165 253 221 q 497 110 379 110 q 677 165 614 110 q 740 329 740 221 l 740 893 q 753 932 740 919 q 793 944 765 944 l 865 944 q 919 893 919 944 l 919 333 q 866 145 919 225 q 717 22 813 65 q 497 -21 621 -21 z "},"Ũ":{"ha":994,"x_min":75,"x_max":919,"o":"m 646 1047 q 583 1058 614 1047 q 510 1088 551 1068 q 448 1113 469 1106 q 403 1121 426 1121 q 360 1111 375 1121 q 321 1076 344 1101 q 296 1063 311 1063 q 247 1089 278 1063 q 222 1128 222 1113 q 238 1163 222 1143 q 306 1228 271 1206 q 388 1250 340 1250 q 460 1240 428 1250 q 535 1210 492 1229 q 590 1186 567 1194 q 636 1178 613 1178 q 682 1189 664 1178 q 722 1229 700 1200 q 750 1244 733 1244 q 797 1222 769 1244 q 828 1179 828 1197 q 814 1146 828 1164 q 742 1070 779 1093 q 646 1047 704 1047 m 497 -21 q 276 22 372 -21 q 128 144 181 64 q 75 333 75 225 l 75 893 q 87 932 75 919 q 126 944 99 944 l 200 944 q 240 932 228 944 q 253 893 253 919 l 253 329 q 316 165 253 221 q 497 110 379 110 q 677 165 614 110 q 740 329 740 221 l 740 893 q 753 932 740 919 q 793 944 765 944 l 865 944 q 919 893 919 944 l 919 333 q 866 145 919 225 q 717 22 813 65 q 497 -21 621 -21 z "},"V":{"ha":1006,"x_min":54,"x_max":951,"o":"m 465 0 q 437 7 446 0 q 419 35 428 14 l 58 906 q 54 922 54 914 q 60 938 54 932 q 78 944 67 944 l 197 944 q 225 938 215 944 q 240 915 235 931 l 503 249 l 765 915 q 781 938 771 931 q 808 944 790 944 l 928 944 q 945 938 939 944 q 951 922 951 932 q 947 906 951 914 l 588 35 q 569 7 579 14 q 540 0 560 0 l 465 0 z "},"W":{"ha":1224,"x_min":56,"x_max":1168,"o":"m 322 0 q 291 8 301 0 q 276 35 281 15 l 57 911 q 56 924 56 915 q 82 944 56 944 l 194 944 q 224 938 215 944 q 235 915 232 931 l 374 304 l 540 843 q 553 866 546 860 q 579 872 561 872 l 643 872 q 669 866 661 872 q 682 843 676 860 l 850 304 l 988 915 q 999 938 990 931 q 1028 944 1008 944 l 1142 944 q 1168 924 1168 944 q 1167 911 1168 915 l 946 35 q 930 8 940 15 q 900 0 919 0 l 825 0 q 795 8 806 0 q 779 35 785 15 l 611 590 l 444 35 q 428 8 439 15 q 399 0 418 0 l 322 0 z "},"Ẃ":{"ha":1224,"x_min":56,"x_max":1168,"o":"m 569 1024 q 540 1046 540 1024 q 543 1063 540 1057 l 608 1244 q 626 1271 617 1264 q 660 1278 635 1278 l 763 1278 q 797 1254 797 1278 q 792 1233 797 1244 l 700 1054 q 679 1030 690 1036 q 642 1024 668 1024 l 569 1024 m 322 0 q 291 8 301 0 q 276 35 281 15 l 57 911 q 56 924 56 915 q 82 944 56 944 l 194 944 q 224 938 215 944 q 235 915 232 931 l 374 304 l 540 843 q 553 866 546 860 q 579 872 561 872 l 643 872 q 669 866 661 872 q 682 843 676 860 l 850 304 l 988 915 q 999 938 990 931 q 1028 944 1008 944 l 1142 944 q 1168 924 1168 944 q 1167 911 1168 915 l 946 35 q 930 8 940 15 q 900 0 919 0 l 825 0 q 795 8 806 0 q 779 35 785 15 l 611 590 l 444 35 q 428 8 439 15 q 399 0 418 0 l 322 0 z "},"Ŵ":{"ha":1224,"x_min":56,"x_max":1168,"o":"m 396 1025 q 373 1031 382 1025 q 364 1046 364 1036 q 374 1069 364 1058 l 518 1265 q 541 1290 533 1285 q 571 1296 549 1296 l 650 1296 q 681 1290 672 1296 q 703 1265 689 1283 l 847 1069 q 857 1046 857 1058 q 849 1031 857 1036 q 826 1025 840 1025 l 761 1025 q 727 1031 738 1025 q 704 1054 717 1038 l 611 1193 l 517 1054 q 496 1031 507 1038 q 461 1025 485 1025 l 396 1025 m 322 0 q 291 8 301 0 q 276 35 281 15 l 57 911 q 56 924 56 915 q 82 944 56 944 l 194 944 q 224 938 215 944 q 235 915 232 931 l 374 304 l 540 843 q 553 866 546 860 q 579 872 561 872 l 643 872 q 669 866 661 872 q 682 843 676 860 l 850 304 l 988 915 q 999 938 990 931 q 1028 944 1008 944 l 1142 944 q 1168 924 1168 944 q 1167 911 1168 915 l 946 35 q 930 8 940 15 q 900 0 919 0 l 825 0 q 795 8 806 0 q 779 35 785 15 l 611 590 l 444 35 q 428 8 439 15 q 399 0 418 0 l 322 0 z "},"Ẅ":{"ha":1224,"x_min":56,"x_max":1168,"o":"m 460 1007 q 413 1027 431 1007 q 394 1076 394 1047 l 394 1103 q 413 1151 394 1132 q 460 1171 431 1171 l 488 1171 q 535 1151 517 1171 q 553 1103 553 1132 l 553 1076 q 535 1027 553 1047 q 488 1007 517 1007 l 460 1007 m 733 1007 q 687 1027 706 1007 q 668 1076 668 1047 l 668 1103 q 687 1151 668 1131 q 733 1171 706 1171 l 761 1171 q 808 1151 790 1171 q 826 1103 826 1132 l 826 1076 q 808 1027 826 1047 q 761 1007 790 1007 l 733 1007 m 322 0 q 291 8 301 0 q 276 35 281 15 l 57 911 q 56 924 56 915 q 82 944 56 944 l 194 944 q 224 938 215 944 q 235 915 232 931 l 374 304 l 540 843 q 553 866 546 860 q 579 872 561 872 l 643 872 q 669 866 661 872 q 682 843 676 860 l 850 304 l 988 915 q 999 938 990 931 q 1028 944 1008 944 l 1142 944 q 1168 924 1168 944 q 1167 911 1168 915 l 946 35 q 930 8 940 15 q 900 0 919 0 l 825 0 q 795 8 806 0 q 779 35 785 15 l 611 590 l 444 35 q 428 8 439 15 q 399 0 418 0 l 322 0 z "},"Ẁ":{"ha":1224,"x_min":56,"x_max":1168,"o":"m 576 1024 q 540 1030 551 1024 q 519 1054 529 1036 l 428 1233 q 422 1254 422 1244 q 457 1278 422 1278 l 558 1278 q 594 1271 585 1278 q 610 1244 603 1264 l 676 1063 q 679 1046 679 1057 q 649 1024 679 1024 l 576 1024 m 322 0 q 291 8 301 0 q 276 35 281 15 l 57 911 q 56 924 56 915 q 82 944 56 944 l 194 944 q 224 938 215 944 q 235 915 232 931 l 374 304 l 540 843 q 553 866 546 860 q 579 872 561 872 l 643 872 q 669 866 661 872 q 682 843 676 860 l 850 304 l 988 915 q 999 938 990 931 q 1028 944 1008 944 l 1142 944 q 1168 924 1168 944 q 1167 911 1168 915 l 946 35 q 930 8 940 15 q 900 0 919 0 l 825 0 q 795 8 806 0 q 779 35 785 15 l 611 590 l 444 35 q 428 8 439 15 q 399 0 418 0 l 322 0 z "},"X":{"ha":990,"x_min":54,"x_max":935,"o":"m 76 0 q 60 6 67 0 q 54 19 54 11 q 61 39 54 28 l 396 483 l 79 906 q 71 926 71 917 q 76 940 71 935 q 93 944 82 944 l 222 944 q 244 941 238 944 q 258 928 251 938 l 494 615 l 731 928 q 744 941 738 938 q 767 944 751 944 l 897 944 q 913 940 907 944 q 918 926 918 935 q 910 906 918 917 l 593 483 l 928 39 q 935 19 935 28 q 928 6 935 11 q 913 0 922 0 l 783 0 q 763 3 769 0 q 749 15 756 6 l 494 351 l 242 15 q 228 3 235 6 q 207 0 221 0 l 76 0 z "},"Y":{"ha":983,"x_min":54,"x_max":929,"o":"m 454 0 q 414 13 426 0 q 401 50 401 25 l 401 318 l 60 906 q 54 924 54 915 q 79 944 54 944 l 199 944 q 223 940 217 944 q 238 922 229 935 l 492 481 l 744 922 q 759 940 751 935 q 783 944 767 944 l 904 944 q 929 924 929 944 q 924 906 929 915 l 581 317 l 581 50 q 569 13 581 25 q 528 0 557 0 l 454 0 z "},"Ý":{"ha":983,"x_min":54,"x_max":929,"o":"m 446 1046 q 417 1068 417 1046 q 419 1085 417 1079 l 485 1267 q 502 1293 493 1286 q 536 1300 511 1300 l 639 1300 q 674 1276 674 1300 q 668 1256 674 1267 l 576 1076 q 556 1052 567 1058 q 518 1046 544 1046 l 446 1046 m 454 0 q 414 13 426 0 q 401 50 401 25 l 401 318 l 60 906 q 54 924 54 915 q 79 944 54 944 l 199 944 q 223 940 217 944 q 238 922 229 935 l 492 481 l 744 922 q 759 940 751 935 q 783 944 767 944 l 904 944 q 929 924 929 944 q 924 906 929 915 l 581 317 l 581 50 q 569 13 581 25 q 528 0 557 0 l 454 0 z "},"Ŷ":{"ha":983,"x_min":54,"x_max":929,"o":"m 276 1025 q 253 1031 263 1025 q 244 1046 244 1036 q 254 1069 244 1058 l 399 1265 q 422 1290 414 1285 q 451 1296 429 1296 l 531 1296 q 561 1290 553 1296 q 583 1265 569 1283 l 728 1069 q 738 1046 738 1058 q 729 1031 738 1036 q 707 1025 721 1025 l 642 1025 q 608 1031 618 1025 q 585 1054 597 1038 l 492 1193 l 397 1054 q 376 1031 388 1038 q 342 1025 365 1025 l 276 1025 m 454 0 q 414 13 426 0 q 401 50 401 25 l 401 318 l 60 906 q 54 924 54 915 q 79 944 54 944 l 199 944 q 223 940 217 944 q 238 922 229 935 l 492 481 l 744 922 q 759 940 751 935 q 783 944 767 944 l 904 944 q 929 924 929 944 q 924 906 929 915 l 581 317 l 581 50 q 569 13 581 25 q 528 0 557 0 l 454 0 z "},"Ÿ":{"ha":983,"x_min":54,"x_max":929,"o":"m 350 1029 q 303 1049 321 1029 q 285 1099 285 1069 l 285 1125 q 303 1174 285 1154 q 350 1193 321 1193 l 378 1193 q 425 1174 407 1193 q 443 1125 443 1154 l 443 1099 q 425 1049 443 1069 q 378 1029 407 1029 l 350 1029 m 624 1029 q 577 1049 596 1029 q 558 1099 558 1069 l 558 1125 q 577 1173 558 1153 q 624 1193 596 1193 l 651 1193 q 699 1174 681 1193 q 717 1125 717 1154 l 717 1099 q 699 1049 717 1069 q 651 1029 681 1029 l 624 1029 m 454 0 q 414 13 426 0 q 401 50 401 25 l 401 318 l 60 906 q 54 924 54 915 q 79 944 54 944 l 199 944 q 223 940 217 944 q 238 922 229 935 l 492 481 l 744 922 q 759 940 751 935 q 783 944 767 944 l 904 944 q 929 924 929 944 q 924 906 929 915 l 581 317 l 581 50 q 569 13 581 25 q 528 0 557 0 l 454 0 z "},"Ẏ":{"ha":983,"x_min":54,"x_max":929,"o":"m 476 1049 q 430 1069 449 1049 q 411 1118 411 1089 l 411 1144 q 430 1192 411 1172 q 476 1213 449 1213 l 506 1213 q 552 1192 533 1213 q 571 1144 571 1172 l 571 1118 q 553 1069 571 1089 q 506 1049 535 1049 l 476 1049 m 454 0 q 414 13 426 0 q 401 50 401 25 l 401 318 l 60 906 q 54 924 54 915 q 79 944 54 944 l 199 944 q 223 940 217 944 q 238 922 229 935 l 492 481 l 744 922 q 759 940 751 935 q 783 944 767 944 l 904 944 q 929 924 929 944 q 924 906 929 915 l 581 317 l 581 50 q 569 13 581 25 q 528 0 557 0 l 454 0 z "},"Ỵ":{"ha":983,"x_min":54,"x_max":929,"o":"m 454 0 q 414 13 426 0 q 401 50 401 25 l 401 318 l 60 906 q 54 924 54 915 q 79 944 54 944 l 199 944 q 223 940 217 944 q 238 922 229 935 l 492 481 l 744 922 q 759 940 751 935 q 783 944 767 944 l 904 944 q 929 924 929 944 q 924 906 929 915 l 581 317 l 581 50 q 569 13 581 25 q 528 0 557 0 l 454 0 m 476 -256 q 430 -235 449 -256 q 411 -186 411 -215 l 411 -160 q 430 -112 411 -132 q 476 -92 449 -92 l 504 -92 q 551 -111 533 -92 q 569 -160 569 -131 l 569 -186 q 551 -235 569 -215 q 504 -256 533 -256 l 476 -256 z "},"Ỳ":{"ha":983,"x_min":54,"x_max":929,"o":"m 471 1029 q 435 1035 446 1029 q 414 1060 424 1042 l 322 1239 q 317 1260 317 1250 q 351 1283 317 1283 l 453 1283 q 488 1276 479 1283 q 504 1250 497 1269 l 571 1068 q 574 1051 574 1063 q 543 1029 574 1029 l 471 1029 m 454 0 q 414 13 426 0 q 401 50 401 25 l 401 318 l 60 906 q 54 924 54 915 q 79 944 54 944 l 199 944 q 223 940 217 944 q 238 922 229 935 l 492 481 l 744 922 q 759 940 751 935 q 783 944 767 944 l 904 944 q 929 924 929 944 q 924 906 929 915 l 581 317 l 581 50 q 569 13 581 25 q 528 0 557 0 l 454 0 z "},"Ỷ":{"ha":983,"x_min":54,"x_max":929,"o":"m 454 1004 q 422 1036 422 1004 l 422 1099 q 433 1131 422 1121 q 471 1142 444 1142 q 537 1153 519 1142 q 554 1194 554 1165 q 538 1229 554 1218 q 482 1240 521 1240 q 378 1214 431 1240 q 364 1217 368 1210 l 335 1281 q 333 1288 333 1283 q 340 1297 333 1292 q 411 1326 368 1315 q 497 1336 454 1336 q 635 1301 589 1336 q 681 1200 681 1265 q 640 1103 681 1139 q 544 1067 600 1067 l 544 1036 q 513 1004 544 1004 l 454 1004 m 454 0 q 414 13 426 0 q 401 50 401 25 l 401 318 l 60 906 q 54 924 54 915 q 79 944 54 944 l 199 944 q 223 940 217 944 q 238 922 229 935 l 492 481 l 744 922 q 759 940 751 935 q 783 944 767 944 l 904 944 q 929 924 929 944 q 924 906 929 915 l 581 317 l 581 50 q 569 13 581 25 q 528 0 557 0 l 454 0 z "},"Ỹ":{"ha":983,"x_min":54,"x_max":929,"o":"m 629 1047 q 566 1058 597 1047 q 493 1088 535 1068 q 431 1113 453 1106 q 386 1121 410 1121 q 343 1111 358 1121 q 304 1076 328 1101 q 279 1063 294 1063 q 231 1089 261 1063 q 206 1128 206 1113 q 221 1163 206 1143 q 289 1228 254 1206 q 371 1250 324 1250 q 443 1240 411 1250 q 518 1210 475 1229 q 573 1186 550 1194 q 619 1178 596 1178 q 665 1189 647 1178 q 706 1229 683 1200 q 733 1244 717 1244 q 781 1222 753 1244 q 811 1179 811 1197 q 797 1146 811 1164 q 725 1070 763 1093 q 629 1047 688 1047 m 454 0 q 414 13 426 0 q 401 50 401 25 l 401 318 l 60 906 q 54 924 54 915 q 79 944 54 944 l 199 944 q 223 940 217 944 q 238 922 229 935 l 492 481 l 744 922 q 759 940 751 935 q 783 944 767 944 l 904 944 q 929 924 929 944 q 924 906 929 915 l 581 317 l 581 50 q 569 13 581 25 q 528 0 557 0 l 454 0 z "},"Z":{"ha":879,"x_min":54,"x_max":825,"o":"m 99 0 q 63 10 72 0 q 54 47 54 21 q 60 88 54 71 q 86 131 67 106 l 588 808 l 124 808 q 83 820 96 808 q 71 858 71 832 l 71 896 q 83 933 71 922 q 124 944 96 944 l 776 944 q 813 933 803 944 q 822 896 822 922 q 817 856 822 871 q 790 813 811 840 l 290 135 l 774 135 q 813 123 801 135 q 825 85 825 111 l 825 47 q 813 11 825 22 q 774 0 801 0 l 99 0 z "},"Ź":{"ha":879,"x_min":54,"x_max":825,"o":"m 429 1029 q 400 1051 400 1029 q 403 1068 400 1063 l 468 1250 q 485 1276 476 1269 q 519 1283 494 1283 l 622 1283 q 657 1260 657 1283 q 651 1239 657 1250 l 560 1060 q 539 1035 550 1042 q 501 1029 528 1029 l 429 1029 m 99 0 q 63 10 72 0 q 54 47 54 21 q 60 88 54 71 q 86 131 67 106 l 588 808 l 124 808 q 83 820 96 808 q 71 858 71 832 l 71 896 q 83 933 71 922 q 124 944 96 944 l 776 944 q 813 933 803 944 q 822 896 822 922 q 817 856 822 871 q 790 813 811 840 l 290 135 l 774 135 q 813 123 801 135 q 825 85 825 111 l 825 47 q 813 11 825 22 q 774 0 801 0 l 99 0 z "},"Ž":{"ha":879,"x_min":54,"x_max":825,"o":"m 413 1047 q 383 1053 390 1047 q 360 1076 375 1058 l 215 1272 q 204 1299 204 1288 q 229 1317 204 1317 l 303 1317 q 336 1312 326 1317 q 357 1290 346 1307 l 453 1150 l 547 1290 q 567 1312 557 1307 q 601 1317 576 1317 l 674 1317 q 700 1299 700 1317 q 689 1272 700 1285 l 544 1076 q 523 1053 532 1058 q 492 1047 514 1047 l 413 1047 m 99 0 q 63 10 72 0 q 54 47 54 21 q 60 88 54 71 q 86 131 67 106 l 588 808 l 124 808 q 83 820 96 808 q 71 858 71 832 l 71 896 q 83 933 71 922 q 124 944 96 944 l 776 944 q 813 933 803 944 q 822 896 822 922 q 817 856 822 871 q 790 813 811 840 l 290 135 l 774 135 q 813 123 801 135 q 825 85 825 111 l 825 47 q 813 11 825 22 q 774 0 801 0 l 99 0 z "},"Ż":{"ha":879,"x_min":54,"x_max":825,"o":"m 449 1054 q 402 1074 421 1054 q 383 1124 383 1094 l 383 1150 q 402 1198 383 1178 q 449 1218 421 1218 l 478 1218 q 524 1198 506 1218 q 543 1150 543 1178 l 543 1124 q 525 1074 543 1094 q 478 1054 507 1054 l 449 1054 m 99 0 q 63 10 72 0 q 54 47 54 21 q 60 88 54 71 q 86 131 67 106 l 588 808 l 124 808 q 83 820 96 808 q 71 858 71 832 l 71 896 q 83 933 71 922 q 124 944 96 944 l 776 944 q 813 933 803 944 q 822 896 822 922 q 817 856 822 871 q 790 813 811 840 l 290 135 l 774 135 q 813 123 801 135 q 825 85 825 111 l 825 47 q 813 11 825 22 q 774 0 801 0 l 99 0 z "},"Ẓ":{"ha":879,"x_min":54,"x_max":825,"o":"m 99 0 q 63 10 72 0 q 54 47 54 21 q 60 88 54 71 q 86 131 67 106 l 588 808 l 124 808 q 83 820 96 808 q 71 858 71 832 l 71 896 q 83 933 71 922 q 124 944 96 944 l 776 944 q 813 933 803 944 q 822 896 822 922 q 817 856 822 871 q 790 813 811 840 l 290 135 l 774 135 q 813 123 801 135 q 825 85 825 111 l 825 47 q 813 11 825 22 q 774 0 801 0 l 99 0 m 453 -256 q 406 -235 425 -256 q 388 -186 388 -215 l 388 -160 q 406 -112 388 -132 q 453 -92 425 -92 l 481 -92 q 528 -111 510 -92 q 546 -160 546 -131 l 546 -186 q 528 -235 546 -215 q 481 -256 510 -256 l 453 -256 z "},"a":{"ha":854,"x_min":54,"x_max":772,"o":"m 351 -21 q 135 62 215 -21 q 54 294 54 144 q 106 501 54 411 q 252 639 157 590 q 474 688 347 688 q 772 604 650 688 l 772 38 q 763 8 772 17 q 732 0 754 0 l 656 0 q 633 6 640 0 q 622 26 625 13 l 611 81 q 505 3 568 28 q 351 -21 442 -21 m 418 106 q 548 149 492 106 q 604 263 604 192 l 604 533 q 545 555 575 549 q 472 561 515 561 q 296 492 363 561 q 229 300 229 422 q 276 153 229 200 q 418 106 322 106 z "},"á":{"ha":854,"x_min":54,"x_max":772,"o":"m 401 771 q 372 793 372 771 q 375 810 372 804 l 440 992 q 458 1018 449 1011 q 492 1025 467 1025 l 594 1025 q 629 1001 629 1025 q 624 981 629 992 l 532 801 q 511 777 522 783 q 474 771 500 771 l 401 771 m 351 -21 q 135 62 215 -21 q 54 294 54 144 q 106 501 54 411 q 252 639 157 590 q 474 688 347 688 q 772 604 650 688 l 772 38 q 763 8 772 17 q 732 0 754 0 l 656 0 q 633 6 640 0 q 622 26 625 13 l 611 81 q 505 3 568 28 q 351 -21 442 -21 m 418 106 q 548 149 492 106 q 604 263 604 192 l 604 533 q 545 555 575 549 q 472 561 515 561 q 296 492 363 561 q 229 300 229 422 q 276 153 229 200 q 418 106 322 106 z "},"ă":{"ha":854,"x_min":54,"x_max":772,"o":"m 469 781 q 298 842 356 781 q 240 1007 240 904 q 247 1025 240 1018 q 263 1032 253 1032 l 354 1032 q 373 1026 368 1032 q 378 1006 378 1019 q 398 928 378 956 q 469 901 418 901 q 540 928 519 901 q 561 1006 561 956 q 566 1026 561 1019 q 585 1032 571 1032 l 676 1032 q 692 1025 686 1032 q 699 1007 699 1018 q 640 843 699 906 q 469 781 581 781 m 351 -21 q 135 62 215 -21 q 54 294 54 144 q 106 501 54 411 q 252 639 157 590 q 474 688 347 688 q 772 604 650 688 l 772 38 q 763 8 772 17 q 732 0 754 0 l 656 0 q 633 6 640 0 q 622 26 625 13 l 611 81 q 505 3 568 28 q 351 -21 442 -21 m 418 106 q 548 149 492 106 q 604 263 604 192 l 604 533 q 545 555 575 549 q 472 561 515 561 q 296 492 363 561 q 229 300 229 422 q 276 153 229 200 q 418 106 322 106 z "},"ắ":{"ha":854,"x_min":54,"x_max":772,"o":"m 449 996 q 422 1017 422 996 q 425 1031 422 1022 l 471 1158 q 486 1185 478 1178 q 518 1192 494 1192 l 588 1192 q 617 1171 617 1192 q 610 1149 617 1160 l 544 1026 q 524 1001 533 1007 q 490 996 514 996 l 449 996 m 478 797 q 310 852 372 797 q 249 996 249 907 q 255 1014 249 1007 q 271 1021 261 1021 l 361 1021 q 380 1015 375 1021 q 385 994 385 1008 q 408 933 385 957 q 478 908 432 908 q 547 933 524 908 q 571 994 571 957 q 576 1015 571 1008 q 594 1021 581 1021 l 685 1021 q 701 1014 694 1021 q 707 996 707 1007 q 644 852 707 907 q 478 797 582 797 m 351 -21 q 135 62 215 -21 q 54 294 54 144 q 106 501 54 411 q 252 639 157 590 q 474 688 347 688 q 772 604 650 688 l 772 38 q 763 8 772 17 q 732 0 754 0 l 656 0 q 633 6 640 0 q 622 26 625 13 l 611 81 q 505 3 568 28 q 351 -21 442 -21 m 418 106 q 548 149 492 106 q 604 263 604 192 l 604 533 q 545 555 575 549 q 472 561 515 561 q 296 492 363 561 q 229 300 229 422 q 276 153 229 200 q 418 106 322 106 z "},"ặ":{"ha":854,"x_min":54,"x_max":772,"o":"m 468 775 q 297 837 354 775 q 239 1001 239 899 q 245 1019 239 1013 q 261 1026 251 1026 l 353 1026 q 372 1020 367 1026 q 376 1000 376 1014 q 397 923 376 950 q 468 896 417 896 q 539 923 518 896 q 560 1000 560 950 q 565 1020 560 1014 q 583 1026 569 1026 l 675 1026 q 691 1019 685 1026 q 697 1001 697 1013 q 638 838 697 900 q 468 775 579 775 m 351 -21 q 135 62 215 -21 q 54 294 54 144 q 106 501 54 411 q 252 639 157 590 q 474 688 347 688 q 772 604 650 688 l 772 38 q 763 8 772 17 q 732 0 754 0 l 656 0 q 633 6 640 0 q 622 26 625 13 l 611 81 q 505 3 568 28 q 351 -21 442 -21 m 418 106 q 548 149 492 106 q 604 263 604 192 l 604 533 q 545 555 575 549 q 472 561 515 561 q 296 492 363 561 q 229 300 229 422 q 276 153 229 200 q 418 106 322 106 m 461 -256 q 415 -235 433 -256 q 396 -186 396 -215 l 396 -160 q 415 -112 396 -132 q 461 -92 433 -92 l 489 -92 q 536 -111 518 -92 q 554 -160 554 -131 l 554 -186 q 536 -235 554 -215 q 489 -256 518 -256 l 461 -256 z "},"ằ":{"ha":854,"x_min":54,"x_max":772,"o":"m 446 996 q 413 1001 422 996 q 392 1026 403 1007 l 326 1149 q 319 1171 319 1160 q 349 1192 319 1192 l 418 1192 q 450 1185 442 1192 q 465 1158 458 1178 l 511 1031 q 514 1017 514 1022 q 488 996 514 996 l 446 996 m 458 797 q 292 852 354 797 q 229 996 229 907 q 235 1014 229 1007 q 251 1021 242 1021 l 342 1021 q 360 1015 356 1021 q 365 994 365 1008 q 389 933 365 957 q 458 908 413 908 q 528 933 504 908 q 551 994 551 957 q 556 1015 551 1008 q 575 1021 561 1021 l 665 1021 q 681 1014 675 1021 q 688 996 688 1007 q 626 852 688 907 q 458 797 564 797 m 351 -21 q 135 62 215 -21 q 54 294 54 144 q 106 501 54 411 q 252 639 157 590 q 474 688 347 688 q 772 604 650 688 l 772 38 q 763 8 772 17 q 732 0 754 0 l 656 0 q 633 6 640 0 q 622 26 625 13 l 611 81 q 505 3 568 28 q 351 -21 442 -21 m 418 106 q 548 149 492 106 q 604 263 604 192 l 604 533 q 545 555 575 549 q 472 561 515 561 q 296 492 363 561 q 229 300 229 422 q 276 153 229 200 q 418 106 322 106 z "},"ẳ":{"ha":854,"x_min":54,"x_max":772,"o":"m 424 972 q 394 1000 394 972 l 394 1039 q 438 1078 394 1078 q 481 1086 468 1078 q 493 1114 493 1094 q 446 1146 493 1146 q 372 1126 406 1146 q 361 1129 364 1122 l 336 1179 q 340 1193 333 1188 q 395 1215 361 1207 q 464 1222 429 1222 q 565 1195 531 1222 q 599 1118 599 1168 q 570 1045 599 1071 q 499 1019 542 1019 l 499 1000 q 471 972 499 972 l 424 972 m 460 797 q 293 852 356 797 q 231 996 231 907 q 237 1014 231 1007 q 253 1021 243 1021 l 343 1021 q 362 1015 357 1021 q 367 994 367 1008 q 390 933 367 957 q 460 908 414 908 q 529 933 506 908 q 553 994 553 957 q 558 1015 553 1008 q 576 1021 563 1021 l 667 1021 q 683 1014 676 1021 q 689 996 689 1007 q 627 852 689 907 q 460 797 565 797 m 351 -21 q 135 62 215 -21 q 54 294 54 144 q 106 501 54 411 q 252 639 157 590 q 474 688 347 688 q 772 604 650 688 l 772 38 q 763 8 772 17 q 732 0 754 0 l 656 0 q 633 6 640 0 q 622 26 625 13 l 611 81 q 505 3 568 28 q 351 -21 442 -21 m 418 106 q 548 149 492 106 q 604 263 604 192 l 604 533 q 545 555 575 549 q 472 561 515 561 q 296 492 363 561 q 229 300 229 422 q 276 153 229 200 q 418 106 322 106 z "},"ẵ":{"ha":854,"x_min":54,"x_max":772,"o":"m 542 1056 q 492 1063 514 1056 q 440 1088 471 1071 q 397 1108 414 1101 q 361 1114 381 1114 q 324 1105 338 1114 q 292 1075 310 1096 q 268 1061 282 1061 q 228 1082 253 1061 q 213 1097 219 1089 q 207 1113 207 1106 q 218 1139 207 1124 q 276 1197 244 1176 q 350 1217 308 1217 q 408 1208 383 1217 q 461 1182 432 1199 q 503 1163 489 1168 q 536 1157 518 1157 q 574 1165 560 1157 q 606 1196 589 1174 q 631 1211 617 1211 q 669 1193 646 1211 q 692 1161 692 1175 q 679 1132 692 1149 q 618 1074 650 1092 q 542 1056 586 1056 m 454 797 q 288 852 350 797 q 225 996 225 907 q 231 1014 225 1007 q 247 1021 238 1021 l 338 1021 q 356 1015 351 1021 q 361 994 361 1008 q 385 933 361 957 q 454 908 408 908 q 524 933 500 908 q 547 994 547 957 q 552 1015 547 1008 q 571 1021 557 1021 l 661 1021 q 677 1014 671 1021 q 683 996 683 1007 q 622 852 683 907 q 454 797 560 797 m 351 -21 q 135 62 215 -21 q 54 294 54 144 q 106 501 54 411 q 252 639 157 590 q 474 688 347 688 q 772 604 650 688 l 772 38 q 763 8 772 17 q 732 0 754 0 l 656 0 q 633 6 640 0 q 622 26 625 13 l 611 81 q 505 3 568 28 q 351 -21 442 -21 m 418 106 q 548 149 492 106 q 604 263 604 192 l 604 533 q 545 555 575 549 q 472 561 515 561 q 296 492 363 561 q 229 300 229 422 q 276 153 229 200 q 418 106 322 106 z "},"ǎ":{"ha":854,"x_min":54,"x_max":772,"o":"m 451 783 q 422 789 429 783 q 399 813 414 794 l 254 1008 q 243 1035 243 1024 q 268 1053 243 1053 l 342 1053 q 375 1048 365 1053 q 396 1026 385 1043 l 492 886 l 586 1026 q 606 1048 596 1043 q 640 1053 615 1053 l 713 1053 q 739 1035 739 1053 q 728 1008 739 1021 l 583 813 q 562 789 571 794 q 531 783 553 783 l 451 783 m 351 -21 q 135 62 215 -21 q 54 294 54 144 q 106 501 54 411 q 252 639 157 590 q 474 688 347 688 q 772 604 650 688 l 772 38 q 763 8 772 17 q 732 0 754 0 l 656 0 q 633 6 640 0 q 622 26 625 13 l 611 81 q 505 3 568 28 q 351 -21 442 -21 m 418 106 q 548 149 492 106 q 604 263 604 192 l 604 533 q 545 555 575 549 q 472 561 515 561 q 296 492 363 561 q 229 300 229 422 q 276 153 229 200 q 418 106 322 106 z "},"â":{"ha":854,"x_min":54,"x_max":772,"o":"m 238 767 q 215 772 224 767 q 206 788 206 778 q 215 811 206 800 l 360 1007 q 383 1032 375 1026 q 413 1038 390 1038 l 492 1038 q 522 1031 514 1038 q 544 1007 531 1025 l 689 811 q 699 788 699 800 q 690 772 699 778 q 668 767 682 767 l 603 767 q 569 773 579 767 q 546 796 558 779 l 453 935 l 358 796 q 338 773 349 779 q 303 767 326 767 l 238 767 m 351 -21 q 135 62 215 -21 q 54 294 54 144 q 106 501 54 411 q 252 639 157 590 q 474 688 347 688 q 772 604 650 688 l 772 38 q 763 8 772 17 q 732 0 754 0 l 656 0 q 633 6 640 0 q 622 26 625 13 l 611 81 q 505 3 568 28 q 351 -21 442 -21 m 418 106 q 548 149 492 106 q 604 263 604 192 l 604 533 q 545 555 575 549 q 472 561 515 561 q 296 492 363 561 q 229 300 229 422 q 276 153 229 200 q 418 106 322 106 z "},"ấ":{"ha":863,"x_min":54,"x_max":807,"o":"m 636 972 q 610 993 610 972 q 613 1007 610 999 l 661 1142 q 676 1168 668 1161 q 708 1175 685 1175 l 778 1175 q 807 1154 807 1175 q 800 1132 807 1143 l 732 1003 q 711 978 721 983 q 678 972 701 972 l 636 972 m 258 792 q 236 797 244 792 q 228 813 228 803 q 239 836 228 822 l 379 1007 q 403 1031 394 1025 q 435 1038 413 1038 l 497 1038 q 530 1031 519 1038 q 553 1007 540 1025 l 693 836 q 704 813 704 822 q 696 797 704 803 q 674 792 688 792 l 611 792 q 579 797 589 792 q 557 817 569 801 l 467 932 l 375 817 q 355 797 365 801 q 321 792 344 792 l 258 792 m 351 -21 q 135 62 215 -21 q 54 294 54 144 q 106 501 54 411 q 252 639 157 590 q 474 688 347 688 q 772 604 650 688 l 772 38 q 763 8 772 17 q 732 0 754 0 l 656 0 q 633 6 640 0 q 622 26 625 13 l 611 81 q 505 3 568 28 q 351 -21 442 -21 m 418 106 q 548 149 492 106 q 604 263 604 192 l 604 533 q 545 555 575 549 q 472 561 515 561 q 296 492 363 561 q 229 300 229 422 q 276 153 229 200 q 418 106 322 106 z "},"ậ":{"ha":854,"x_min":54,"x_max":772,"o":"m 256 767 q 233 772 242 767 q 224 788 224 778 q 233 811 224 800 l 378 1007 q 401 1032 393 1026 q 431 1038 408 1038 l 510 1038 q 540 1031 532 1038 q 563 1007 549 1025 l 707 811 q 717 788 717 800 q 708 772 717 778 q 686 767 700 767 l 621 767 q 587 773 597 767 q 564 796 576 779 l 471 935 l 376 796 q 356 773 367 779 q 321 767 344 767 l 256 767 m 351 -21 q 135 62 215 -21 q 54 294 54 144 q 106 501 54 411 q 252 639 157 590 q 474 688 347 688 q 772 604 650 688 l 772 38 q 763 8 772 17 q 732 0 754 0 l 656 0 q 633 6 640 0 q 622 26 625 13 l 611 81 q 505 3 568 28 q 351 -21 442 -21 m 418 106 q 548 149 492 106 q 604 263 604 192 l 604 533 q 545 555 575 549 q 472 561 515 561 q 296 492 363 561 q 229 300 229 422 q 276 153 229 200 q 418 106 322 106 m 461 -256 q 415 -235 433 -256 q 396 -186 396 -215 l 396 -160 q 415 -112 396 -132 q 461 -92 433 -92 l 489 -92 q 536 -111 518 -92 q 554 -160 554 -131 l 554 -186 q 536 -235 554 -215 q 489 -256 518 -256 l 461 -256 z "},"ầ":{"ha":854,"x_min":54,"x_max":772,"o":"m 231 972 q 197 978 207 972 q 176 1003 188 983 l 108 1132 q 101 1154 101 1146 q 131 1175 101 1175 l 200 1175 q 232 1168 224 1175 q 247 1142 240 1161 l 296 1007 q 299 993 299 999 q 272 972 299 972 l 231 972 m 235 792 q 213 797 221 792 q 204 813 204 803 q 215 836 204 822 l 356 1007 q 381 1031 371 1025 q 411 1038 390 1038 l 474 1038 q 505 1031 496 1038 q 529 1007 514 1025 l 669 836 q 681 813 681 822 q 672 797 681 803 q 650 792 664 792 l 588 792 q 556 797 565 792 q 533 817 546 801 l 442 932 l 351 817 q 329 797 339 801 q 297 792 319 792 l 235 792 m 351 -21 q 135 62 215 -21 q 54 294 54 144 q 106 501 54 411 q 252 639 157 590 q 474 688 347 688 q 772 604 650 688 l 772 38 q 763 8 772 17 q 732 0 754 0 l 656 0 q 633 6 640 0 q 622 26 625 13 l 611 81 q 505 3 568 28 q 351 -21 442 -21 m 418 106 q 548 149 492 106 q 604 263 604 192 l 604 533 q 545 555 575 549 q 472 561 515 561 q 296 492 363 561 q 229 300 229 422 q 276 153 229 200 q 418 106 322 106 z "},"ẩ":{"ha":863,"x_min":54,"x_max":821,"o":"m 646 958 q 617 986 617 958 l 617 1025 q 660 1064 617 1064 q 703 1072 690 1064 q 715 1100 715 1081 q 668 1132 715 1132 q 594 1113 629 1132 q 583 1115 586 1108 l 558 1165 q 563 1179 556 1174 q 617 1201 583 1193 q 686 1208 651 1208 q 787 1181 753 1208 q 821 1104 821 1154 q 792 1031 821 1057 q 721 1006 764 1006 l 721 986 q 693 958 721 958 l 646 958 m 236 799 q 219 813 219 799 q 225 825 219 819 l 381 1008 q 405 1032 396 1026 q 436 1038 414 1038 l 499 1038 q 531 1032 521 1038 q 554 1008 540 1026 l 710 825 q 715 813 715 819 q 699 799 715 799 l 600 799 q 582 801 588 799 q 571 810 576 803 l 467 938 l 364 810 q 353 801 358 803 q 335 799 347 799 l 236 799 m 351 -21 q 135 62 215 -21 q 54 294 54 144 q 106 501 54 411 q 252 639 157 590 q 474 688 347 688 q 772 604 650 688 l 772 38 q 763 8 772 17 q 732 0 754 0 l 656 0 q 633 6 640 0 q 622 26 625 13 l 611 81 q 505 3 568 28 q 351 -21 442 -21 m 418 106 q 548 149 492 106 q 604 263 604 192 l 604 533 q 545 555 575 549 q 472 561 515 561 q 296 492 363 561 q 229 300 229 422 q 276 153 229 200 q 418 106 322 106 z "},"ẫ":{"ha":854,"x_min":54,"x_max":772,"o":"m 572 1056 q 523 1063 544 1056 q 471 1088 501 1071 q 428 1108 444 1101 q 392 1114 411 1114 q 354 1105 368 1114 q 322 1075 340 1096 q 299 1061 313 1061 q 258 1082 283 1061 q 244 1097 250 1089 q 238 1113 238 1106 q 249 1139 238 1124 q 307 1197 275 1176 q 381 1217 339 1217 q 438 1208 414 1217 q 492 1182 463 1199 q 534 1163 519 1168 q 567 1157 549 1157 q 605 1165 590 1157 q 636 1196 619 1174 q 661 1211 647 1211 q 700 1193 676 1211 q 722 1161 722 1175 q 710 1132 722 1149 q 649 1074 681 1092 q 572 1056 617 1056 m 240 799 q 224 813 224 799 q 229 825 224 819 l 385 1008 q 409 1032 400 1026 q 440 1038 418 1038 l 503 1038 q 535 1032 525 1038 q 558 1008 544 1026 l 714 825 q 719 813 719 819 q 703 799 719 799 l 604 799 q 586 801 592 799 q 575 810 581 803 l 471 938 l 368 810 q 357 801 363 803 q 339 799 351 799 l 240 799 m 351 -21 q 135 62 215 -21 q 54 294 54 144 q 106 501 54 411 q 252 639 157 590 q 474 688 347 688 q 772 604 650 688 l 772 38 q 763 8 772 17 q 732 0 754 0 l 656 0 q 633 6 640 0 q 622 26 625 13 l 611 81 q 505 3 568 28 q 351 -21 442 -21 m 418 106 q 548 149 492 106 q 604 263 604 192 l 604 533 q 545 555 575 549 q 472 561 515 561 q 296 492 363 561 q 229 300 229 422 q 276 153 229 200 q 418 106 322 106 z "},"ä":{"ha":854,"x_min":54,"x_max":772,"o":"m 321 765 q 274 785 292 765 q 256 835 256 806 l 256 861 q 274 910 256 890 q 321 929 292 929 l 349 929 q 396 910 378 929 q 414 861 414 890 l 414 835 q 396 785 414 806 q 349 765 378 765 l 321 765 m 594 765 q 548 785 567 765 q 529 835 529 806 l 529 861 q 548 909 529 889 q 594 929 567 929 l 622 929 q 669 910 651 929 q 688 861 688 890 l 688 835 q 669 785 688 806 q 622 765 651 765 l 594 765 m 351 -21 q 135 62 215 -21 q 54 294 54 144 q 106 501 54 411 q 252 639 157 590 q 474 688 347 688 q 772 604 650 688 l 772 38 q 763 8 772 17 q 732 0 754 0 l 656 0 q 633 6 640 0 q 622 26 625 13 l 611 81 q 505 3 568 28 q 351 -21 442 -21 m 418 106 q 548 149 492 106 q 604 263 604 192 l 604 533 q 545 555 575 549 q 472 561 515 561 q 296 492 363 561 q 229 300 229 422 q 276 153 229 200 q 418 106 322 106 z "},"ạ":{"ha":854,"x_min":54,"x_max":772,"o":"m 351 -21 q 135 62 215 -21 q 54 294 54 144 q 106 501 54 411 q 252 639 157 590 q 474 688 347 688 q 772 604 650 688 l 772 38 q 763 8 772 17 q 732 0 754 0 l 656 0 q 633 6 640 0 q 622 26 625 13 l 611 81 q 505 3 568 28 q 351 -21 442 -21 m 418 106 q 548 149 492 106 q 604 263 604 192 l 604 533 q 545 555 575 549 q 472 561 515 561 q 296 492 363 561 q 229 300 229 422 q 276 153 229 200 q 418 106 322 106 m 432 -256 q 385 -235 404 -256 q 367 -186 367 -215 l 367 -160 q 385 -112 367 -132 q 432 -92 404 -92 l 460 -92 q 507 -111 489 -92 q 525 -160 525 -131 l 525 -186 q 507 -235 525 -215 q 460 -256 489 -256 l 432 -256 z "},"à":{"ha":854,"x_min":54,"x_max":772,"o":"m 476 771 q 440 777 451 771 q 419 801 429 783 l 328 981 q 322 1001 322 992 q 357 1025 322 1025 l 458 1025 q 494 1018 485 1025 q 510 992 503 1011 l 576 810 q 579 793 579 804 q 549 771 579 771 l 476 771 m 351 -21 q 135 62 215 -21 q 54 294 54 144 q 106 501 54 411 q 252 639 157 590 q 474 688 347 688 q 772 604 650 688 l 772 38 q 763 8 772 17 q 732 0 754 0 l 656 0 q 633 6 640 0 q 622 26 625 13 l 611 81 q 505 3 568 28 q 351 -21 442 -21 m 418 106 q 548 149 492 106 q 604 263 604 192 l 604 533 q 545 555 575 549 q 472 561 515 561 q 296 492 363 561 q 229 300 229 422 q 276 153 229 200 q 418 106 322 106 z "},"ả":{"ha":854,"x_min":54,"x_max":772,"o":"m 424 757 q 392 789 392 757 l 392 851 q 403 884 392 874 q 440 894 414 894 q 506 906 489 894 q 524 947 524 918 q 507 982 524 971 q 451 993 490 993 q 347 967 400 993 q 333 969 338 963 l 304 1033 q 303 1040 303 1036 q 310 1050 303 1044 q 381 1078 338 1068 q 467 1089 424 1089 q 604 1053 558 1089 q 650 953 650 1018 q 610 856 650 892 q 514 819 569 819 l 514 789 q 482 757 514 757 l 424 757 m 351 -21 q 135 62 215 -21 q 54 294 54 144 q 106 501 54 411 q 252 639 157 590 q 474 688 347 688 q 772 604 650 688 l 772 38 q 763 8 772 17 q 732 0 754 0 l 656 0 q 633 6 640 0 q 622 26 625 13 l 611 81 q 505 3 568 28 q 351 -21 442 -21 m 418 106 q 548 149 492 106 q 604 263 604 192 l 604 533 q 545 555 575 549 q 472 561 515 561 q 296 492 363 561 q 229 300 229 422 q 276 153 229 200 q 418 106 322 106 z "},"ɑ":{"ha":854,"x_min":54,"x_max":772,"o":"m 351 -21 q 135 62 215 -21 q 54 294 54 144 q 106 501 54 411 q 252 639 157 590 q 474 688 347 688 q 772 604 650 688 l 772 38 q 763 8 772 17 q 732 0 754 0 l 656 0 q 633 6 640 0 q 622 26 625 13 l 611 81 q 505 3 568 28 q 351 -21 442 -21 m 418 106 q 548 149 492 106 q 604 263 604 192 l 604 533 q 472 561 549 561 q 296 492 363 561 q 229 300 229 422 q 276 153 229 200 q 418 106 322 106 z "},"ā":{"ha":854,"x_min":54,"x_max":772,"o":"m 282 804 q 243 815 254 804 q 232 853 232 826 l 232 889 q 243 927 232 915 q 282 939 254 939 l 661 939 q 700 927 689 939 q 711 889 711 915 l 711 853 q 700 815 711 826 q 661 804 689 804 l 282 804 m 351 -21 q 135 62 215 -21 q 54 294 54 144 q 106 501 54 411 q 252 639 157 590 q 474 688 347 688 q 772 604 650 688 l 772 38 q 763 8 772 17 q 732 0 754 0 l 656 0 q 633 6 640 0 q 622 26 625 13 l 611 81 q 505 3 568 28 q 351 -21 442 -21 m 418 106 q 548 149 492 106 q 604 263 604 192 l 604 533 q 545 555 575 549 q 472 561 515 561 q 296 492 363 561 q 229 300 229 422 q 276 153 229 200 q 418 106 322 106 z "},"ą":{"ha":854,"x_min":54,"x_max":772,"o":"m 749 1 q 744 -7 749 -3 q 679 -96 696 -65 q 663 -157 663 -126 q 696 -194 663 -194 q 726 -189 715 -194 q 736 -186 735 -186 q 746 -196 742 -186 l 767 -242 q 769 -250 769 -247 q 753 -265 769 -258 q 650 -282 719 -282 q 560 -251 590 -282 q 529 -174 529 -221 q 549 -94 529 -135 q 614 -3 569 -54 q 629 11 626 10 q 622 26 625 17 l 611 81 q 505 3 568 28 q 351 -21 442 -21 q 135 62 215 -21 q 54 294 54 144 q 106 501 54 411 q 252 639 157 590 q 474 688 347 688 q 772 604 650 688 l 772 38 q 767 13 772 21 q 749 1 763 4 m 604 533 q 545 555 575 549 q 472 561 515 561 q 296 492 363 561 q 229 300 229 422 q 276 153 229 200 q 418 106 322 106 q 548 149 492 106 q 604 263 604 192 l 604 533 z "},"å":{"ha":854,"x_min":54,"x_max":772,"o":"m 472 757 q 357 804 404 757 q 310 919 310 851 q 357 1035 310 988 q 472 1082 404 1082 q 588 1035 540 1082 q 635 919 635 988 q 588 804 635 851 q 472 757 540 757 m 472 844 q 524 867 503 844 q 546 919 546 889 q 524 972 546 950 q 472 993 503 993 q 419 972 442 993 q 397 919 397 950 q 419 867 397 889 q 472 844 442 844 m 351 -21 q 135 62 215 -21 q 54 294 54 144 q 106 501 54 411 q 252 639 157 590 q 474 688 347 688 q 772 604 650 688 l 772 38 q 763 8 772 17 q 732 0 754 0 l 656 0 q 633 6 640 0 q 622 26 625 13 l 611 81 q 505 3 568 28 q 351 -21 442 -21 m 418 106 q 548 149 492 106 q 604 263 604 192 l 604 533 q 545 555 575 549 q 472 561 515 561 q 296 492 363 561 q 229 300 229 422 q 276 153 229 200 q 418 106 322 106 z "},"ǻ":{"ha":854,"x_min":54,"x_max":772,"o":"m 396 1136 q 367 1154 367 1136 q 369 1168 367 1163 l 435 1314 q 453 1335 443 1329 q 486 1340 463 1340 l 589 1340 q 624 1321 624 1340 q 618 1304 624 1314 l 526 1161 q 506 1141 517 1146 q 468 1136 494 1136 l 396 1136 m 465 757 q 350 804 397 757 q 303 919 303 851 q 350 1035 303 988 q 465 1082 397 1082 q 581 1035 533 1082 q 628 919 628 988 q 581 804 628 851 q 465 757 533 757 m 465 844 q 517 867 496 844 q 539 919 539 889 q 517 972 539 950 q 465 993 496 993 q 413 972 435 993 q 390 919 390 950 q 413 867 390 889 q 465 844 435 844 m 351 -21 q 135 62 215 -21 q 54 294 54 144 q 106 501 54 411 q 252 639 157 590 q 474 688 347 688 q 772 604 650 688 l 772 38 q 763 8 772 17 q 732 0 754 0 l 656 0 q 633 6 640 0 q 622 26 625 13 l 611 81 q 505 3 568 28 q 351 -21 442 -21 m 418 106 q 548 149 492 106 q 604 263 604 192 l 604 533 q 545 555 575 549 q 472 561 515 561 q 296 492 363 561 q 229 300 229 422 q 276 153 229 200 q 418 106 322 106 z "},"ã":{"ha":858,"x_min":54,"x_max":789,"o":"m 607 800 q 544 810 575 800 q 471 840 513 821 q 408 866 431 858 q 364 874 386 874 q 321 864 336 874 q 282 829 306 854 q 257 815 272 815 q 208 842 239 815 q 183 881 183 865 q 199 915 183 896 q 267 981 232 958 q 349 1003 301 1003 q 421 992 389 1003 q 496 963 453 982 q 551 939 528 947 q 597 931 574 931 q 643 942 625 931 q 683 982 661 953 q 711 997 694 997 q 758 975 731 997 q 789 932 789 950 q 775 899 789 917 q 703 823 740 846 q 607 800 665 800 m 351 -21 q 135 62 215 -21 q 54 294 54 144 q 106 501 54 411 q 252 639 157 590 q 474 688 347 688 q 772 604 650 688 l 772 38 q 763 8 772 17 q 732 0 754 0 l 656 0 q 633 6 640 0 q 622 26 625 13 l 611 81 q 505 3 568 28 q 351 -21 442 -21 m 418 106 q 548 149 492 106 q 604 263 604 192 l 604 533 q 545 555 575 549 q 472 561 515 561 q 296 492 363 561 q 229 300 229 422 q 276 153 229 200 q 418 106 322 106 z "},"æ":{"ha":1321,"x_min":54,"x_max":1267,"o":"m 325 -21 q 128 30 201 -21 q 54 185 54 81 q 127 347 54 294 q 333 399 200 399 l 550 399 l 550 426 q 507 533 550 496 q 364 571 464 571 q 265 560 308 571 q 181 529 222 550 q 164 524 167 524 q 153 528 158 524 q 144 542 149 533 l 115 599 q 111 613 111 607 q 125 631 111 622 q 240 672 174 657 q 378 688 307 688 q 545 654 482 688 q 642 557 608 621 q 750 654 679 621 q 914 688 821 688 q 1178 597 1089 688 q 1267 336 1267 507 q 1224 288 1267 288 l 724 288 q 785 147 724 197 q 957 97 846 97 q 1151 147 1071 97 q 1168 153 1161 153 q 1183 140 1175 153 l 1215 81 q 1221 65 1221 74 q 1207 47 1221 56 q 1087 -5 1151 11 q 940 -21 1022 -21 q 761 18 840 -21 q 640 131 682 57 q 510 19 593 58 q 325 -21 426 -21 m 1107 390 q 1061 527 1107 481 q 915 574 1015 574 q 724 390 724 574 l 1107 390 m 343 97 q 496 138 442 97 q 550 258 550 179 l 550 296 l 342 296 q 240 272 272 296 q 207 193 207 249 q 239 120 207 143 q 343 97 271 97 z "},"ǽ":{"ha":1321,"x_min":54,"x_max":1267,"o":"m 589 782 q 560 804 560 782 q 563 821 560 815 l 628 1003 q 645 1029 636 1022 q 679 1036 654 1036 l 782 1036 q 817 1013 817 1036 q 811 992 817 1003 l 719 813 q 699 788 710 794 q 661 782 688 782 l 589 782 m 325 -21 q 128 30 201 -21 q 54 185 54 81 q 127 347 54 294 q 333 399 200 399 l 550 399 l 550 426 q 507 533 550 496 q 364 571 464 571 q 265 560 308 571 q 181 529 222 550 q 164 524 167 524 q 153 528 158 524 q 144 542 149 533 l 115 599 q 111 613 111 607 q 125 631 111 622 q 240 672 174 657 q 378 688 307 688 q 545 654 482 688 q 642 557 608 621 q 750 654 679 621 q 914 688 821 688 q 1178 597 1089 688 q 1267 336 1267 507 q 1224 288 1267 288 l 724 288 q 785 147 724 197 q 957 97 846 97 q 1151 147 1071 97 q 1168 153 1161 153 q 1183 140 1175 153 l 1215 81 q 1221 65 1221 74 q 1207 47 1221 56 q 1087 -5 1151 11 q 940 -21 1022 -21 q 761 18 840 -21 q 640 131 682 57 q 510 19 593 58 q 325 -21 426 -21 m 1107 390 q 1061 527 1107 481 q 915 574 1015 574 q 724 390 724 574 l 1107 390 m 343 97 q 496 138 442 97 q 550 258 550 179 l 550 296 l 342 296 q 240 272 272 296 q 207 193 207 249 q 239 120 207 143 q 343 97 271 97 z "},"b":{"ha":857,"x_min":82,"x_max":803,"o":"m 410 -21 q 225 5 315 -21 q 82 69 135 31 l 82 893 q 94 932 82 919 q 133 944 106 944 l 204 944 q 244 932 232 944 q 257 893 257 919 l 257 622 q 351 671 293 654 q 476 688 410 688 q 718 601 633 688 q 803 360 803 515 q 703 79 803 179 q 410 -21 604 -21 m 401 106 q 572 167 517 106 q 626 356 626 229 q 583 510 626 461 q 436 560 539 560 q 311 524 365 560 q 257 421 257 489 l 257 139 q 321 115 281 124 q 401 106 361 106 z "},"c":{"ha":785,"x_min":54,"x_max":729,"o":"m 446 -21 q 158 70 261 -21 q 54 331 54 161 q 101 517 54 436 q 237 642 149 597 q 443 688 325 688 q 592 671 531 688 q 706 617 653 654 q 718 599 718 608 q 711 579 718 590 l 674 514 q 658 500 665 500 q 639 508 651 500 q 553 548 596 535 q 453 561 511 561 q 289 499 349 561 q 229 331 229 438 q 289 162 229 218 q 464 106 349 106 q 565 119 522 106 q 649 160 608 133 q 667 167 660 167 q 683 153 675 167 l 724 85 q 729 69 729 78 q 715 50 729 60 q 596 -3 660 14 q 446 -21 532 -21 z "},"ć":{"ha":785,"x_min":54,"x_max":729,"o":"m 363 771 q 333 793 333 771 q 336 810 333 804 l 401 992 q 419 1018 410 1011 q 453 1025 428 1025 l 556 1025 q 590 1001 590 1025 q 585 981 590 992 l 493 801 q 472 777 483 783 q 435 771 461 771 l 363 771 m 446 -21 q 158 70 261 -21 q 54 331 54 161 q 101 517 54 436 q 237 642 149 597 q 443 688 325 688 q 592 671 531 688 q 706 617 653 654 q 718 599 718 608 q 711 579 718 590 l 674 514 q 658 500 665 500 q 639 508 651 500 q 553 548 596 535 q 453 561 511 561 q 289 499 349 561 q 229 331 229 438 q 289 162 229 218 q 464 106 349 106 q 565 119 522 106 q 649 160 608 133 q 667 167 660 167 q 683 153 675 167 l 724 85 q 729 69 729 78 q 715 50 729 60 q 596 -3 660 14 q 446 -21 532 -21 z "},"č":{"ha":785,"x_min":54,"x_max":729,"o":"m 389 772 q 359 778 367 772 q 336 801 351 783 l 192 997 q 181 1024 181 1013 q 206 1042 181 1042 l 279 1042 q 313 1037 303 1042 q 333 1015 322 1032 l 429 875 l 524 1015 q 543 1037 533 1032 q 578 1042 553 1042 l 650 1042 q 676 1024 676 1042 q 665 997 676 1010 l 521 801 q 499 778 508 783 q 468 772 490 772 l 389 772 m 446 -21 q 158 70 261 -21 q 54 331 54 161 q 101 517 54 436 q 237 642 149 597 q 443 688 325 688 q 592 671 531 688 q 706 617 653 654 q 718 599 718 608 q 711 579 718 590 l 674 514 q 658 500 665 500 q 639 508 651 500 q 553 548 596 535 q 453 561 511 561 q 289 499 349 561 q 229 331 229 438 q 289 162 229 218 q 464 106 349 106 q 565 119 522 106 q 649 160 608 133 q 667 167 660 167 q 683 153 675 167 l 724 85 q 729 69 729 78 q 715 50 729 60 q 596 -3 660 14 q 446 -21 532 -21 z "},"ç":{"ha":785,"x_min":54,"x_max":729,"o":"m 724 85 q 729 69 729 78 q 715 50 729 60 q 510 -18 626 -8 q 507 -31 511 -22 l 475 -100 q 575 -203 575 -108 q 535 -287 575 -256 q 419 -318 494 -318 q 356 -311 388 -318 q 306 -294 324 -304 q 290 -283 293 -287 q 292 -269 288 -279 l 311 -221 q 322 -211 315 -211 q 336 -215 328 -211 q 400 -231 364 -231 q 442 -221 429 -231 q 454 -190 454 -211 q 435 -153 454 -162 q 371 -144 415 -144 l 350 -144 q 335 -138 339 -144 q 336 -122 332 -132 l 374 -28 q 379 -18 376 -22 q 139 88 224 -1 q 54 331 54 178 q 101 517 54 436 q 237 642 149 597 q 443 688 325 688 q 592 671 531 688 q 706 617 653 654 q 718 599 718 608 q 711 579 718 590 l 674 514 q 658 500 665 500 q 639 508 651 500 q 553 548 596 535 q 453 561 511 561 q 289 499 349 561 q 229 331 229 438 q 289 162 229 218 q 464 106 349 106 q 565 119 522 106 q 649 160 608 133 q 667 167 660 167 q 683 153 675 167 l 724 85 z "},"ĉ":{"ha":785,"x_min":54,"x_max":729,"o":"m 221 767 q 198 772 207 767 q 189 788 189 778 q 199 811 189 800 l 343 1007 q 366 1032 358 1026 q 396 1038 374 1038 l 475 1038 q 506 1031 497 1038 q 528 1007 514 1025 l 672 811 q 682 788 682 800 q 674 772 682 778 q 651 767 665 767 l 586 767 q 552 773 563 767 q 529 796 542 779 l 436 935 l 342 796 q 321 773 332 779 q 286 767 310 767 l 221 767 m 446 -21 q 158 70 261 -21 q 54 331 54 161 q 101 517 54 436 q 237 642 149 597 q 443 688 325 688 q 592 671 531 688 q 706 617 653 654 q 718 599 718 608 q 711 579 718 590 l 674 514 q 658 500 665 500 q 639 508 651 500 q 553 548 596 535 q 453 561 511 561 q 289 499 349 561 q 229 331 229 438 q 289 162 229 218 q 464 106 349 106 q 565 119 522 106 q 649 160 608 133 q 667 167 660 167 q 683 153 675 167 l 724 85 q 729 69 729 78 q 715 50 729 60 q 596 -3 660 14 q 446 -21 532 -21 z "},"ċ":{"ha":785,"x_min":54,"x_max":729,"o":"m 419 796 q 373 816 392 796 q 354 865 354 836 l 354 892 q 373 940 354 919 q 419 960 392 960 l 449 960 q 495 940 476 960 q 514 892 514 919 l 514 865 q 496 816 514 836 q 449 796 478 796 l 419 796 m 446 -21 q 158 70 261 -21 q 54 331 54 161 q 101 517 54 436 q 237 642 149 597 q 443 688 325 688 q 592 671 531 688 q 706 617 653 654 q 718 599 718 608 q 711 579 718 590 l 674 514 q 658 500 665 500 q 639 508 651 500 q 553 548 596 535 q 453 561 511 561 q 289 499 349 561 q 229 331 229 438 q 289 162 229 218 q 464 106 349 106 q 565 119 522 106 q 649 160 608 133 q 667 167 660 167 q 683 153 675 167 l 724 85 q 729 69 729 78 q 715 50 729 60 q 596 -3 660 14 q 446 -21 532 -21 z "},"d":{"ha":857,"x_min":54,"x_max":775,"o":"m 449 -21 q 54 335 54 -21 q 94 519 54 439 q 210 643 135 599 q 389 688 286 688 q 600 622 535 688 l 600 893 q 613 932 600 919 q 653 944 625 944 l 722 944 q 763 932 750 944 q 775 893 775 919 l 775 69 q 633 5 722 31 q 449 -21 544 -21 m 453 106 q 600 139 546 106 l 600 422 q 553 525 600 490 q 431 560 506 560 q 279 499 329 560 q 229 331 229 438 q 285 158 229 211 q 453 106 340 106 z "},"ð":{"ha":938,"x_min":54,"x_max":871,"o":"m 369 -21 q 54 254 54 -21 q 105 469 54 378 q 249 610 156 561 q 467 660 342 660 q 622 633 564 660 q 715 551 679 607 q 717 603 717 569 q 703 719 717 674 q 660 792 690 765 l 597 704 q 574 690 588 690 l 450 690 q 437 696 440 690 q 438 708 433 701 l 528 835 q 497 836 518 836 q 315 793 406 836 q 296 788 304 788 q 282 799 288 788 l 256 865 q 253 879 253 876 q 269 903 253 893 q 533 965 375 965 q 615 957 576 965 l 632 981 q 657 994 642 994 l 781 994 q 793 989 790 994 q 792 976 796 983 l 742 907 q 871 603 871 815 q 849 411 871 517 q 672 83 800 186 q 369 -21 543 -21 m 397 110 q 565 175 494 110 q 658 360 635 240 q 663 401 663 383 q 613 510 663 472 q 486 547 564 547 q 297 476 364 547 q 229 258 229 404 q 272 147 229 183 q 397 110 315 110 z "},"ď":{"ha":1063,"x_min":54,"x_max":1076,"o":"m 861 788 q 831 810 831 788 q 833 826 831 821 l 899 1008 q 917 1035 907 1028 q 951 1042 926 1042 l 1042 1042 q 1076 1018 1076 1042 q 1071 997 1076 1008 l 979 818 q 958 794 968 800 q 921 788 947 788 l 861 788 m 449 -21 q 54 335 54 -21 q 94 519 54 439 q 210 643 135 599 q 389 688 286 688 q 600 622 535 688 l 600 893 q 613 932 600 919 q 653 944 625 944 l 722 944 q 763 932 750 944 q 775 893 775 919 l 775 69 q 633 5 722 31 q 449 -21 544 -21 m 453 106 q 536 115 497 106 q 600 139 575 124 l 600 422 q 553 525 600 490 q 431 560 506 560 q 279 499 329 560 q 229 331 229 438 q 285 158 229 211 q 453 106 340 106 z "},"đ":{"ha":888,"x_min":54,"x_max":875,"o":"m 449 -21 q 54 335 54 -21 q 94 519 54 439 q 210 643 135 599 q 389 688 286 688 q 600 622 535 688 l 600 739 l 413 739 q 378 747 388 739 q 369 779 369 756 l 369 817 q 378 850 369 840 q 413 860 388 860 l 600 860 l 600 893 q 613 932 600 919 q 653 944 625 944 l 722 944 q 763 932 750 944 q 775 893 775 919 l 775 860 l 831 860 q 865 850 856 860 q 875 817 875 840 l 875 779 q 865 748 875 757 q 831 739 856 739 l 775 739 l 775 69 q 633 5 722 31 q 449 -21 544 -21 m 453 106 q 600 139 546 106 l 600 422 q 553 525 600 490 q 431 560 506 560 q 279 499 329 560 q 229 331 229 438 q 285 158 229 211 q 453 106 340 106 z "},"ḍ":{"ha":857,"x_min":54,"x_max":775,"o":"m 449 -21 q 54 335 54 -21 q 94 519 54 439 q 210 643 135 599 q 389 688 286 688 q 600 622 535 688 l 600 893 q 613 932 600 919 q 653 944 625 944 l 722 944 q 763 932 750 944 q 775 893 775 919 l 775 69 q 633 5 722 31 q 449 -21 544 -21 m 453 106 q 600 139 546 106 l 600 422 q 553 525 600 490 q 431 560 506 560 q 279 499 329 560 q 229 331 229 438 q 285 158 229 211 q 453 106 340 106 m 442 -256 q 395 -235 414 -256 q 376 -186 376 -215 l 376 -160 q 395 -112 376 -132 q 442 -92 414 -92 l 469 -92 q 517 -111 499 -92 q 535 -160 535 -131 l 535 -186 q 517 -235 535 -215 q 469 -256 499 -256 l 442 -256 z "},"ḏ":{"ha":857,"x_min":54,"x_max":775,"o":"m 449 -21 q 54 335 54 -21 q 94 519 54 439 q 210 643 135 599 q 389 688 286 688 q 600 622 535 688 l 600 893 q 613 932 600 919 q 653 944 625 944 l 722 944 q 763 932 750 944 q 775 893 775 919 l 775 69 q 633 5 722 31 q 449 -21 544 -21 m 453 106 q 600 139 546 106 l 600 422 q 553 525 600 490 q 431 560 506 560 q 279 499 329 560 q 229 331 229 438 q 285 158 229 211 q 453 106 340 106 m 257 -224 q 218 -212 229 -224 q 207 -175 207 -201 l 207 -149 q 218 -110 207 -122 q 257 -99 229 -99 l 618 -99 q 657 -110 646 -99 q 668 -149 668 -122 l 668 -175 q 657 -212 668 -201 q 618 -224 646 -224 l 257 -224 z "},"e":{"ha":831,"x_min":54,"x_max":776,"o":"m 442 -21 q 246 16 333 -21 q 106 130 158 53 q 54 322 54 207 q 150 594 54 501 q 422 688 246 688 q 687 597 597 688 q 776 336 776 507 q 732 288 776 288 l 222 288 q 286 147 222 196 q 464 97 350 97 q 661 147 574 97 q 676 153 671 153 q 692 140 686 153 l 725 81 q 729 65 729 72 q 717 47 729 56 q 594 -4 660 13 q 442 -21 528 -21 m 615 390 q 567 525 615 476 q 424 574 519 574 q 274 524 326 574 q 222 390 222 474 l 615 390 z "},"é":{"ha":831,"x_min":54,"x_max":776,"o":"m 371 771 q 342 793 342 771 q 344 810 342 804 l 410 992 q 427 1018 418 1011 q 461 1025 436 1025 l 564 1025 q 599 1001 599 1025 q 593 981 599 992 l 501 801 q 481 777 492 783 q 443 771 469 771 l 371 771 m 442 -21 q 246 16 333 -21 q 106 130 158 53 q 54 322 54 207 q 150 594 54 501 q 422 688 246 688 q 687 597 597 688 q 776 336 776 507 q 732 288 776 288 l 222 288 q 286 147 222 196 q 464 97 350 97 q 661 147 574 97 q 676 153 671 153 q 692 140 686 153 l 725 81 q 729 65 729 72 q 717 47 729 56 q 594 -4 660 13 q 442 -21 528 -21 m 615 390 q 567 525 615 476 q 424 574 519 574 q 274 524 326 574 q 222 390 222 474 l 615 390 z "},"ĕ":{"ha":831,"x_min":54,"x_max":776,"o":"m 422 775 q 251 837 308 775 q 193 1001 193 899 q 199 1019 193 1013 q 215 1026 206 1026 l 307 1026 q 326 1020 321 1026 q 331 1000 331 1014 q 351 923 331 950 q 422 896 371 896 q 493 923 472 896 q 514 1000 514 950 q 519 1020 514 1014 q 538 1026 524 1026 l 629 1026 q 645 1019 639 1026 q 651 1001 651 1013 q 592 838 651 900 q 422 775 533 775 m 442 -21 q 246 16 333 -21 q 106 130 158 53 q 54 322 54 207 q 150 594 54 501 q 422 688 246 688 q 687 597 597 688 q 776 336 776 507 q 732 288 776 288 l 222 288 q 286 147 222 196 q 464 97 350 97 q 661 147 574 97 q 676 153 671 153 q 692 140 686 153 l 725 81 q 729 65 729 72 q 717 47 729 56 q 594 -4 660 13 q 442 -21 528 -21 m 615 390 q 567 525 615 476 q 424 574 519 574 q 274 524 326 574 q 222 390 222 474 l 615 390 z "},"ě":{"ha":831,"x_min":54,"x_max":776,"o":"m 381 772 q 351 778 358 772 q 328 801 343 783 l 183 997 q 172 1024 172 1013 q 197 1042 172 1042 l 271 1042 q 304 1037 294 1042 q 325 1015 314 1032 l 421 875 l 515 1015 q 535 1037 525 1032 q 569 1042 544 1042 l 642 1042 q 668 1024 668 1042 q 657 997 668 1010 l 513 801 q 491 778 500 783 q 460 772 482 772 l 381 772 m 442 -21 q 246 16 333 -21 q 106 130 158 53 q 54 322 54 207 q 150 594 54 501 q 422 688 246 688 q 687 597 597 688 q 776 336 776 507 q 732 288 776 288 l 222 288 q 286 147 222 196 q 464 97 350 97 q 661 147 574 97 q 676 153 671 153 q 692 140 686 153 l 725 81 q 729 65 729 72 q 717 47 729 56 q 594 -4 660 13 q 442 -21 528 -21 m 615 390 q 567 525 615 476 q 424 574 519 574 q 274 524 326 574 q 222 390 222 474 l 615 390 z "},"ê":{"ha":831,"x_min":54,"x_max":776,"o":"m 206 767 q 183 772 192 767 q 174 788 174 778 q 183 811 174 800 l 328 1007 q 351 1032 343 1026 q 381 1038 358 1038 l 460 1038 q 490 1031 482 1038 q 513 1007 499 1025 l 657 811 q 667 788 667 800 q 658 772 667 778 q 636 767 650 767 l 571 767 q 537 773 547 767 q 514 796 526 779 l 421 935 l 326 796 q 306 773 317 779 q 271 767 294 767 l 206 767 m 442 -21 q 246 16 333 -21 q 106 130 158 53 q 54 322 54 207 q 150 594 54 501 q 422 688 246 688 q 687 597 597 688 q 776 336 776 507 q 732 288 776 288 l 222 288 q 286 147 222 196 q 464 97 350 97 q 661 147 574 97 q 676 153 671 153 q 692 140 686 153 l 725 81 q 729 65 729 72 q 717 47 729 56 q 594 -4 660 13 q 442 -21 528 -21 m 615 390 q 567 525 615 476 q 424 574 519 574 q 274 524 326 574 q 222 390 222 474 l 615 390 z "},"ế":{"ha":831,"x_min":54,"x_max":776,"o":"m 590 967 q 564 988 564 967 q 567 1001 564 993 l 615 1136 q 631 1163 622 1156 q 663 1169 639 1169 l 732 1169 q 761 1149 761 1169 q 754 1126 761 1138 l 686 997 q 665 972 675 978 q 632 967 656 967 l 590 967 m 213 786 q 190 792 199 786 q 182 807 182 797 q 193 831 182 817 l 333 1001 q 358 1026 349 1019 q 389 1032 367 1032 l 451 1032 q 484 1026 474 1032 q 507 1001 494 1019 l 647 831 q 658 807 658 817 q 650 792 658 797 q 628 786 642 786 l 565 786 q 533 791 543 786 q 511 811 524 796 l 421 926 l 329 811 q 309 791 319 796 q 275 786 299 786 l 213 786 m 442 -21 q 246 16 333 -21 q 106 130 158 53 q 54 322 54 207 q 150 594 54 501 q 422 688 246 688 q 687 597 597 688 q 776 336 776 507 q 732 288 776 288 l 222 288 q 286 147 222 196 q 464 97 350 97 q 661 147 574 97 q 676 153 671 153 q 692 140 686 153 l 725 81 q 729 65 729 72 q 717 47 729 56 q 594 -4 660 13 q 442 -21 528 -21 m 615 390 q 567 525 615 476 q 424 574 519 574 q 274 524 326 574 q 222 390 222 474 l 615 390 z "},"ệ":{"ha":831,"x_min":54,"x_max":776,"o":"m 206 767 q 183 772 192 767 q 174 788 174 778 q 183 811 174 800 l 328 1007 q 351 1032 343 1026 q 381 1038 358 1038 l 460 1038 q 490 1031 482 1038 q 513 1007 499 1025 l 657 811 q 667 788 667 800 q 658 772 667 778 q 636 767 650 767 l 571 767 q 537 773 547 767 q 514 796 526 779 l 421 935 l 326 796 q 306 773 317 779 q 271 767 294 767 l 206 767 m 442 -21 q 246 16 333 -21 q 106 130 158 53 q 54 322 54 207 q 150 594 54 501 q 422 688 246 688 q 687 597 597 688 q 776 336 776 507 q 732 288 776 288 l 222 288 q 286 147 222 196 q 464 97 350 97 q 661 147 574 97 q 676 153 671 153 q 692 140 686 153 l 725 81 q 729 65 729 72 q 717 47 729 56 q 594 -4 660 13 q 442 -21 528 -21 m 615 390 q 567 525 615 476 q 424 574 519 574 q 274 524 326 574 q 222 390 222 474 l 615 390 m 407 -256 q 360 -235 379 -256 q 342 -186 342 -215 l 342 -160 q 360 -112 342 -132 q 407 -92 379 -92 l 435 -92 q 482 -111 464 -92 q 500 -160 500 -131 l 500 -186 q 482 -235 500 -215 q 435 -256 464 -256 l 407 -256 z "},"ề":{"ha":831,"x_min":54,"x_max":776,"o":"m 210 967 q 176 972 186 967 q 156 997 167 978 l 88 1126 q 81 1149 81 1140 q 110 1169 81 1169 l 179 1169 q 211 1163 203 1169 q 226 1136 219 1156 l 275 1001 q 278 988 278 993 q 251 967 278 967 l 210 967 m 214 786 q 192 792 200 786 q 183 807 183 797 q 194 831 183 817 l 335 1001 q 360 1026 350 1019 q 390 1032 369 1032 l 453 1032 q 484 1026 475 1032 q 508 1001 493 1019 l 649 831 q 660 807 660 817 q 651 792 660 797 q 629 786 643 786 l 567 786 q 535 791 544 786 q 513 811 525 796 l 421 926 l 331 811 q 308 791 318 796 q 276 786 299 786 l 214 786 m 442 -21 q 246 16 333 -21 q 106 130 158 53 q 54 322 54 207 q 150 594 54 501 q 422 688 246 688 q 687 597 597 688 q 776 336 776 507 q 732 288 776 288 l 222 288 q 286 147 222 196 q 464 97 350 97 q 661 147 574 97 q 676 153 671 153 q 692 140 686 153 l 725 81 q 729 65 729 72 q 717 47 729 56 q 594 -4 660 13 q 442 -21 528 -21 m 615 390 q 567 525 615 476 q 424 574 519 574 q 274 524 326 574 q 222 390 222 474 l 615 390 z "},"ể":{"ha":831,"x_min":54,"x_max":776,"o":"m 600 953 q 571 981 571 953 l 571 1019 q 614 1058 571 1058 q 657 1067 644 1058 q 669 1094 669 1075 q 622 1126 669 1126 q 549 1107 582 1126 q 538 1110 540 1103 l 513 1160 q 517 1174 510 1168 q 572 1195 538 1188 q 640 1203 606 1203 q 741 1176 707 1203 q 775 1099 775 1149 q 747 1026 775 1051 q 675 1000 718 1000 l 675 981 q 647 953 675 953 l 600 953 m 190 793 q 174 807 174 793 q 179 819 174 814 l 335 1003 q 359 1026 350 1021 q 390 1032 368 1032 l 453 1032 q 485 1026 475 1032 q 508 1003 494 1021 l 664 819 q 669 807 669 814 q 653 793 669 793 l 554 793 q 536 795 542 793 q 525 804 531 797 l 421 932 l 318 804 q 307 795 313 797 q 289 793 301 793 l 190 793 m 442 -21 q 246 16 333 -21 q 106 130 158 53 q 54 322 54 207 q 150 594 54 501 q 422 688 246 688 q 687 597 597 688 q 776 336 776 507 q 732 288 776 288 l 222 288 q 286 147 222 196 q 464 97 350 97 q 661 147 574 97 q 676 153 671 153 q 692 140 686 153 l 725 81 q 729 65 729 72 q 717 47 729 56 q 594 -4 660 13 q 442 -21 528 -21 m 615 390 q 567 525 615 476 q 424 574 519 574 q 274 524 326 574 q 222 390 222 474 l 615 390 z "},"ễ":{"ha":831,"x_min":54,"x_max":776,"o":"m 522 1050 q 473 1058 494 1050 q 421 1082 451 1065 q 378 1102 394 1096 q 342 1108 361 1108 q 304 1099 318 1108 q 272 1069 290 1090 q 249 1056 263 1056 q 208 1076 233 1056 q 194 1092 200 1083 q 188 1107 188 1100 q 199 1133 188 1118 q 257 1191 225 1171 q 331 1211 289 1211 q 388 1202 364 1211 q 442 1176 413 1193 q 484 1157 469 1163 q 517 1151 499 1151 q 555 1160 540 1151 q 586 1190 569 1168 q 611 1206 597 1206 q 650 1188 626 1206 q 672 1156 672 1169 q 660 1126 672 1143 q 599 1068 631 1086 q 522 1050 567 1050 m 190 793 q 174 807 174 793 q 179 819 174 814 l 335 1003 q 359 1026 350 1021 q 390 1032 368 1032 l 453 1032 q 485 1026 475 1032 q 508 1003 494 1021 l 664 819 q 669 807 669 814 q 653 793 669 793 l 554 793 q 536 795 542 793 q 525 804 531 797 l 421 932 l 318 804 q 307 795 313 797 q 289 793 301 793 l 190 793 m 442 -21 q 246 16 333 -21 q 106 130 158 53 q 54 322 54 207 q 150 594 54 501 q 422 688 246 688 q 687 597 597 688 q 776 336 776 507 q 732 288 776 288 l 222 288 q 286 147 222 196 q 464 97 350 97 q 661 147 574 97 q 676 153 671 153 q 692 140 686 153 l 725 81 q 729 65 729 72 q 717 47 729 56 q 594 -4 660 13 q 442 -21 528 -21 m 615 390 q 567 525 615 476 q 424 574 519 574 q 274 524 326 574 q 222 390 222 474 l 615 390 z "},"ë":{"ha":831,"x_min":54,"x_max":776,"o":"m 274 749 q 226 769 244 749 q 208 818 208 789 l 208 844 q 226 893 208 874 q 274 913 244 913 l 301 913 q 349 893 331 913 q 367 844 367 874 l 367 818 q 349 769 367 789 q 301 749 331 749 l 274 749 m 547 749 q 501 769 519 749 q 482 818 482 789 l 482 844 q 501 892 482 872 q 547 913 519 913 l 575 913 q 622 893 604 913 q 640 844 640 874 l 640 818 q 622 769 640 789 q 575 749 604 749 l 547 749 m 442 -21 q 246 16 333 -21 q 106 130 158 53 q 54 322 54 207 q 150 594 54 501 q 422 688 246 688 q 687 597 597 688 q 776 336 776 507 q 732 288 776 288 l 222 288 q 286 147 222 196 q 464 97 350 97 q 661 147 574 97 q 676 153 671 153 q 692 140 686 153 l 725 81 q 729 65 729 72 q 717 47 729 56 q 594 -4 660 13 q 442 -21 528 -21 m 615 390 q 567 525 615 476 q 424 574 519 574 q 274 524 326 574 q 222 390 222 474 l 615 390 z "},"ė":{"ha":831,"x_min":54,"x_max":776,"o":"m 407 796 q 360 816 379 796 q 342 865 342 836 l 342 892 q 360 940 342 919 q 407 960 379 960 l 436 960 q 483 940 464 960 q 501 892 501 919 l 501 865 q 483 816 501 836 q 436 796 465 796 l 407 796 m 442 -21 q 246 16 333 -21 q 106 130 158 53 q 54 322 54 207 q 150 594 54 501 q 422 688 246 688 q 687 597 597 688 q 776 336 776 507 q 732 288 776 288 l 222 288 q 286 147 222 196 q 464 97 350 97 q 661 147 574 97 q 676 153 671 153 q 692 140 686 153 l 725 81 q 729 65 729 72 q 717 47 729 56 q 594 -4 660 13 q 442 -21 528 -21 m 615 390 q 567 525 615 476 q 424 574 519 574 q 274 524 326 574 q 222 390 222 474 l 615 390 z "},"ẹ":{"ha":831,"x_min":54,"x_max":776,"o":"m 442 -21 q 246 16 333 -21 q 106 130 158 53 q 54 322 54 207 q 150 594 54 501 q 422 688 246 688 q 687 597 597 688 q 776 336 776 507 q 732 288 776 288 l 222 288 q 286 147 222 196 q 464 97 350 97 q 661 147 574 97 q 676 153 671 153 q 692 140 686 153 l 725 81 q 729 65 729 72 q 717 47 729 56 q 594 -4 660 13 q 442 -21 528 -21 m 615 390 q 567 525 615 476 q 424 574 519 574 q 274 524 326 574 q 222 390 222 474 l 615 390 m 401 -256 q 355 -235 374 -256 q 336 -186 336 -215 l 336 -160 q 355 -112 336 -132 q 401 -92 374 -92 l 429 -92 q 476 -111 458 -92 q 494 -160 494 -131 l 494 -186 q 476 -235 494 -215 q 429 -256 458 -256 l 401 -256 z "},"è":{"ha":831,"x_min":54,"x_max":776,"o":"m 422 771 q 386 777 397 771 q 365 801 375 783 l 274 981 q 268 1001 268 992 q 303 1025 268 1025 l 404 1025 q 440 1018 431 1025 q 456 992 449 1011 l 522 810 q 525 793 525 804 q 494 771 525 771 l 422 771 m 442 -21 q 246 16 333 -21 q 106 130 158 53 q 54 322 54 207 q 150 594 54 501 q 422 688 246 688 q 687 597 597 688 q 776 336 776 507 q 732 288 776 288 l 222 288 q 286 147 222 196 q 464 97 350 97 q 661 147 574 97 q 676 153 671 153 q 692 140 686 153 l 725 81 q 729 65 729 72 q 717 47 729 56 q 594 -4 660 13 q 442 -21 528 -21 m 615 390 q 567 525 615 476 q 424 574 519 574 q 274 524 326 574 q 222 390 222 474 l 615 390 z "},"ẻ":{"ha":831,"x_min":54,"x_max":776,"o":"m 376 757 q 344 789 344 757 l 344 851 q 356 884 344 874 q 393 894 367 894 q 459 906 442 894 q 476 947 476 918 q 460 982 476 971 q 404 993 443 993 q 300 967 353 993 q 286 969 290 963 l 257 1033 q 256 1040 256 1036 q 263 1050 256 1044 q 333 1078 290 1068 q 419 1089 376 1089 q 557 1053 511 1089 q 603 953 603 1018 q 563 856 603 892 q 467 819 522 819 l 467 789 q 435 757 467 757 l 376 757 m 442 -21 q 246 16 333 -21 q 106 130 158 53 q 54 322 54 207 q 150 594 54 501 q 422 688 246 688 q 687 597 597 688 q 776 336 776 507 q 732 288 776 288 l 222 288 q 286 147 222 196 q 464 97 350 97 q 661 147 574 97 q 676 153 671 153 q 692 140 686 153 l 725 81 q 729 65 729 72 q 717 47 729 56 q 594 -4 660 13 q 442 -21 528 -21 m 615 390 q 567 525 615 476 q 424 574 519 574 q 274 524 326 574 q 222 390 222 474 l 615 390 z "},"ē":{"ha":831,"x_min":54,"x_max":776,"o":"m 232 815 q 193 826 204 815 q 182 864 182 838 l 182 900 q 193 938 182 926 q 232 950 204 950 l 611 950 q 650 938 639 950 q 661 900 661 926 l 661 864 q 650 826 661 838 q 611 815 639 815 l 232 815 m 442 -21 q 246 16 333 -21 q 106 130 158 53 q 54 322 54 207 q 150 594 54 501 q 422 688 246 688 q 687 597 597 688 q 776 336 776 507 q 732 288 776 288 l 222 288 q 286 147 222 196 q 464 97 350 97 q 661 147 574 97 q 676 153 671 153 q 692 140 686 153 l 725 81 q 729 65 729 72 q 717 47 729 56 q 594 -4 660 13 q 442 -21 528 -21 m 615 390 q 567 525 615 476 q 424 574 519 574 q 274 524 326 574 q 222 390 222 474 l 615 390 z "},"ę":{"ha":831,"x_min":54,"x_max":776,"o":"m 776 336 q 732 288 776 288 l 222 288 q 286 147 222 196 q 464 97 350 97 q 661 147 574 97 q 676 153 671 153 q 692 140 686 153 l 725 81 q 729 67 729 72 q 725 54 729 61 l 722 50 q 657 -39 674 -8 q 640 -100 640 -69 q 674 -137 640 -137 q 704 -132 693 -137 q 714 -129 713 -129 q 724 -139 719 -129 l 744 -185 q 747 -193 747 -190 q 731 -208 747 -201 q 628 -225 697 -225 q 538 -194 568 -225 q 507 -117 507 -164 q 539 -15 507 -69 q 442 -21 500 -21 q 246 16 333 -21 q 106 130 158 53 q 54 322 54 207 q 150 594 54 501 q 422 688 246 688 q 687 597 597 688 q 776 336 776 507 m 615 390 q 567 525 615 476 q 424 574 519 574 q 274 524 326 574 q 222 390 222 474 l 615 390 z "},"ẽ":{"ha":832,"x_min":54,"x_max":776,"o":"m 553 789 q 490 799 521 789 q 417 829 458 810 q 354 855 376 847 q 310 863 332 863 q 267 853 282 863 q 228 818 251 843 q 203 804 218 804 q 154 831 185 804 q 129 869 129 854 q 144 904 129 885 q 213 969 178 947 q 294 992 247 992 q 367 981 335 992 q 442 951 399 971 q 497 928 474 936 q 543 919 519 919 q 589 931 571 919 q 629 971 607 942 q 657 986 640 986 q 704 964 676 986 q 735 921 735 939 q 721 888 735 906 q 649 812 686 835 q 553 789 611 789 m 442 -21 q 246 16 333 -21 q 106 130 158 53 q 54 322 54 207 q 150 594 54 501 q 422 688 246 688 q 687 597 597 688 q 776 336 776 507 q 732 288 776 288 l 222 288 q 286 147 222 196 q 464 97 350 97 q 661 147 574 97 q 676 153 671 153 q 692 140 686 153 l 725 81 q 729 65 729 72 q 717 47 729 56 q 594 -4 660 13 q 442 -21 528 -21 m 615 390 q 567 525 615 476 q 424 574 519 574 q 274 524 326 574 q 222 390 222 474 l 615 390 z "},"f":{"ha":601,"x_min":26,"x_max":601,"o":"m 192 0 q 152 13 164 0 q 140 50 140 25 l 140 536 l 75 536 q 37 548 47 536 q 26 586 26 560 l 26 618 q 37 656 26 644 q 75 667 47 667 l 140 667 l 140 718 q 203 900 140 835 q 390 965 265 965 q 589 911 517 965 q 601 892 601 903 q 596 876 601 883 l 561 818 q 546 806 553 806 q 531 811 542 806 q 480 834 503 826 q 426 842 457 842 q 342 813 367 842 q 318 721 318 783 l 318 667 l 489 667 q 528 656 517 667 q 539 618 539 644 l 539 586 q 528 548 539 560 q 489 536 517 536 l 318 536 l 318 50 q 306 13 318 25 q 265 0 294 0 l 192 0 z "},"g":{"ha":857,"x_min":54,"x_max":775,"o":"m 436 -236 q 279 -221 356 -236 q 163 -181 203 -206 q 151 -150 140 -168 l 192 -82 q 208 -68 200 -68 q 222 -72 214 -68 q 421 -111 299 -111 q 557 -67 514 -111 q 600 83 600 -22 q 509 22 561 42 q 383 1 457 1 q 141 86 228 1 q 54 325 54 171 q 158 594 54 500 q 457 688 261 688 q 634 663 547 688 q 775 600 721 638 l 775 124 q 693 -140 775 -44 q 436 -236 611 -236 m 425 132 q 551 173 503 132 q 600 286 600 214 l 600 533 q 533 553 574 546 q 449 560 493 560 q 229 336 229 560 q 278 183 229 233 q 425 132 326 132 z "},"ğ":{"ha":857,"x_min":54,"x_max":775,"o":"m 449 769 q 277 831 335 769 q 219 996 219 893 q 226 1014 219 1007 q 242 1021 232 1021 l 333 1021 q 352 1015 347 1021 q 357 994 357 1008 q 377 917 357 944 q 449 890 397 890 q 519 917 499 890 q 540 994 540 944 q 545 1015 540 1008 q 564 1021 550 1021 l 656 1021 q 672 1014 665 1021 q 678 996 678 1007 q 619 832 678 894 q 449 769 560 769 m 436 -236 q 279 -221 356 -236 q 163 -181 203 -206 q 151 -150 140 -168 l 192 -82 q 208 -68 200 -68 q 222 -72 214 -68 q 421 -111 299 -111 q 557 -67 514 -111 q 600 83 600 -22 q 509 22 561 42 q 383 1 457 1 q 141 86 228 1 q 54 325 54 171 q 158 594 54 500 q 457 688 261 688 q 634 663 547 688 q 775 600 721 638 l 775 124 q 693 -140 775 -44 q 436 -236 611 -236 m 425 132 q 551 173 503 132 q 600 286 600 214 l 600 533 q 533 553 574 546 q 449 560 493 560 q 229 336 229 560 q 278 183 229 233 q 425 132 326 132 z "}}}
